<mxfile host="65bd71144e">
    <diagram name="Page-1" id="c9db0220-8083-56f3-ca83-edcdcd058819">
        <mxGraphModel dx="1619" dy="977" grid="1" gridSize="10" guides="1" tooltips="1" connect="1" arrows="1" fold="1" page="1" pageScale="1.5" pageWidth="826" pageHeight="1169" background="#ffffff" math="0" shadow="0">
            <root>
                <mxCell id="0" style=";html=1;"/>
                <mxCell id="1" style=";html=1;" parent="0"/>
                <mxCell id="PxfYsGnpCf7-yWaWJEkX-1" value="" style="rounded=1;whiteSpace=wrap;html=1;fillColor=#f8cecc;strokeColor=none;perimeterSpacing=1;arcSize=3;" parent="1" vertex="1">
                    <mxGeometry x="40" y="103" width="620" height="370" as="geometry"/>
                </mxCell>
                <mxCell id="PxfYsGnpCf7-yWaWJEkX-14" value="" style="rounded=1;whiteSpace=wrap;html=1;fillColor=#CCE5FF;strokeColor=none;perimeterSpacing=1;arcSize=3;" parent="1" vertex="1">
                    <mxGeometry x="330" y="103" width="330" height="370" as="geometry"/>
                </mxCell>
                <mxCell id="PxfYsGnpCf7-yWaWJEkX-31" value="" style="group" parent="1" vertex="1" connectable="0">
                    <mxGeometry x="60" y="123" width="236" height="240" as="geometry"/>
                </mxCell>
                <mxCell id="PxfYsGnpCf7-yWaWJEkX-3" value="User Name or Email" style="html=1;shadow=0;dashed=0;shape=mxgraph.bootstrap.rrect;rSize=5;strokeColor=#dddddd;;align=left;spacingLeft=10;fontSize=16;whiteSpace=wrap;rounded=0;" parent="PxfYsGnpCf7-yWaWJEkX-31" vertex="1">
                    <mxGeometry y="20" width="236" height="40" as="geometry"/>
                </mxCell>
                <mxCell id="PxfYsGnpCf7-yWaWJEkX-4" value="Name or Email" style="html=1;shadow=0;dashed=0;shape=mxgraph.bootstrap.rect;strokeColor=none;fillColor=none;fontColor=#999999;align=left;spacingLeft=5;whiteSpace=wrap;rounded=0;" parent="PxfYsGnpCf7-yWaWJEkX-31" vertex="1">
                    <mxGeometry width="200" height="20" as="geometry"/>
                </mxCell>
                <mxCell id="PxfYsGnpCf7-yWaWJEkX-5" value="Password" style="html=1;shadow=0;dashed=0;shape=mxgraph.bootstrap.rect;strokeColor=none;fillColor=none;fontColor=#999999;align=left;spacingLeft=5;whiteSpace=wrap;rounded=0;" parent="PxfYsGnpCf7-yWaWJEkX-31" vertex="1">
                    <mxGeometry y="80" width="200" height="20" as="geometry"/>
                </mxCell>
                <mxCell id="PxfYsGnpCf7-yWaWJEkX-6" value="User Password" style="html=1;shadow=0;dashed=0;shape=mxgraph.bootstrap.rrect;rSize=5;strokeColor=#dddddd;;align=left;spacingLeft=10;fontSize=16;whiteSpace=wrap;rounded=0;" parent="PxfYsGnpCf7-yWaWJEkX-31" vertex="1">
                    <mxGeometry y="100" width="236" height="40" as="geometry"/>
                </mxCell>
                <mxCell id="PxfYsGnpCf7-yWaWJEkX-7" value="Log in" style="html=1;shadow=0;dashed=0;shape=mxgraph.bootstrap.rrect;align=center;rSize=5;strokeColor=none;fillColor=#3D8BCD;fontColor=#ffffff;fontSize=16;whiteSpace=wrap;rounded=0;" parent="PxfYsGnpCf7-yWaWJEkX-31" vertex="1">
                    <mxGeometry y="200" width="236" height="40" as="geometry"/>
                </mxCell>
                <mxCell id="PxfYsGnpCf7-yWaWJEkX-8" value="Stay Logged In" style="html=1;shadow=0;dashed=0;shape=mxgraph.bootstrap.checkbox;fontSize=12;strokeColor=#999999;align=left;labelPosition=right;spacingLeft=5;rounded=0;" parent="PxfYsGnpCf7-yWaWJEkX-31" vertex="1">
                    <mxGeometry x="6" y="158" width="14" height="14" as="geometry"/>
                </mxCell>
                <mxCell id="PxfYsGnpCf7-yWaWJEkX-32" value="" style="group" parent="1" vertex="1" connectable="0">
                    <mxGeometry x="330" y="123" width="330" height="240" as="geometry"/>
                </mxCell>
                <mxCell id="PxfYsGnpCf7-yWaWJEkX-18" value="Log In With" style="html=1;shadow=0;dashed=0;shape=mxgraph.bootstrap.anchor;fontSize=26;align=center;whiteSpace=wrap;" parent="PxfYsGnpCf7-yWaWJEkX-32" vertex="1">
                    <mxGeometry width="330" height="40" as="geometry"/>
                </mxCell>
                <mxCell id="PxfYsGnpCf7-yWaWJEkX-23" value="" style="shape=image;verticalLabelPosition=bottom;labelBackgroundColor=default;verticalAlign=top;aspect=fixed;imageAspect=0;image=data:image/png,iVBORw0KGgoAAAANSUhEUgAAAgAAAAIACAYAAAD0eNT6AAAABGdBTUEAALGPC/xhBQAAACBjSFJNAAB6JgAAgIQAAPoAAACA6AAAdTAAAOpgAAA6mAAAF3CculE8AAAABmJLR0QAAAAAAAD5Q7t/AAAACXBIWXMAABcRAAAXEQHKJvM/AAAAB3RJTUUH6AMDCC8ehdayxwAAO7RJREFUeNrt3XmcXXV9//HXuXdmkkzCScKWC0LYBRFQQREFN5S6tbXah7VqVVyx1o0qvdpWq63+9KpVqq1LXau1glVxQaso4Aqo7PsqJIHkEpJJcjOZ/Z7v74/viYaQSWa5M3d7PR9eJ2Sd+zln5vv+fs93SZDUMUrlWpL/sAAkQDH/mOQ/NxUByHb4uP1FtZIGqyx1hsQSSC3bkBeAXmAB0J+/FgMpsBewJP+4/bUYWJT/voVAX/7fxfzv6J3iPz8BjOSN/jAwlv/3MDAEDALbgK07vWr5zw/lH8fyV2ZwkAwAkmIDX8gb5cXAMmBvYAWwH1Da4cd756/tDX5/3rD35q9Ck99KAMbzhn58h4CwFdgEbAQ2APcDVWB9/hrIf30bMFKtpJl3hWQAkDqpkV8ILAX2Bw4EDgZW5q8D859fnvfqt/faO9l4PpqwNQ8B64F1wBpgFbAaWJv//BZg2HAgGQCkVm3oE+JQ+3LgYcChwJH569C8od8n78X3+XW3W2P5CMLGPAisAu4A7gTuAe7Lg8OQjxUkA4A03736JXnP/TDgGOBY4Ki8V79f3tAXrVZD1YmPCx7IRwtuB24FbgHuJj5eGKxW0rqlkgwAUiN69guJz+MPB47PX4/IG/t9819X84zmIwKr80BwPXBjPmJwvyMFkgFAmmrvPiU+pz8OOBE4Ie/dl4jD/Gp9I8Q5BHfmgeDqPBTcA2xxToFkAJANfoE4Qe9Q4NHA4/OPhxNn3juM3xky4oqDu4Frgd/mH+8ENhsIZACQOr/BT4jL6A7Ne/enAI8FjiBO4CtYpa4QiCsM7spHBy7PP/6OOI/ARwYyAEgd0Oj3EJ/hnwCcBjyBOGlvX3v42mGEYCNxDsHlwK/yEYJ11Uo6bnlkAJDap9HvJw7jnwI8Ne/lH4IT9jQ1Y8SVBlcBPwMuIz4u2ObogAwAUms1+Alx8t6xwFOApwGPIi7Jc1hfsxHy0YEbgJ8ClxInFG42DMgAIDWv0V+WN/Sn56/jiJP6pLmyFbg5Hxn4MXANMGAYkAFAmvtGf2ne6D8TeHre619iddQEQ8SNiC4BLiJOJNxkGJABQGpcw784790/M38dT9xtT2qlMHBjHgR+CFxfraRbLYsMANL0G/1e4l76zwD+GHgccame1Oq25KMB388Dwe3VSjpqWWQAkCZv9BPikr3TgD8jTuh7mPep2lQgbkf8C+A7xEmE69x4SAYA6Q8N/yLiOv3nAc8h7rXfZ2XUQSaIBxj9H/Bt4JpqJd1mWWQAULf29g8gTuR7IXAqcftdqdNtIW449A3iSoJ7HRWQAUDd0PD3AY8EXkAc5j8a6LUy6kJ14A7ge8A3geuqlXTEssgAoE5r+JcCTwJeTJzYt79VkX5vI3GOwNeAS6uVdMCSyACgdm70E+IkvufmDf/JeKSutDujxBUE5wHfBVb7eEAGALVTw18EHk58tv8XwDF48I40HRnx/IFvAOcDN1cr6YRlkQFArdrw9wKPBv4KeD5wsFWRZm0tcZ7AV4Ar3VNABgC1UsO/EHg8cCZxuH8/qyI13CbiLoNfBH5VraRDlkQGADWr4e8nbtrzSuBZxMN5JM2trcTzBz4PXOJ+AjIAaL4b/icBrwPOwH35pWbYRjye+D8NAjIAaK4b/kXAk234pZYylI8IGARkAFDDG/4FxJ36zgKebcMvtWwQuBj4FPDTaiUdtiQyAGimDX8P8RS+1wN/is/4pXawlThZ8JPAZdVKOmZJZADQVBv+AnG73rOI6/id1S+1n03ABfmIwDXVSlq3JDIAaLKGPwEOAV5FXNLnOn6p/VWB/wY+C9xRraTBksgAoB0b/32BFwFvIB7H670hdZY7iRMFv1KtpFXLIb/J2/AvIq7hPxt4AtBjVaSOlQFXAv8GfLdaSQctiQFA3dfwF4GT8ob/T4DFVkXqGiPEiYIfBS73nAEDgLqn8V9JXMv/aqBkRaSutYF4xsB/AL9zfoABQJ3b8C8BXgD8LXCC119S7lbgXOC8aiXdYjkMAOqchr8APBY4B/hjYKFVkbSTMeAnQIW4f4CPBQwAavPGv0Qc7j8LONCKSNqDB4gHDX2yWknXWA4DgNqv4e8j7tf/98ApQMGqSJqiAFwNfBC4sFpJRyyJAUDt0fgfRpzd/3JgqRWRNEPbgPOAD1cr6W2WwwCg1m34FwLPA94JPMqKSGqQW4EPAV/3tEEDgFqv8T8C+DvgpbimX1LjjQDfBD4A3OySQQOAWqfX/w/A8VZE0hy7g7hS4DxHAwwAal7jf1je63+ZvX5J8zwa8L/A+50bYADQ/Db8vcCzgfcAj7EikprkZuBfgAuqlXTUchgANLeN/wrgrcDrgWVWRFKTDQJfBD5UraT3Wg4DgBrf8CfE0/reBzwF1/VLah0BuAJ4F/DTaiWtWxIDgBrT+C8GziQu73uYFZHUotYD/wp8xjMFDACafeN/OPBu4C+BBVZEUosbB74N/FO1kt5iOQwAmn7DXwCeDvw/4kE+ktRObiIuT/6+BwsZADT1xn8J8QCfMrC/FZHUpjYBHwM+Ua2kmy2HAUC7b/wPBd5LHPLvsyKS2twE8ZHAP7pngAFAu274E+BJxB22TrEikjrMdcA7gIuqlTSzHAYAxcZ/AfBXec/fWf6SOtUDwPuBz1Yr6ZDlMAB0e+O/D/FZ/xtwO19JnW8E+BLw3molrVoOA0C3Nv4PBz5IPMzHjX0kdYsA/AR4e7WSXm85DADd1PAnwJOBjwInWhFJXepm4Bzgh84LmH/2Oue/8e8lPu//io2/pC53LPEcgdflc6HkCEDHNv5LgLcQj/BNrYgkATAEfByouF+AAaATG/8VxFn+r8T1/ZK0szpwHvDOaiVdYzkMAJ3S+B9FPCDjj625JO3WJcBbq5X0BkthAGj3xv9xxKEtN/eRpKm5HnhztZL+zFIYANqx4U+AZwLnAkdbEUmallXA24ALXCEwN1wFMDeNfxF4CfB5G39JmpFDgE8Dr81XT8kRgJZv/PuAs4gT/pZbEUmalUHisejnVivpsOUwALRq498PvJ24zM9tfSWpMUaBTwD/Uq2kNcthAGi1xn8p8G7gjbjMT5IabYK4adDfVyvpBsthAGiVxn9f4hDVq4CiFZGkORGA84G/rVbSdZbDANDsxv8A4CPAi62nJM2L7xKXCa6yFAaAZjX+BxOX+b3AakjSvLoI+JtqJb3TUhgA5rvxPwT4D+C5VkOSmuKnwBuqlfQWS2EAmK/G/0jgk8AZVkOSmuoy4HXVSnqTpTAAzEfj/xngdKshSYYAA4CNvyTJEGAAsPGXJBkCDAA2/pIkQ4ABoK0a/0OAz+KEP0lqpxDw2molvdlSTM7TAHff+B9MXOpn4y9J7eOJwH/ko7cyAEy78T+AuMmP6/wlqf08FfhUPoorA8CUG/99gQ/jDn+S1M6eAXyiVK4daCkMAFNp/JcSD/Z5idWQpLb3J8C/5h07GQAmbfz7iUf6vgonSEpSp3gR8IG8gycDwEMa/z7g7cAb8UhfSeokCfBK4F15R08GgN83/kXgLODvgD4rIkkdp5h38M7OO3ymIhv/WkJ83v8JYLm3hCR1tEHgHOA/q5U0cwSguz0T+JCNvyR1hSXA+4A/dwSgu3v/JwP/BRzj14QkdZXVwJnVSnqpAaD7Gv+jgC8Dp/h1IEld6QbgZdVKel03vvmufARQKtdWAB+x8ZekrnY8cG6pXFtpAOiOxn8J8F7i5hCSpO72VOCDpXKt6+aBdVUAKJVrPcBbcKMfSdIfvAh4Z6lcW2gA6FwvJq717/V+lyTt0Ba+EXh1qVwrdNOb7pbe/1OB9wOp97okaSeLiFvBP6db3nBXDIOXyrWHA/8DnOQ9LknajVuAl1Yr6TWOALR/478P8EEbf0nSFDwC+FA3HCHc0QGgVK4tAMrA87ynJUlT9Azgn0rl2mIDQPv6K+ANuOWxJGl6zgTO6uRJgT0d3Pt/MvAeYLH3sdS+QgAID/65/P/Cjv/90N+2e8mDPvzhx7v4+Z3/YOIi4m7QB7wDuA34fie+wY68jUvl2qHA13CnP6ntGvmQ/3fYoTEvFKCYJPT1QF8PWV8xKSzqhUV9SX1hD6Gvh2JvMUkW9kCSQH9fMlFIeNBJb+N1iiPjoQhQDzAyDlkIjNeZmKjDWD0koxMUxyZgvE6YyEKYqJOMZyQTGYQQyAJkYaegkcRvpMkOP37QN1nTQru7AXhRtZLeYgBo/cZ/CfDvwCu8b6XWbewf1NAn0FNIWNgL6cIk7N2fhP32SpIDlibZ/nsVCqW9kmzfJUmydFGSLO9P6v19FBf2JsmiXup9PQnFhGIhiUEBoFgg7PzNLQskWfjD55CF33+s1zMYjwGgMF6H8XrIRieoD42FwtZRisNjIWwbY3zLcChuHg7FwdEwsWU4sGko9GwdoT44GqiNhOLwGNnIREhGxknqGUxk4UFBZnsWSB4UFBxRaAMXAK+pVtIBA0DrNv4JcDbwgXz4RlKrNPjbe88J9BUTli4ilNJCOHSfAkfsV+DwfQth5fIkKaUFlvWTLFmQ0FskKbRo65iFQD2DiTphZIIwNBYKw+OhvmWYZNNQSLYMh4n7a6F3YChMrN+aFTYMBgaGApuHQjI4Stg2FgpjEzBRjyMLDxpN2CEgOILQGpcb+H/Ae6uVdKJT3lSnzQF4BnHWv42/1NRGP/bwsxAbskV9CSv2SsKR+xXCcQcWOe7AAkfuV6CUFpJ0IUmx0H4NXSFJKBSht0iyqI9keX8CUNzht2zfcbQnDwtheAy2jQVqIyFs3BbChsFQX7clFO+vZfW1tVBcXwvhgcGQbBkObB0Nyej4g0cRksRw0KzLDbwJuB74X0cAWq/3fzhwPvBY71WpOY3+9mH13p6E/ZYk4RGlQnjsyiInrizy8P0LyX57JcmCHhutyUYURsYJQ2OBTUMhbBgMYd2WkNy3JQurB0KydksWqltCYcO2wNaRwPA4ST0fOigWrOk8uQX4i2olvdEA0DqN/2Lic/8zvT+lee7p50P7C3sTVu6dhJNWFsNpR/Rw4sEFDlpeKCzstXFqRJ3H64RtYzCwLbB+a5at2RSSVQNZuOS2Ca5ZUy86GjBvvgW8ulpJN7f7G+mURwCvBF7ifSnNU6MPZBn09SQcvDwJTzy8J5x+dJGTVhaT/fdKCvZIG9xTiysgkr4eWN6fcMR+heIT8l9LFyZjV62uF4uWfL48D7i6VK59oFpJMwNAc3v/p+Jzf2leGv7tk9X2W1IIJx9aDM9+ZA9PPLyYHLDURl9dowi8FbgK+KEBoHmN/wrgn4GDvCeluWv46yHO3D96v0J49iN7wnOO6+HoFYWCz/PVpfYF3lsq126pVtJVBoD5b/x78hT2NO9Fae4a/v7ehJNWFrM/f0wPTz+mJ1mxV1LwebPEycA7SuXa2dVKOmIAmF/PBV5PlxxpLM13w79kQcKpRxTDSx7bG047sidJF9rqSzt5OXAZ8BUDwPz1/g8D3g0s8/6TGtfwZwH6+xJOO7KYvfzxfZx2RLHQ32fDL02iH/iHUrl2dbWS3tRun3zbnXKUH/H7d8CJ3ntSg3r8WaBYSDj1iJ7w7y9amH3mxYsKf/SInkJ/n22/tAdH5yFgiSMAc+/5wMu856TZy/It5o4pFcOrntgbnndCb7K8P/H4bGl6/hz4GfAZRwDmrvd/JPBOPOJXakivf+/+hNc/qS/7ypmLOPOUvsLyfof7pRnoA84plWsnGADmpvFfAJwDnOC9Js2u119IEp58VE/47EsXZe96zoLCIXu7iF+apSOAv2+nRwHt9Ajg+cBLvcekmff6swD771UIrz21N7zs8X3J3osd7pca3E5dSps8CmiLL/78oJ934NC/NOPGH+CJh/eE/3zpwvCmp/YV9l7scL/UYH3A20rl2nEGgMY0/r3EDX8e5b0lTV89CyzqTXjNqX3hMy9ZyBMP7ykUHPGX5spRxPkAi1r9E22HRwDPJG62IGmavf4swMHLC5xzxoLwgkf3JH1u3SvNhxcCFwFfdQRg5r3/EnHof6n3kzT9xv9xhxTDp1+yKLzoJBt/aR4tAt5eKtcONQDMrPFPgNcBT/RekqbX+CdJwvNO6M0+9eJFPO6QYuLe/dK8ezTwpvzcGgPANJ0MnIV7/UtTloVAbzHhNaf2Zh96wcLCSpf3Sc10JvBUA8D0ev9LgLcDB3r/SFNv/Bf3JbztGX3h75+1IFneb9svNdnexAmBexsApu4FwB9770hTbPyzwNKFSfiHZy/I/uYpfcmiXsf8pRZxOi26h03LBYBSuXYIcDaw0PtGmlrPf1l/Et79nAXhzFN6C71F236phfQAbyyVa8cYAHbf+BeA1xInT0iaYs//vX+8MLz4cb2Foo/8pVb08DwE9BoAJvc44FXeK9LUev7pooR3PWdBeOGJPTb+Umt7MfAUA8Cue/+LgLcAB3ifSHtu/Pt7E/7ujAXhJfb8pXawN3B2qVxrmX1tWmkE4NnAn3qPSLsX8qV+b3xqX/aKJ/QmNv5S23gGcZK7AWCH3v++ee/fw36kPTT+AC87uTf76yf3JX1O+JPaSR9xLsBBBoA/+EvgVO8NafeNfxbgWY/szd5+Rl+hv8+lflIbOhF4pQEg9v4PA14PFL0vpMllAR59UDG8+zkLkn0WFyyI1L5e2QpHBjf1u0i+3/8rgUd6P0i7afyzwAFLC+GfnrsgHL6vD/2lNncYcFazzwlodjfieOAV3gvS5EIILOxNOPvpfeGJh/fY9Zc6w4uAx3dlAMiTz+uAld4H0uSNfwBeeFJv9pcn9RZ86i91jP2Avy6Va03b9baZvYmTgb/wHpAmlwV4zMHF8Nan9SULe239pQ7zJzRxc6CmBIBSubaAeNTvfl5/abLGP7C8P+GcZyzgoOU+95c6UJqPAjRlCXyzRgBOxU1/pEmFEEiAV5zSlz314S72lzrYGcAfdUUAyLf8PQtY5nWXJuv9w0kri+FVT3SnP6nD9RNXBKTdMALwFOK2v5Im6f2nCxPe/LQFoZTa+ktdoCnt4rwGgLz3/xpgL6+3tKvGP/b+/+zRvdnpRxdd8id1h4XA60rl2rJOHgF4Ck161iG1S+//0H0K4bWn9ia9PvqXusmp8z0KMG8BoFSu9dv7l3bf+BcKCS9/fG84eoWtv9RlFgCvmc9RgPkcATjN3r80uSzAox5WCC880QX/Upd6IvHI4M4JAPlOR6+09y9N3vvv60k48wl9YYUT/6RutRB4dalcm5e2cr5GAB4PPMtrK03e+z/5kGJ41iN7bPyl7vZk4GkdEQBK5Vov8cCfZV5Xade9/4W9CS97fG9Ytsjd/qUu1088Lri/E0YAHgM812sq7Vo9wOMOKYbTj7b3LwmA04EntHUAKJVrBeAlwP5eT2nXvf8FPQkvOqk3LLX3LylKgZfnI+htOwJwNPB8r6W0a1mA4w8shKcf47I/SQ/yLODR7RwAXgis9DpKu+79FwsJz390b9hnsTP/JT3I/sCLS+XanH1vmLMAUCrXDsoDgKRJev+H7p2EZx7rs39Ju/RnwFHtOALwXOBYr5+0q95//HjGsT1h5XKf/UvapcOYw8focxIA8q0MX0xzThuU2iECsLw/4U+O6yWx/Zc0uReWyrUV7TQCcBpwstdN2rV6gBNXFrPjDiwYkiXtzgnAGW0RAErlWl/e+1/kdZN20fcPgd5CwnMe2cOiPnv/knarF/jLUrm2uB1GAI4Dnu41kyYLAPCwZUk47cgeiyFpKk4DHtsOAeD5wAqvl7RrWYBTDiuGlcsTh/8lTcVS4lyAhn7PaOhfVirXDgSe57WSJuv9Bxb0JjzjmB6KLv2XNHXPBg5v5RGApwOP8DpJk/f+D16ehJMOcec/SdNyeB4CWi8AlMq1RcSNf3ywKU06AgCPXVkMB6Su/ZM0bS8olWtLW3EE4ATgVK+PNFnjH+jtSXjSkQ7/S5qRx9LAJfaNDADPA/b2+kiTBABgxV5JOHFl0WJImokl+ShAQ9ruhvwlpXKtBDzHayNNLsvg2AMK4eBlzv6XNGNnAIe20gjAk3DynzR57z9AksDJhxRZ0Ovwv6QZO4wG7bUz6wBQKtd6icP/fV4XadIIwOIFCSc5/C9p9u3280rlWn8rjAAcCTzFayJNLgtw4NIkHLm/s/8kzdopxF13Z6URS/bOAA7yeki76f8HOKZUDPsu9vl/e1yvwMg4bB0N2aahkGweCvWN20LP4CgTg6Mh2zoaesYmYgdqdALG66Epn2eSwHX3Zj3Gyq6zD3FPgN80LQDkhxM812sh7b7xTxJ4zEGF0OP+Py1pZDxwfy2E323Iwq33Z9y+vs6qgZCs35qxeYhkeCwUR+swUQ89Ib+mO17f0MTPvZBQcFlpV3pWqVz7RLWSDjRrBOB45uCAAqnDIgCLehOOPcDWv5V6+LURws3r6uGKu+v8ZlWd2+/Pkg2DoTAyHsgCkMT/Jcn2H+a9bhIetI1TAm7rpCY4HjgJ+HGzAsAZuPZf2kPzD/suScIR+zr632xjE4Hb7s/CRbdMhItvm0huuz8rbB0JhACFQmzlkyShx0ul1reYuPx+/gNAqVxbBjzTayDtXtz/vxD228t+YrMMjQUuv7ueff2q8eSXd9V5YGtWACgkUEgSnJmhNvX0UrlWqlbS6nyPADyKuP2vpD0MARy1f4H+PgNAM3r8l/2unn3x8nF+cedEYetIoFCIDX/i5VD7O4q4NfB3Z/KHZ5N7nwnsZf2l3bT9+dDyMSsKwWrMrzvW18M7vzOavfarw4Uf3DReGBoL9BST2OO38VdnWAg8u1SuzeiGntEIQKlc25sG7UQkdXr3f2FPwhH7OcY8X0bGA9+5biL826Wj3PlAVigk4Do5dbAnAwcAa+clABCH/o+17tKemn9YuigJD1tml3M+rN+ahY9dPMbXrhxPhsZC3tu3LupoRxIfA3x7un9wpt2S04mnEknaXQAIsN+ShH2X2AWda3esr4e3fH2EL1w+loyMB4oFG391hT7gGTN5DDDtAJDP/j/dmktTCwAHLkuyJQusxVy6/r56eNPXR8LFt00k25fySV3kScD+8zEC8AjgkdZbmpqDlheS3qIt0ly54b569tb/HeHq1fWCs/vVpY4CHjMfAeApwDLrLe25958ksHK5KwDmyl0PZKH87RFuXFtPnN2vLrYIeNqcBoD8+MGnWmtpShGA3mLCgUttlebCxm1ZeM/3R7hy1faevzVRV3tyqVxbPpcjAEcQNwCSNAULemBFasvUaOP1wMcvHePHt0wkDvtLQHw8f8xcBoDHAyusszSV/j8s7kvC8n4bp0b7wY0T2Vd+PZ4EbPyl3FLiZMDGB4BSuVYkDv/71SZNJQAEWLIAli3yS6aRVg1k4dxLxpLB0bjOX9LvPblUri2cixGAA/DoX2la0kUJC3s9aqZR6lngC5eNhZvX1RN3VpAe4lHAIXMRAI6fzl8sOQIAy/uT+qJeMqvRGFevycI3rp4o4HN/abKO+olzEQBOIx48IGmqIwALk56eAo4ANMB4PfDlK8bC+sHMoX9p14rAk6a6K+CUvjGVyrUlwBOsrTQ9y/uTeBqNZu3ae7Pwk1snLKe0eycDezdyBOBQPPxHmp4ElvUnExZi9kIIfOua8bBhmxP/pD04krgzYMMCwGOA/ayrNMUGK7b/LOmj12rM3qqBEC6+bcLZlNKeLc1HARoWAJ4APseUptFlJUmgv8/uaiP8/M6JsGZTcN6fNDWnlMq1nlkHgHxrwZOspzQ9hSRhycKkbiVmZ3QicPGtE0zUgzP/pal5FFMYtZ9Kr/4w4hbAkqYVAAj9fRgAZmn1QBauuzdLCo5BSlN1CFPYFngqX1KPYoozCiU9KACwsMce62xde28W1g8G+/7S1C1mCiP3uw0A+VrCx+P2v9K0JQlJT5GilZid366qMz7h8L80TY/d0zyAPY0ALAUebR2lGQQAoKdgAJiN2kgIN62te9SvNH3Hs4d5AHsKACuJcwAkad5Va1lY7ex/aSYOZg/z9/YUAB4J7GMdJTXD6oHAlmGf/0szsBdwwmwCwIngEKY0E0mCQ9ezdPeGjNGJYCGkmTlxd+cCTBoASuXaoj2lB0mTCyG+NHOrBrIsyzz5T5qh44hz+aY9ArCCKe4nLEmNNpEF1m4JjkBKM3co8LCZBIDD8xAgSfNubIJs47ZQdxGyNGP7sJsNgXYXAI4H+q2fpGYYHguFLcOhaPsvzVhP3pZPPQDkkwaOt3aSmmV0gjA05goAaZaOL5VrvdMZAdiLKewjLElzZbxOfaxO5iMAaVaOApZNJwDsTzxMQJKaNAIQmKjjOgppdh4GHDSdAHAYsK91k9QsWYDgOkpptpYyyYq+yQLAMcBC6yapaRz6lxqhCDxiOgHgWGsmSVJHOKZUrhX3GABK5Vo/bgAkSVKnOAJIpzICsJx4CqAkSWp/DyNO7t9jADiQPZwhLEmS2sZy4vHAewwAhxH3AZAkSe1vEfExwB4DwJF4BLAkSZ3kqN0GgHwL4COtkyRJHeXwnbcE3nkEoJ94fKAkSeocK4EluwsAKXESoCRJ6hwriMcDTxoA9t/5N0iSpLa3DCjtLgAciCsAJEnqNIvY6VCgnQPAwcAC6yRJUkcpstMpvzsHAHcAlCSpM+06AJTKtYIBQJKkjnVQqVzr29UIwEJcASBJUqc6gLjc/yEBoJ9dHBYgSZI6wj7A0l0FgGXEAwMkSVLnWbpjO79jANibXZwXLEmSOkI/O5z2u2MAWEGcByBJkjrPgrytf0gA2A/osz6SJHWkhB12A9wxAJSsjSRJHW2XAWCFdZEkqaPtn+/7EwNAqVwrAvtaF0mSOtq+5I/7t48A9OIpgJIkdbq9dw4AC/KflCRJnSsl3w1wewDox2OAJUnqdHsBi3cOAEusiyRJHa1/5wCwmB0OCJAkSR2pj/w8gO0BIMVNgCRJ6oYAkO4YAPYirgSQJEmdqzdv838fAJYYACRJ6njJrkYACtZFkqSO95AAIEmSOt9eBgBJkrrPkh0DwGLrIUlSV3jQPgCLrIckSV2hv1SuFQulci3BTYAkSeoWC4FCIR8FWGg9JEnqCou2B4AEdwGUJKlbLNgeAIo4B0CSpG7Rt+MIQNF6SJLUFXqA4vYAsMB6SJLUNSMAvdsnAXoOgCRJ3SEAwf3/JUnqLkXyRwCSJKl7LAB6e6yD5koIgRC69L0DWYgfNfMiZvmra2+kySRQSBLroFnp+cPtJDW28V/Wn4SlC5OsW7919xVhUW9S8OtrhvXrSVi5d6G+ZEHAtu5BbX+ojYTipqGQQGJtNOsAIDVUFuClj+vldaf1Uc+69zv1Pov97jxTBy9Piv/1ikVJPTNB7ahQgE/+bKz+6V+M9RQsjBoQABxfU2NHAIB0UZKsSAvuMaEZ6S0mSSlNvH92/toKgdpIyEKAxFlcmk2YtASS1D5GJghrNgWHRWQAkKRuUhsOVGuZj/41G6PAuAFAktrIhsEQNg05MVKzUgfqBSADxq2HJLW+dbUQBkdt/zUrCfkUkpAPB0iSWtzqgSwZnXDetmZlHJjYHgAy6yFJrW/VQBayDBLHANSAAJABw9ZDklrbRD2E1QPBll+NCADZ9gAwZj0kqbVtG4P7tmR2/jVbIzsGgBHrIUmtbfNQCBsGXQGgBgWAaiUN+AhAklre/VsztgwH23/N1vD2EQCAIeshSa3t3k2BYRdta/aGqpW0vj0ADFoPSWptqzdlYaIeXAGgWQcA+MNWwNushyS1rhAC92zMkuAWAJq9wR0DwFbrIUmta2SCcK+HAKkxtu4cAMyVktSq37FHQqjWMtt/zUkAcGqJJLWoDYMhGRgKBR//a5YCsGXnAOBmQJLUotZuCWFw1CcAmrWJnUcAao4ASFLrWrMpC/EQICOAZmUsb/MftArAvQAkqUWt2pgl8RAga6FZB4AtOwcAVwJIUguaqAdWb3IBoBpiW/5ix50A3QxIklrQ0Dhh7WYPAVJDDO4cAMaAzdZFklrPpm2BBwaDAUCNUNtVANhgXSSp9azfGrItw8Hpf2qEgbzNjwGgWknrBgBJak33bs6SoXHbfzXEhgcFgNz91kWSWs+qgYyJuksA1RAPVCtptnMAqFoXSWotIQRWDWQhBJcAqiF+39bvGADW42ZAktRSRicIazaFxM6/5joAjFgbSWodtZHA/bVg518NyZN5W/+QADBAvj2gJKk1DGwLYWBbcPhfjTA0WQDYlL8kSS1i7ZbA1lFHANQQW/LO/kMCwLYdk4EkqfnWbMrC2IS7AKshNuYh4CEBYARYZ30kqXWs2phRz8AlgGqAdexw8N/vA0C+LnCN9ZGk1jCRBVYNhARcAqiGWFutpKO7GgEAWGV9JKk1DI0R1m7JbPzVKPfs+B87B4DV5FsESpKaa/NQCOu3OgFQDZHlbfykAWAtsNU6SVLz3b81sGXYJYBqiOE9BYD17LBEQJLUPPdtzsKwhwCpMTaz05k/OweALcB91kmSmm/VQJaMewiQGmM9O536u3MAGMKJgJLUdCEEVg8EPARIDbIGGJw0AFQraQDutE6S1FzxEKDMHYDUKHdVK+nY7kYAyANAZq0kqXm2jgaqW0LB3r8a5I6df2JXAeBuXAkgSU21cTCEjUOuAFBDjAB3TSUArGWniQKSpPm1rhbC4Ih7AKghNrOLnX53FQAGcEtgSWqq1QNZMuohQGqM+9hpCeBkAWCIXTwrkCTNn1UDWagHSBwD0Oz9DqjtMQDkKwFutl6S1Bz1LITVAyHBAQA1xq3VSjoxlREAgFuBUWsmSfNv2xjctzmz869GyIBbdvULkwWAe3BLYElqii3DITwwGILtvxpxOwG3TycAVNnp0ABJ0vxYvzWwedg9ANQQa4F7pxMAasTHAJKkeXbf5oxhD2ZXY9wBbJpyAKhW0gy43rpJ0vxbNZCF8XpwBYAa4cadtwDe0wgAwI3E3YMkSfMZADaGJLgCQLNXB26Y7Bd3FwDuZBcbB0iS5s7IeGDNpswTgNUIA+zmcf7uAsD97GLvYEnS3BkcDdm6WrD9VyOsYpIJgLsNANVKug3nAUjSvNq4LSQbtwUf/6sRbiKeAzDtEQCAq/FoYEmaN+u2hDA44giAGuLqfFL/jALAjUyyfECS1HhrNmVhdMI9gDRrg8B1u/sNewoAq4C7raMkzY9VAyGpB3AWoGbpXvZwsN+eAsAm4FrrKElzr54FVg9kgQDOAdAs3QQ8MOMAkJ8M+FvrKElzb3ic4CFAapArq5V0fDYjAOQjAM4DkKQ5tmkosH5rsP3XbA0BV+7pN00lANwJ/M56StLcemBrCJuHg8P/mq17mcJ5PlMJAJuIywElSXPovs0ZQ2PO/tOsXc8UdvLdYwDI5wFcDrgztSTNoVUDGeP1gCsANEtX7On5/1RHAMhHADZYU0maywAQQnAFgGanBvx6Kr9xqgHgd0zheYIkaWZGJ0JYsymz6dds/Q64rWEBoFpJtxIfA0iS5sDWkcC6LZ4BoFm7kimO2Bem8Zf+ChiztpLUeAPbQti4zRUAmpUM+EU+d6+hAeA6YLX1laTGW1cLDI66B4Bmpco0Nu+bTgBYC1xlfSWp8dZsysLIuIutNCs3EM/waWwAyJcU/Nz6SlLjrR4IeAiQZukX1Uo6NNXf3DPNv/wy4uEC+1ln7U4C3H5/xg9vGs+/qXWfQgKPO6TIvksK3hAzsHUkhF/fU09GJ0LHf62EAL9dVS8kuARQM/+SAX4xnT8w3QBwZz7EcLq11u4bv4QLrp3g29dNdOX7D8CCHvjKKxZx2pEGgJlYuyWrn/2NkWTjYCh2Q6OYBZKCjb9m7jbiCYBzEwCqlXSwVK79zACgPfZqEshC6Or9I7MscfvMWYaoLAvUQyAJ3fJ1YwLQjP2yWkk3zuUIAMBPiTsNpdZbfjObpPEKNv3eS9K8GQUume4fmsnY5I3ALdZbkqSWcBczWKU37QBQraQDwM+styRJLeFXxD0A5nwEAODHwDZrLklSU40DF1UraTZfAeBaPBxIkqRm+x1TPP2vIQGgWkk3MIMJB5IkqaF+Adw3bwEgdxE+BpAkqVnGgB/NZPh/tgHgGqa56YAkSWqYu4DLZ/qHZxwA8g0HLrL+kiQ1xaXEg/rmNwDkfgRs8RpIkjSvhoEfVCvpjHcdm20AuA642usgSdK8uhn4zWz+glkFgGol3Qr8wOsgSdK8+lG1kj7QtACw/ZMA1nktJEmaF5sb0fluRAC4Dfil10OSpHnxW+Ij+OYGgGolHQO+A0x4TSRJmlMB+G61kg62wggAxMOBbve6SJI0p1bToCX4DQkA1Up6L/B/XhdJkubUxcQNgFojAOS+Q5yYIEmSGm8YuKBaSeutFgCuZhZbEkqSpN26BrisUX9ZwwJAtZJuA74JZF4jSZIa7tvVSjrQcgEg92OcDChJUqOtBi5s5F/Y0ABQraSrge95nSRJaqiLGt3BLszBJ/lNYIPXSpKkhhgEvt6oyX9zGQCuBX7q9ZIkqSEuB65o9F/a8ABQraSjwHnAqNdMkqRZqQPn5YfvtXYAyP0UuMrrJknSrNxMPHSv4eYkAFQr6UbgfOKexZIkaWa+Ua2k97VNAMh9F5cESpI0U2uIE+vnxJwFgGolvWcuP3FJkjrchcCtbRcAcucD93kNJUmalgHgfxq99G8+A8BNNHjnIkmSusCPgd/O5T8wpwEgTy7/nScZSZK0Z9uAL+fL6tszAOR+yxwtYZAkqQP9DPj5XP8jcx4A8gTzJWCr11SSpN0aBb5UraSDbR8Acr8ELva6SpK0W78iPv+fc/MSAKqVdAj4IvG5hiRJeqjxvPe/uWMCQO6S/CVJkh7qCuAH8/WPzVsAyJ9nfM5RAEmSdtn7/3y+lX5nBYDcxY4CSJK0y97/vO6bM68BoFpJtwGfdRRAkqTm9f6bMQIAzgWQJGlHvwK+N9//6LwHgHwU4FO4L4AkSaPAZ6qVdN53zC006Q3/FPg/r7skqcv9lHmc+d/0AFCtpMPAp/GMAElS99oGfKpaSWtdEwByvwK+7fWXJHWpHzJPu/61VACoVtIx4lyAdd4DkqQuswn4ZL5TbncFgNzVwFe9DyRJXeabxHNymqapAaBaSTPi7oB3eC9IkrrEfcRn/2NdGwDyEHAbcXOg4D0hSeoC/wVc2+xPotAixfhv4DfeE5KkDncT8Ll8BNwAUK2k64CPAyPeG5KkDjVBnPh3dyt8MoUWKsx3iUsiJEnqRD8HzmuVT6ZlAkB+XPDHgA3eI5KkDlMDPtaMLX/bYQQA4uZAX/Y+kSR1mG/QxE1/Wj4AVCtpnbg50M3eK5KkDnEP8G/VSjpqANh9CLiTOCFw3HtGktTmMuKa/+tb7RMrtGjBzgMu8r6RJLW5XwJfasVPrCUDQLWSbgE+DDzgvSNJalM14CPVSrreADD91PR57x9JUpv6H+BHrfrJtWwAyCcEfhK40ntIktRmbgHObfZ+/+06AkC1kq4BPgQMei9JktrEGPDR/KybllVog0J+Dzjf+0mS1Ca+Qwvt+Ne2AaBaSUeAjwC3ek9JklrcKqCS725rAGhACLiVuCrAw4IkSa1qgrjhz1Xt8MkW2qiw5wPf9P6SJLWoHwJfbJdPtm0CQLWSbgM+CNzhPSZJajH3Au+rVtLNBoC5CQE3AhV8FCBJah0TxNNsf9NOn3ShDQv9NeDr3m+SpBZxIfD5aiUNBoC5HQUYAj4A3OQ9J0lqsruBf8m3sG8r7TgCsH1VwPtwgyBJUvOMEpf8Xd2On3yhjQt/AW0021KS1HHOB77Srp982waAaiUdJe4NcJn3oCRpnl0PvD9/LG0AaEIIWAP8E7Dee1GSNE+2AO+pVtLb2/lNFDrgQlwC/CtxGYYkSXMpEE+q/V67v5G2DwDVSpoBnwG+5X0pSZpjPwI+Vq2kbd/p7IQRAPLlF+8BbvTelCTNkbuAd1Ur6QOd8GYKnXJVqpX0FuBdwCbvUUlSg20jrve/slPeUKHDLtD3gHOBuveqJKlBAvFR83md9KY6KgBUK2kd+DhxjwBJkhrhIuBD+fJzA0ALh4DNwD8C13rPSpJm6Q7gndVKen+nvbFCJ16taiW9DXgn7g8gSZq5zcA/VCvpNZ345godfOEuAt5P3KtZkqTp2H7Eb8c+Uu7YAJDvD/A54Avex5KkaTofOLcT1vt34wjA9qOD/4W4cYMkSVPxK+Afq5W01slvstDpV7FaSdcBfwfc5D0tSdqDu4FzqpX0nk5/o4VuuJrVSno9cA5wv/e2JGkSm4kz/i/vhjdb6KIL+0PidsFD3uOSpJ2MAR8Evtktb7hrAkC1kgbgi8SNgtwpUJK0XSBOGv9EJ0/66+YRAPJdnCp02HaOkqRZ+R7w3nzieNcodNtVzncKfCdwsfe8JHW9K4C3Vytp120cV+jGq12tpGuAs4HrvPclqWvdAby1Wknv6MY3X+jWq16tpDcAbwHu8WtAkrqvGQD+tlpJf92tBSh09dWvpD8D3g5s8GtBkrrGFuKj4O93cxEK3gdcAPwDsNVSSFLHGwHeB/x3vjrMANDFowAZcXngB/DgIEnqZBPAucC/d9NyPwPA7kPAeH5TfDy/QSRJnSUAnwc+UK2kI5bDALBjCBgmDgt9Ib9RJEmd43y64IAfA8DMQ0CNOB/AjYIkqXNcCLytWkmd8G0A2G0I2AC8Dfiu1ZCktncx8OZqJV1rKQwAUwkB64A3AxdZDUlqW5cBb6xW0rsthQFgOiFgFfA3wKVWQ5LazpXAWdVKequlMADMJATcmYeAy6yGJLWNq/PG/0ZLYQCYTQi4BXidIUCS2sINwOuqlfRqS2EAaEQIuMkQIEkt7ybg9dVKepWlMAAYAiSpexr/11Urqd+jDQCGAEnqEjfY+BsADAGS1F2uBl5p428AmM8Q8Brgp1ZDkprmSuC1PvM3AMx3CLgFeC1uFiRJzXBZ3vN3tr8BoCkh4E7i4wC3DZak+XMJ8CrX+RsAmh0CVgF/TTxAyFMEJWluXQi8plpJb7MUBoBWCAFrgTcBnwMmrIgkNVzIO1pnube/AaDVQsAG4O3AvwGjVkSSGmYC+CzwJk/1MwC0agioAe8G/hkYtCKSNGsjwEeAc/KOlgwALRsChoAPA+cA3qySNHM14F3Ae/MOlgwALR8CxonDVX8NrLYikjT9b6XAW4Bzq5V0xHIYANopBNSBbwJnEreplCRNzR3Ezda+XK2kTqyeIz2WYE5DQAAuLZVrfwWcCzzNqkjSbv0aeEu1kv7aUjgC0AlB4HrgFcDXgLoVkaSHCMRN1V5m428A6LQQsAZ4A/CvwJAVkaTfGwM+TdzX/w7LYQDoxBCwmbhM8BzgASsiSWwizvQ/p1pJ11sOA0Anh4DRPOm+CrjVikjqYncTV0t9tFpJt1mO+eUkwOaEgAy4sFSu3Uvc4OLpVkVSl7kMeFu1kl5hKRwB6MYgcC3wMuA/cftgSd1hAvgq8BIbfwNAt4eAdcDZwDtx50BJnW0zcav0N+QnqcoA0PUhYAj4OHGpoJsGSepEdwCvBT7gtr6twTkArRMC6sAPSuXa3cD7gT8FilZGUpvLgJ8A76hW0msshyMAmjwI3AK8GngfcbhMktrVIPAx4uY+Nv4GAE0hBGzKA8CrgVusiKQ29DviEr+/d32/AUDTCwET1Ur6LeCFwLeIM2clqdVlwA+BvwC+Wq2kY5bEAKCZBYGb8pGAf8JVApJa2xbgg8Qh/6vyA9FkANAsQsBmoAK8FPiNFZHUgq4nHn/+nmoltbPSBlwF0D4hoA5cVCrXbgXeAbwcWGxlJDXZKHA+8D4P8nEEQHMbBFYDfwu8HrjNikhqonuANxM39rHxNwBoHkLASLWS/jfwAuB/cBthSfNrHPhO/j3osx7kYwDQ/AeBm4GzgLcQl9xI0ly7l/gY8hXVSnqNE/0MAGpeCBgkHib0fOJzOEcDJM2FCeBC4M+Bc6uVdIslaW9OAuyMEBCA60vl2muAS4C3A0dZGUkNspq4o9+X8lVJcgRALTga8Nl8NODLwJBVkTQLo8A38u8p/2bj7wiAWn804KZSufZ64m5cZeBRVkbSNN0KfAQ4P+9cyACgNgkCw8DXSuXa5cCbiBt07G1lJO1Bjbi66KMu7etsPgLo/CBwD3HG7l8AFxGX70jSzurAL4g7jr7Fxt8RAHVGCBgHLi6Va1fnX9xvxkmCkv5gFfBJ4IvVSvqA5XAEQJ0XBDYB/wH8Sf5xk1WRuloN+ALwp8CHbfwdAVBnh4AA3FYq184GLgDOBp4BLLA6UtcYJw73fxT4SbWSun+IAUBdFAS2Pxb4LXE7zzcTVws4KiR1rgDcTBwBPL9aSQcsiQFA3RsEasCXSuXaj4krBV4DHGplpI5zH/Al4HPAKrfwlQFA24PAfaVy7QPExwKvB/4S2M/KSG1vE/BN4iS/6/OjxSUDgB4UAjLg5lK59rfA14A3ECcHpVZHajvbiJuB/TtwWbWSjlkSGQC0pyAwAVxeKteuAb6SB4EzgH6rI7W8EeBneY//J9VK6pbgMgBo2kFgBLioVK79Kg8ArweeDCyyOlLLGQMuAz4D/CCf3yMZADSrILAN+HapXLsE+CPgr4FTcemg1CoN/2+IB4F9L9/vQzIAqKFBoAZ8o1Su/QR4NvBq4ImOCEhNbfg/lzf8LumTAUBzHgQ2Ew8a+j7x0cBrgCcBi62ONOdGiEP9XwD+z4ZfBgA1a0Tgm6Vy7UfAU4FXAk8HllodqeG2ESf3fZE4uW+zJZEBQM0OAoPAhaVy7WLgFOAVwHNwHwGpEQaIJ3l+Gfh5PidHMgCopYLAMHBpvmrgBOAlwJ8RdxZMrJA0LfcC3wW+Clzlfv0yAKgdgsAYcGW+j8CngOcDLwKOB3qtkDSpCeAW4H+Ju/fdnu/LIRkA1FZBoA7cUSrXPkzcg/wM4MXAaThPQNrRIHA5cB5x97517tUvA4A6IQgEYD3w1VK5dgHwWOCFxHkCh+IJhOpOAVgD/Aj4OvDraiXdallkAFCnhoEh4Of5PIFz8xDw53kocBmhusEwcC1xiP9C4C6H+WUAUDcFgTpwF/CJUrn2X8DJxLkCz8xHBYpWSR0ky3v7PwG+RRzu3+wwvwwA6vYwUAN+UirXLgVWEvcS+DPiksJ9rJDa2Gbibn3fAX4M3G1vXwYAadejAncDnyuVa18FHkl8RPBs4goCHxGoHQwDNwP/B/wAuN61+zIASFMPA8PEpYRXAZ8ATsrDwNOBhwMLrZJayBhwJ3Bp3uj/BtjoEL8MANLMg0AANhEfEVxC3F3wcXkYeCpwOJ5KqOYYB34H/IK4dO9yoFqtpJmlkQFAamwYyID7idsO/wAoEVcPnAE8GTgKTybU3BolTl79JfGZ/hXENft1SyMDgDR/YWAt8N1SuXYhsC/wGOD0PAwcAyyzUmqArcBteU//EuAqYL2NvgwAUmuEgfXAj0rl2kXEXQaPIe44+BTg0flogfe7pqKe30/XE0/f+wVxUt8mn+nLACC1bhgIxKVXVwBXlMq1fycuLTwReBLweOBIIMUDivTgXv5dxMl7vwSuBO7JJ6NKBgCpDQPBCHA7cHupXPs68bHAUcSJhE/IRwdWAkusVlcZIm7Mcz1x8t5viMP8A07ikwFA6rwwkBHPVv818OtSufZp4tyBhxMnE54MHLdDIHCEoHMMEo/XvTHv3V9FPHVvfbWSjlseGQCk7goEE0A1f/28VK71EHcePJK48dBJ+cdD85/366U9TBCXjt4D3ARcDVxHXKf/gA2+ZACQdhUI7s9fvyqVawVgL+CgfJTghHyE4GjgQOJkQ7+GmqsO1IgrQu4EbiAO69+a9/hrztaXDADSdANBBmzJXzcBF5TKtV7iPIKDgCOAY4krDo7MQ8HexF0KfXwwWwEgSfIfAIzkPfu1xAl7txKH8e/IG/tNwLgz9SUDgDQXoWAceCB/XQNQKteK+UjB/nkwOBI4koQjegqsBFYAy4mbFHnK4e5lxL30NxcLrC0k3Escyr8j7+GvIY7QbPVQHckAIDU7FNSJSw83E1ccXAJw5LtrvXsvTpbkowIl4GDiBMND8qBwAHFuwTKgn7ilcaePHATibnrDeb02Eudg3AusBlbljXx1cV+ycb+9kq03vrs2AQfbq5cazGFKab5bwBASoDcfEViajw7sn48UrMiDwf55ONiHuGfBEuJpiH35q7eFvn4DcV/88bxxHyLOuq8RV11sII6YrMsb+/X5a4D4eGUIGE+SxEZeMgBIXR8SCnkjvyAfHVicv9I8NOyV/zjNf7w9ICza4bUgDws9+cdAfAQx2eFJo8RJdckODfpY/vMjea99aIcGfmveyO/8Gsx/z7b8z48lSeLaeskAIGmORhUACrt4FfMwEXb48a6M7xAAJvJXtosX9tal9vf/AYu1COAFciExAAAAJXRFWHRkYXRlOmNyZWF0ZQAyMDI0LTAzLTAzVDA4OjQ3OjMwKzAwOjAwXCp73AAAACV0RVh0ZGF0ZTptb2RpZnkAMjAyNC0wMy0wM1QwODo0NzozMCswMDowMC13w2AAAAAASUVORK5CYII=;" parent="PxfYsGnpCf7-yWaWJEkX-32" vertex="1">
                    <mxGeometry x="70" y="50" width="50" height="50" as="geometry"/>
                </mxCell>
                <mxCell id="PxfYsGnpCf7-yWaWJEkX-29" value="" style="shape=image;verticalLabelPosition=bottom;labelBackgroundColor=default;verticalAlign=top;aspect=fixed;imageAspect=0;image=data:image/png,iVBORw0KGgoAAAANSUhEUgAAAgAAAAIACAYAAAD0eNT6AAAACXBIWXMAAA7EAAAOxAGVKw4bAAAgAElEQVR4nO3db2xc9Zno8eccjyep3Q02psEhRKraOmsEN0HJm1UIQjFVI9TSFwHFuY6UhsbQF6yqVmI3ui+Kla50pbRIvaqWFwuhQK7iJajhxcKqCluMUAH1XimoyW3VbFIqJBMSUoIdd22C7ZnffTFznLEzf87MnHN+/74fqUqAZvwDj+d5zvN7fs8vEABW2LV/qj/XEXxFRCQIgi+X/m7wtUDkq6Xfyu3R/1fJ9d+X/pGsLf+2p8GXmS7/+csr/vyHS3+hSr9XIu+LqD+JiCilPhARWSyoP7/yQu+lJv61AGgS6F4A4LsosJeCejmgB3K7Erm9HLgbBW1TTSuRy4HIh6LkwyhhUEp9QKIA6EcCAKSsVoAXkS1ib3BPyrSIvEeCAGSPBABISGWgDyTYqQL5u0Bko+512UyJnAuU/FaJOkliACSLBABowe4D09uWnugDuU94ms/StIi8p5S8FVUMXn6u513diwJsQwIANLBr/1R/Zy4c4qnebJXVgoXF4gSVAqA+EgBghdLTffj18l79t4Une1tNi5J/UyLvK1X8NVUCYDkSAHjt+r59+PVyKX9I95qQqgml5C2lir+mnwC+IwGAd6InfAlkL+V8vymRc6LkGBUC+IgEAM6r3MOXQPbpXg8MpuQoPQTwBQkAnMRTPtpFdQCuIwGAE3jKR+qoDsAxJACw2vDo1ZEgCA4IzXvI1oRS6rnjR24a170QoFUkALDO8OjVEZ70YYxyZYBkALYhAYAVCPqwAskALEICAGPtPjC9LQzC7xH0YSUlR4uq+C80EMJUJAAwSqmZr+OxIJAfChP44IZppeRnC4uFZ2gehElIAGAEmvngCZoHYQwSAGjD0z48RlUA2pEAIHM87QPLUBWAFiQAyETF0/4h3WsBTKWUjFEVQFZIAJCqXfun+vO5jsN08gNNUHJ0frFwkEQAaSIBQCp2H5jeFobhPwllfqAdE8Vi8UccJUQaSACQqOHRqyMSBGNcwAMkp3QxkTpEnwCSRAKARAyPzjxJNz+Qumml1OMkAkgCCQBaRmMfoA8Ng2gXCQBaUn7iJ/ADmiklY8ePrPmx7nXAPiQAaAqBHzATiQCaRQKAWNjjB6xAjwBiIwFAXeWpfU8LgR+wCYkAGiIBQFUEfsAJJAKoiQQAy+w+ML0tCMPnOccPuEOJnFPF4iMMFEIlEgCISHlkb2fHMWFyH+CyifmFwl6ODkKEBMB7nOUH/MMMAYiQAHitvM9/TPc6AOihlNpLf4C/SAA8xD4/gAj9Af4iAfAIV/MCqIkriL1DAuAJJvgBiIOJgv4gAXAc5X4AzWJbwA+h7gUgPcOjM0+GYfgOwR9AMwKRjWEYvjM8OvOk7rUgPVQAHLT7wPS2MAz/XZjiB6B908Vi8ZtUA9xDAuAQmvwApIYmQeeQADiC2f0AMsDdAg4hAbAcI3wBaMBIYQeQAFiMSX4AdGKSoN04BWCpPaMzLxL8AegUBMGxPaMzL+peB1pDBcAynOsHYBrmBtiJCoBFONcPwETMDbATFQAL0OgHwCI0CFqCBMBwNPoBsBENguZjC8BgNPoBsBUNguajAmCgXfun+js7O95irx+AA6bnFwp3sCVgHioAhhkevTqS7+y4SPAH4IiefGfHxeHRqyO6F4LlSAAMMjw68yQlfwAuCoLgGKcEzMIWgAHo8gfgEU4JGIIEQDOu7gXgIa4YNgBbABoNj14dCcPwHSH4A/BLT2lwEH0BOpEAaMIRPwC+46igXmwBZIwjfgCwnBI5t7BQuI++gGxRAcjQ7gPT2/KdHX8k+APAdYHIxnxnxx93H5jepnstPqECkJFys987utcBACYrFov30ByYDSoAGaho9gMA1EFzYHZIAFLGcB8AaA5Dg7LBFkCK9ozOvCiB7NO9DgCwkpKjLx1Z8x3dy3AVCUAKmOwHAIlhcmBKSAASxjE/AEgcNwqmgAQgQXT6A0B6OCGQLBKAhBD8ASB9JAHJIQFIAMEfALJDEpAMjgG2iTP+AJAtZgUkgwpAG4ZHr45wxh8A9FBK7T1+5KZx3euwFQlAiwj+AKAfSUDrSABaQPAHAHOQBLSGHoAmMdoXAMzC6ODWUAFoQin4yyHd6wAA3EgpGTt+ZM2Pda/DFiQAMRH8AcB8JAHxkQDEQPAHAHuQBMRDAtAADX8AYB8aAxsjAaiD4A8A9iIJqI8EoAaCPwDYjySgNhKAKgj+AOAOkoDqSABW4GIfAHAPFwjdiASgAsEfANxFErAcCUAZwR8A3EcScB0JgIjs2j/Vn+/suKh7HQCA1E3PLxTueOWF3ku6F6Kb93cB7No/1d/Z2fGW7nUAADLR09nZ8dau/VP9uheim/cJQL6z41ggslH3OgAA2QhENuY7O7w/6eV1ArBndOZFERnSvQ4AQOaGyjHAW94mAMOjM09KIPt0rwMAoEkg+3y+RtjLJkAG/QAAIr4OCvIuAeC4HwBgJR+PB3qVABD8AQC1+JYEeJMAlM/6/1FEenSvBQBgJK9mBHjTBFg+60/wBwDU0uPTXBgvEoA9ozMvctYfANBIILLRl+OBzm8B0PEPAGiWDycDnE4AaPoDALTK9aZAZxMAmv4AAG1yuinQ2R6A8pxngj8AoFU9Lt8Z4GQCUB7tyIx/AEC7hlwdF+zcFgBNfwCApLnYFOhUAlDe97+oex0AAPfMLxTWudQP4MwWwK79U/0+DXAAAGSr3FjuDGcSgHyu4zDDfgAAKepxaUiQE1sA7PsDALLiSj+A9QkA+/4AgKy50A9g/RaAy2c0AQBmciH2WJ0AcN4fAKCJ9fMBrN0CYM4/AEA3m+8LsLYCEITh87rXAADwm82xyMoEYM/ozIsc+QMA6BaIbLT1aKB1WwAc+QMAmMbGo4FWJQAc+QMAmMq2o4FWbQG4cOwCAOAm22KUNQnA8OjVEeHIHwDAXEPlWGUFK7YAyqX/P4pIj+61AABQx/T8QuEOG7YCrKgA5HMdh4XgDwAwX085ZhnP+AoAA38AALaxYUCQ8RWAMAz/XfcaAABohg2xy+gEoDxnmdI/AMA2PabfFWDsFgClfwCA7UzeCjC2AmDzfGUAAETMjmVGJgDDozNPMusfAGC7QGSjqVsBxm0BMO4XAOAaE8cEG1cBsOX8JAAAcZkY24yqAND4BwBwlWkNgUZVAExulgAAoB2mxThjEoDh0asjNP4BAFxVagg057IgI7YAaPwDAPjClIZAIyoAnbmOx3SvAQCALJgS87RXAHj6BwD4xoQqgPYKQL6z45juNQAAkCUTYp/WCgDH/gAAvtJ9LFBrBcC0IxEAAGRFdwzUlgBw7A8A4DPdxwK1JQBBEDyt62sDAGACnbFQSwJQznh6dHxtAAAM0qOrCqAlAeDpHwCAEl0xMfMEgKd/AACW0VIFyDwBCIJA+9lHAABMoiM2ZpoADI/OPJnl1wMAwBZZx8hME4AgkENZfj0gS4MDOdmxPS+DAzndS3FO9N+2r1f78FIgNVnHyMwmAQ6PzjxJAgBX9PWGsunOnKy7NZS778rJzb2BdHeV/tnsnMjoD/6qd4EO6esN5fBY97L/vmfPF+SjS0W5+HFRzvxhUa5MFfUuEkiIUjJ2/MiaH2fxtTJJALjwBzarDPa39YcyONCxFIxqeebo5/Lm2/PZLNBxIw+tlgd3dtb9/5AUwCVZXRSUSa3SlKsPgUb6ekP50i2hbNmUix3sq9n78CoSgAT09YYydG/94C8i0t0lsnVzh2zd3FH+O6tICmCtcsxMvQqQSQVgz6MzKouvA7RicCAnWzbl5O67crJhfXI/Eq+eXJDxE9cSez0fxXn6b8bkBSW/+/2ivHdmUc6eX0zsdYGkvfTsmtTjc+pfgL1/mCYq6W/dnGv5CT+O2TmRg4dmeepsUV9vKP98uDu1148qBKdOL1IdgHGy6AVIfQsgCOSHaX8NoJ7KPfyheztTC/grdXeJ7BzKUwVo0SMjq1N9/eXbBqUtg4nfLLBdACOUY2eqCUCqFYDh0asjDP6BDmmV9Vvx9wepAjQr7af/ONgugG5Kqb3Hj9w0ntbrp1sBCIKxVF8fqDA4kJNvfSOfalm/FVQBmpf2038cG9YHsmF9pzy4s3Npu+C11+dJBpCdUgxNLQFI7dFo94HpbWEYvpPW6wMi15/0syztt4IqQHwmPP3XE20VUBlAForF4j0vP9fzbhqvnVoFIAzDf0rrteE3W4J+JaoA8e0cyuteQl3dXSIP7rxeGSAZQJrKsfT+NF47lQoAg3+QNJP29FvBdMB4Vk79swk9A0hLWoOBUqkA5HMdh9N4XfilrzeUnUN5a4N+pe4ukR3b8wwHamDnUN7K4C+yvGcgSgZOTsyz9YO2lWPqd5J+3cQ/VXn6R7t2bM/LA/fnrQ/6K1EFaOzI//obaxOAWiYvKPnVG/Mkf2hLGlWAxCsAjP1FK2zc129WElWA6Da8L91S+nXdrct/FRG5rf/679feUv32vJt7lydXn05VH9Z5+ZPrT68fXbr++4sfF5f9+pfy/6+dp90d2+19+q9nw/pAHtu3SvY+vEomfrNAVQAtSWM8cOKPWIz9RTN2bM/L1s25ihnubpu8oOQfD/1X1X8W3UOw7tZwKaDf1h8uBXFbKiKTF0ofAZc/KS4lDRc/Ls3j/8snxZrB7ydjX7Tm37Fdp06XJhBSFUAzkh4PnOiLMfgHcUR7+y4/7dfz6skFEbn+pL72ltCbwBeZvKCWEoSLHxdl3a1hojP/bUGvAJqR9GCgRD919jw684aIDCX5mnBHNKjHl6d9oBmnTjNoCA1NvPTsmsSOBCaWAND8h1pcbeoD0kDTIOpJshkwsSZAmv+w0shDq70t8wOtWtk0yAApVEqyGbB6i3ALuPUPlaJ73An+QGuiiYMjD+m/FwHmSDLWJpIADI9eHRGRniReC/YbHMh52dAFpGHo3s6l45+AiPSUY27bEnlXBUFwIInXgRu+a8BNboArurvMuB0R5kgq5radAOzaP9UvdP6jbOSh1TT7AQnburlDdmw3+5IkZGqoHHvb0nYCQPMfIpT+gfTsfXgVWwFYkkTsbfvdRPMfIpT+gfSwFYBKScTethKA3QemtwnNfxBK/0AWtm7ukMGBVC5xhX16yjG4ZW0lAGEQfq+dPw839PX6OcYV0IFKGyLtxuD2tgAC2dfWn4cTKEsC2dmwPmA2AErajMEtJwBJnUOE3Uq3+THbH8jSgzuZDYCSdmJxy++gQIKdrf5ZuKGvN5S9D6/SvQzASwe/z5hNtBeLW08hKf9775GR1Yz6BTTZsD5gNgDaisUtJQCU/zE4kKP0D2jGbACItB6TW3rnUP4HnciAfswGgEjrMbnpBGDX/ql+yv9+27E9z5l/wBDMBkCrMbnpBKAzFzL332M0/gHmeeLxL+heAjRrZRug6QSAm//8tnMoT+MfYJjuLmE2gOdaic1NJQDc/Oc3LvsBzPXgzk62AvzW9A2BTSUAlP/99q1vcOQIMBnNuX5rNkY3lQDQ/e8vJv4B5mM2gN+ajdHN9QDQ/e8tGv8AOzxwPwmAt5qM0bETgHavHYS9Rh5i4h9gC6oAfmsmVsdOAIIg/Hpry4HN+npDGbqXxj/AJlTs/NVMrI6/BRDI3pZWA6tx7A+wD8cCPdZErI6VAOzaP9UfiGxsfUWwUV9vyLE/wFJD93JlsI8CkY1xjwPGendw/M9PzBgH7NXdVargwT9xY3asBIDjf/7htj/AflQB/BQ3Zsd7Z3D8zzsM/QHsRxXAUzFjdsMEgON//uHpH3DHgzupAvgoTuxu+K7g+J9/GCcKuIUqgH/ixO7GaSHH/7wyOJCTDesD3csAkCCqAB6KEbvrviM4/ucfnv4BN3Gqxy9xjgPWTQByHcFXkl0STLZje56nf8BRWzd3cF2wZxrF8LoJAPv/fuESEcBtnO7xS6MY3iABkPuSXQ5MxdM/4D6qAH5pFMMbdYUwAdATPP0DfqDPxyt1Y3jNBIDz//6g8x/wx4b1AVUAj9SL5TUTAPb//cG+IOAXqgD+qBfLaycAIl9NZzkwCVP/AP9sWB/Iju0k/j6oF8tr9wAE8u1UVgOj8PQP+GnrZrYBvFAnlldNAMrDA3pSWxCM0Ncb8vQPeGrr5g6mA/qhp9ZAoKrf/bh3CcNuTAYD/MYdAX6oFdOrJgBx7xKGvXj6B/Dgzk7dS0AGasX0qgmACuTv0l0OdCPzByAiNAN6oFZMr1EB4AIgl/X1hjJ0L5k/AIaA+aBWTL8hAWAAkPs23ZmT7i7dqwBgAgYD+aFabL8hAQiC4MtZLAb6kPEDqMRxYPdVi+1VtgCCr6W/FOjC2F8AK3Ek0Ac3xvYqFQBuAHQZmT6AamgMdlu12F4t5duSwVqgAUf/ANRCY7DzbojtyxIAJgC6jQwfQC3dXRwJdNwNEwGXJQC5juAr2a4HWSLDB1APDcJuWxnjlyUAnABw147teY7+AaiLI4FuWxnjlycAjAB2Fpk9gDhoFHbXyhi/LAFgBLCbOPoHIC6OBLprZYxfUQFgBLCLtmyipAcgPhqG3bQyxi8lALXuC4b9aP4DENfsHJ8ZLquM9UsJACcA3DQ4wNx/APF1d3Ek0GWVsX4pAeAEgJto6AHQiq2b2Tp0UWWsr+gB4A4A1zD5D0CraAZ01fVYf70CIPJVPYtBWjbdSQYPoHV8hrinMtaHFX/3di2rQWo4+w+gHWwDOKgi1lfWd7gEyCF9vSFn/wG0hW0AJy3F+srvLJcAOYRzvACSwDaAc5ZifSjCDAAXcY4XQBLYBnBPFPNDEWYAuIaz/wCSwkki90QxPxRhBoBrGP0LIEkMBXJLFPPLPQDMAHDJ3XeRAABIDtsArinF/FIFgBkAzqD7H0DSBgfYBnBJFPPD8l8xA8ARdP8DSFp3V6m3CI4ox/xQREQJCYArKP8DSAP3irgjivnRFsBavctBEij/A0gL2wDuiGJ+NAiIIUAOYGAHgLSwDeCUHpHlkwBhOWb/A0gTR4zdEjIF0A2U/wGkjQmj7ti1f6o/ZAqgGyj/A0gb2wDuyHUEX+E76QgGdaTj1OmCiIh8dKkoFz8u/S+y7tZw6dfb+kNZewtVmLRNXlBy+ZPi0vdDRG74nkTfDxHG2KZhy6acnD2/qHsZSECOMcBuoEM3OadOF+TU6UV58+35uv+/s+dv/HuDAznZsiknd9+VIxlIyOQFJb/7/aK8d2axYeBZ+T3p6w1l05052bo5RzKQkLvvysn4Cd2rQLuCIPgyj40O4PKf9k1eUPKrN+blzB8W5cpUsfEfqOHs+VKQGj9xPRl4cCf7pq149eRCrKBfz5Wporz59ry8+fb8UjLwwP15krM2bFgfyOAAVQAX5LgHwH5RKRqtefXkgoyfuJb460bJwHtnFuW7I6sJOjFNXlDyi/FriQeYymRg5KHVMnRvJ4lzi9gGcEHwtY7/tuV/fFcC2ax7KWjdww+uWtrzRHynThfkf/7sM/m/7y2k+nU++bQo//HWvHw6VaoK5CkIVDU7J/LCv34uz/7vz+STT1uvwsTx//64KO/8n0W5dW0HPzst6PpCKP/xVv0tMpgtEJlkC8AB7G0275mjnzfc409a9PT5xONdfM9WOHW6IM+PX2tr+6VZV6aK8tTTczI4kJMnHv8C1YAm3NxLNcsFIRcB2Y0jOc2ZnRM59NPPMg/+lZ56ek5ePZlu1cEmp04X5Kmn5zIN/pXOnl+Up57+TGbntHx5K3Ec0AGB3E7ty3JM5opvdk7kqac/M2LvcvzENZIAKfVfPPW0/sh79vyiHDw0SxLQBD577EcCYDlu/4tn8oKSg4dmjQj+kfET1+SZo5/rXoY2aTVfturKVFEOHpqVyQtK91KswGeP/UgALMb433hm50QO/1xfibmeN9+e97ISYFrwj1yZKsrhn89RCYiBPgC7KZHbw+heYNjnS7eQv8Vx7JefGxn8I+Mnri1NHPTB5AVlZPCPlJoDP9O9DOPRB2A/IojF2INr7NTpgtaGv7ieH7/mxVNnVI0x3dnzi15WZprFZ5DdSAAsxvnl+iYvKCMazOLw5anT9GpMpfET1+gHaIDPILuFgcha3YtAa5j/X98vxs0tM1fj+lOnLdWYSjZUK3RinoW9ApG1pG+W6usNGVxSx6nTBaM6/uM6OTHv7FbA85YlZCKlyozLSVkS6AOwVygiPboXgebRAFjfa6/b9aQZuTJVlInfuBdwTp0uWFP6X+nkhJ3vpaxwF4m1evjOWYrmm9psffqPuBhwbHz6j1yZKnp1SqNZWzfzWWQrEgBL0XxTm61P/xHXys42P/1HbE5g0raWaqS1+M5ZigbA6mx/+o+4VAWwPSEToQpQD8PI7EUCYCEaAGs7ddr+4C9SCjguHEGbnRMnEjIRd95baaAR0E4kABaiAbC2M39w50P6d7+3/9/FpYZGl95bSaMR0E581yxEA2B1s3Ni/V5zpffO2B9wLn7szvfDlapMGmgEtBMJgIVoAKzOpadNkVLp3PaZAK49NbtQlUkDjYB2CkVkWvci0Bx+2Kpz6Wkzcva8vY1nkxeUUxUZETeqMmmgEdBK00QSy3AFcG2uPW2KiHx0yd4A6uLT8l8+sff7kTYaAe0TKpHLuheB+GgArM21p00Ru6saNq+9FhffY0mhEdAuSuQy3zHL8ENWne175bAH77Xq+GyyD98xy9BtW92nU252Z9v8FG3z2utx9b3WLpqT7RMGIh/qXgTiowGwusuO7s2y52weV99r7WI6qV0CkQ+JJpahARC2IHnxC9NJ7UMCYBG6bGuzuVu+HpubzmxeO1rDZ5RdSAAsQpNNba7uP/b12vvvZfPa0Ro+o+wSiqIHwBb8cPnH5mOfNq+9HvpwauMzyiKKHgCruPqUmwRXP5T5QDXPzb304dTCZ5RdQiXyvu5FAO3iQ9k8riYvNLvV5moi7iIl8n4oov6keyGIhx+u2lz9ULY5iNq89lroa6iPRNwm6k+8my3CEcD6XPxwpqRqFlf7GpLS3eXmz6GrQqXUB7oXgcb4oWps053uHUGyebjK3Xe59/3Yssm9f6ekkSTZQSn1Ad8pOMO1McmDAzmrtzY2rA+cS1xdTGrgr3CxoP6sexFojKy6MZuflqtx4WnTpaoMV3HH42Lvh4sWC+rP4Ssv9F7SvRA0xg9VY91dbk0ic2H/36WqjEvJTJr4rLLDKy/0XuI7ZQl+qOJx4alZpPS0uXWz/RUNl6oyLiUzaXIhcfVF9J2a1roKICGu7NG68rTZ3SWyY3te9zIS4VIyA+9Ni5QTACVyWe9a0AhZdTwb1gdOBJwH7rf/3yHiwr/LyEOrrW7IzBLzSswXxfxQpHQvsN7loBF+qOKzPeDs2J53qtlsw/rA+t6MoXs7dS/BGgwDMl8U80tRhQuBjMcPVXy2VwFsT2Cq+e7Iat1LaNmO7Xme/pvAfysLqIoEgPsAzMcPVXNsDaKuPf1HbK4C7H14le4lWMe1+Q+uiWJ++bvEfQAm44epebZWAWxNXOKwsQrA039rmFtiulLML1UAGAdsNH6YWvPYvlVWJU9PPN7l5NN/ZMP6QEYesicJGBzIyWP7ePpvBceWzRbF/FCkNBFI62pQFz9MrTv4fTse33Zszztx7r+RB3d2WlOZsbFiAcQRxfxQpDQRSO9ygHRsWB/IE4+bnQT09YZe7TPvfdj8yozr1Rj4LYr5lT+FDAMyFBWA9mzd3GH0U+fB73d5tc/c3WV2ZcaXakya+Mwy2lKsr/wuvadhIYiBIUDte2zfKuOSgL7e0NsnzQ3rA/nJ2Bd1L+MGO7bn2feH65Zi/fXIwiwAOM6kJKCvN5SD3+/y+kkzSgJM2Q4g+CeHhxaDVcT68PrfYxYA3PfYvlXaO9Gj4O/jk/9KG9YHcvD7XdqTgJGHVhP84YXKWF/xU8csAPjhwZ2d8sTjeoLO4EBODo91E/wrbFgfyOGxbi2DgqJtmAd3MuoXvrge65d+4pRSHwQBH0om4h6A5G3d3CGDA91y7Jefy5tvz6f+9fp6Q3lkZLXXJf96urtExv7hC3LqdEGeH78mV6aKqX/NHdvzsvfhVV41YGaFzyxzVc79WUoAFgvqz3m+Z0a6/ElRNqwncCStu6u0JfDA/Xn5xfg1OXt+MZWvQ6CJL4vEjGQMPquc+7PskX/PozMq++WgkZ+MfZGScQZOnS7Ia6/PJ5II9PWGsunOnDxwv5uz/bMweUHJr96YlzN/WEykIjA4kJNvfYMjflmYnRMZ/cFfdS8DVbz07JqlD6Rlm25K5FwgsjH7JQH6bd3cIVs3f0Fm50QmfrMg751ZbCoZiIL+1s05gkwCNqwPyo15q1pOBgYHcrJlU06G7u2kApMh/lubSYmcq/zrZQlAoOS3EpAAwG/dXaVGwagxbPKCksuflILOR5eKcvHj0u/X3RrKbf2hrL0llJt7Az70UlSZDMzOiXw6VfqeVPt+iAjfE6CKQMlvK/96RQVAnQwk2JftkgCzbVgfLPVg8GSvX3eXSHdX6XvC9wOIT4k6WfnXy9r+uBUQAAA3rYzxyxIAbgU00829NJEBANqzMsYvSwDKNwRxKRAAoC26pzviBtMrb/6t9h3iUiAAANxyQ2y/IQFQSt7KZi0AACAL1WJ7lQoAdwKYhqNMAID23Bjbq1QAOAkAAIBLqsX2GxKAl5/reTeT1QAAgExUi+1V2zRXjgsEAAB2qhXTqyYAK8cFAgAAO9WK6TUqAMvHBUIfztICANpRK6ZXjS4Li8WJdJcDAACyUCumV00AmAgIAGhHM9c2I1U3TACM1K4vK/m31JaD2PghAgC0rE4sr5kAKJH301kNmjU7p3sFAAAb1YvltRMAVfx1OssBALiMhxZz1IvlNRMABgKZ49MppXsJAAAL1Yvljc6YcRoAAAA71Y3hdRMAbgY0w+VPaAQEYA+qlmZoFMMbJAD0AQAAYKNGMbxuArBYUH9OdhohaocAABMFSURBVDloxUeXqAAAAJrTKIbXTQBeeaH3EhcDAQCawbalfkrkXK0BQJHGg+aVHEtsRQAAIH0xYnfDBIA+AP0ufkw2DcAebFvqFyd2N0wAmAcAAIBd4sTueHfNKjna9moAAF6gaqlZzJgdKwGodZcwssEPEwAgrrgxO1YCUOsuYQAAVuKhRa+4MTtWAsBxQL3+wpGahiYvKDn008/k1ZMLXESCxM3Oibx6ckEO/fQzmbzAlDuYK87xv0iuiVc9JoEcanlVQEpePbkg4yeuiYjI2fOLMn7imuzYnpcH7s/LhvWB5tXBZpMXlPzqjXl58+35pb/3j4f+S554vEu2bu7QuDKz8dCiURNH92MnAEoVfx0EIQmABlem+GGqZnZO5NgvP1/24Rx58+3Sh/bgQE6+9Y08H9ZoyqnTBXnt9Xk5e36x6j9/6uk52bE9L4/tW5XxyoD6mjm639Tj0Z5HZ6h9afKvz/yN7iUYZfKCksM/n4udHPX1hrJzKC9D93ZKd1fKi4OVZudEJn6zICcn5mO/rwYHcvLdkdVUmlb474/9VfcSvPXSs2tivxnjbwGIlI4WBLKv6RWhbbNzQuAqO3W6IE893dxG/5WpooyfuLa0PbB1c46qAESk9H46dXqxaiWpkbPnF9kSWIEeHI2aPLLfVAKgRJ0MJCAB0ODYLz+XvQ+vIgkQkcGBDhl5aPXSvn+zou2BqCpw9105nuA8M3lBye9+v9jU034tIw+tlsEBgr/I9W056NHskf2mPvV27Z/qz3d2XGxuSUhKX28oj4ys5kmjrF4PQLMGB3KyZVOOLQKHRSX+984s1tzbb8aO7XmS8grNbsshefMLhXVxTwCINJkAiIjseXTmDREZavbPITl88CyXZCIgIktbBIMDHfw3ttzsnMjZ862X+KvhhMmNnjma3M8fWjbx0rNr7m/mDzT9Dh4evToSBAE3BGrW1xvKwe938SFUYfKCkl+MX0vk6S6yY3te1t0aUhmwSNJP+hEa/m7EU785lFJ7jx+5abyZP9PSO5nTAObgKNKN0kgERK5vE9AzYJ5oTz/poC9C4K+lcv4G9Gum+z/SWgIwOvMipwHMQTWgulOnC/L8+LVUnk6iBsLb+kO2CjSISvsfXSom0shXDT031fHUb6Smy/8iLSYAbAOYaeSh1fLgzk7dyzBOmolAJKoOkBCkozLgp/GUX4nAXxtP/WZqpfwv0mICIMI2gKmoBtTWznnvZpEQtCfLgB9hPkRtaW2rIRmtlP9F2kkA2AYwGtWA2lqZ+Nauvt5QNt2Zk3W3hiQFK1QG+4sfF+XMHxYz/77Q1V8bT/2GU3L0pSNrvtPKH235Hc82gPloXmrs1ZPJd4vH1dcbypduCZcqBWtvCZ3/Xk1eUHL5k+LSk/1fPilq2UuOKjQkybXx1G+HVsv/Im0kACJsA9iCakBj1W590yVKDNbdGi5VDNbeEsrNvYHxVYPZOZFPp64H+Ysfl/6nK9CvxBn+eHjqt0er5X+RdhMAtgGsQTUgHh3bA83o6w1FRJYSBBFZ+vW2/tKvUbIQaTVpqJzpHgV1EZGPLpV+vfjx9V+j619N/W/GRVDx8NRvmTbK/yJtJgC7D0xvC8PwnXZeA9kaeWg1H4QxTF5Q8o+H/kv3MhIXJRC1mBjA2/WTsS+S+DYQJb489dulWCze8/JzPe+2+ufb/qnY8+jMlIj0tPs6yE70RMS2QG2HfvoZT0GOGBzIydg/fEH3Moz16klzK16oa/qlZ9f0tvMCzV0HXIVS8rMgkEPtvg6yE12N+96ZRfnWN/Ice1rh1OkCwd8hZ88vyqnTBd7nK5w6XZDXXp/nvW4ppeRn7b5G2wnAwmLhmXxnBwmAhc6eL3W/0x+w3PPjlEFd89rr87J1M1UAEfb5XbGwWHim3ddI5BOfGwLdwC2DdD+7zPfTMEnfmgmtWhr9u1L9jqCYlFLPJfE60OvNt+dl9Ad/lVdPLizrAPfF7JzIyQk+HF11cmLe2/f1qycXZPQHfyX4OyKpmJtYzZdmQLf42CjInebu860KkMU9GMhc281/kbZ7ACI0A7rFt0bByQuK4O+B8RPXvDgGS4Ofu5Jo/osklgDQDOgmXxoFf0HjnzeO/fJzeWzfKt3LSAUNfu5LovkvkuinOc2A7nOxUfDU6YI89bSHm8Mec204EA1+3kik+S+SSBNghGZA97nYKPja63xo+saVig8Nfn5JOsYmngJzQZA/XLhKlWN//nri8S5re1t44vdTOxf/VJNYD0BEKRmjGdAPV6aK8ubbpRv0bLxljWN/fnt+/Jps3dytexlNMenWSmRLKRlL+jUTTwBoBvRTlAgMDuSsOTUw8ZsFjkd57MpUUV49uWDFsUC6+pFk818klcc1rgmG6VewunrbH5pnakOg6VdTI0NtXvtbSyrv+l37p/rznR0X03ht2MXURODvD87yoQoRMe+2QAI/VppfKKx75YXeS0m/bmppL0cCsZIpfQJM/MNKJkwIZH8fNSR69K9S4j0AkWKx+KMwDEkAsMSEPgEm/qGa8RPX5O67clqSU/b3UU+xWPxRWq+d6rt9+NGZ/wxENqb5NWCvrO8bmJ0TOXiI0j+qy3orgMCPRpTIuePPrvnbtF4/tQqAiIgodUiC4FiqXwPWiu4bODkxLzuH8qk/gR375ecEf9R09vxi6qcCJi8o+d3vF9nfRzxKpXqiLvV6F7cEohmDAznZsimXeNMg434RV9KnAqKmvvfOLPK0j2YkdutfLelWAIRbAtGc6PKh8RPXEksGZudKQ1+AOA7/fE7++XB7A4II+mhXkrf+1ZJJxwvjgdGuqHFwcKCj6WSArn80a8f2fEs3BrKvj6QkPfa3mtQrACKMB0b7osqASOnDeevmXKxTBKdOFwj+aNqbb8839R47dXqR9xkSk8bY32oyqQAwGAhpiC4jqvVBTdc/2tHXG8rhse6qFaco6J/5wyLvLyQurcE/K2V26HV4dOZJqgBIS7WbCSn9o12VWwHRoB6CPtKklIwdP7Lmx1l8rUynXtALgCxEyQDBH0nYsT1P0Edmstj7j4RZfSGR7PY14LfommIgCW++zZl9ZCPrGJn53EvmAgAAcIPUz/2vlGkFQEREKfV41l8TAACT6YiNWq5lowoAAMCSzJ/+RTRUAESoAgAAENEVE7VdzE4VAAAAPU//IpoqACJUAQAA0BkLtVUARESGH535z0Bko841AACggxI5d/zZNX+r6+trqwCIiKhi8RGdXx8AAF10x0CtCcDLz/W8KyITOtcAAIAGE+UYqI3WBEBEZH6hsFf3GgAAyJIJsU97AvDKC72XGBEMAPCFUjKWxW1/jWhPAEREFhYLz+heAwAAGZg2JeYZkQCUqgBKezkEAIA0KaUeN+HpX0TzMcCVOBYIAHCV7mN/KxlRAYjoPhIBAEBaTItxRiUALz/X864oOap7HQAAJErJUd3H/lYyKgEQEZlfLBzUvQYAAJJkYmwzLgHgWCAAwCWmHPtbyagmwEo0BAIAbGda418l4yoAEdOaJQAAaJbJsczYBODl53reZSsAAGArpWTMtMa/SsZuAUT2PDozJSI9utcBAEATpl96dk2v7kXUY2wFIFIsFr+pew0AADTDhthlfALAbAAAgFUMPPNfjfEJgMjS+clp3esAAKCBaRPP/FdjRQJQvizocd3rAACgHpMu+2nE+CbASnsenXlDRIZ0rwMAgComXnp2zf26FxGXFRWAyPxCgSuDAQBGsi1GWZUAlLcCrPoPDABwn1Jqry2l/4hVCYCIyPEjN41zKgAAYAwlR48fuWlc9zKaZVUPQCXuCgAA6GbyrP9GrKsAREyerwwA8IPNscjaBIC7AgAAOpk+678Ra7cAIhwNBABoYNWRv2qsrQBEbDt2AQCwnwuxx/oEgKOBAIAs2XjkrxrrEwARjgYCADJi6ZG/apxIAERKFwYpkXO61wEAcNb0S0fWfEf3IpLiTALwygu9lxYWCvfpXgcAwE3zC4U7dK8hSc4kACL0AwAA0uHKvn8lpxIAkVI/APMBAABJUUrGXNn3r2T9HIBamA8AAEiA9ef9a3GuAhApn9Gc1r0OAIC1pl0471+LswnAKy/0XioWi9/UvQ4AgJ2KxeI3Xdv3r+RsAiAS3RdAUyAAoDlKqb02z/mPw+kEQIQhQQCAJjk07KceZ5sAVxp+dOY/A5GNutcBADCXEjl3/Nk1f6t7HVlwvgIQKQ8JoikQAFDLtE8D5bxJAGgKBADU43rT30rebAFEdh+Y3haG4Tu61wEAMEexWLzH9aa/lbypAEQ4GQAAqORDx3813iUAIowLBgCUuDrmNw7vtgAq7RmdeVEC2ad7HQAADZQcdel632Z5nQCIcGcAAHjK2Rn/cXm5BVBpfqGwV4mc070OAEA2lMg5l2f8x+V9BUBEZNf+qf58Z8dF3esAAKRvfqGwzqfjfrV4XwEQWZoRcI/udQAA0lUsFu8h+JdQAajAjAAAcJePZ/3rIQFYgSQAANxD8L8RWwArMCgIANzi66CfRqgA1DA8enUkCIJjutcBAGidUmqvr4N+GiEBqIMkAADsRfCvjwSgAZIAALAPwb8xegAa4N4AALCLz/P9m0EFIKbh0Zkng0AO6V4HAKC2UvBf82Pd67ABCUATSAIAwFwE/+aQADSJJAAAzEPwbx4JQAtoDAQAc9Dw1xoSgBaRBACAfgT/1pEAtIEkAAD0Ifi3hwSgTSQBAJA9gn/7SAASwAVCAJAdLvZJBglAQkgCACB9BP/kkAAkiCQAANJD8E8WCUDCdu2f6u/s7HgrENmoey0A4AIlcm5hoXDfKy/0XtK9FpdwF0DCXnmh99LCQuE+EZnQvRYAcMAEwT8dVABStGd05kUJZJ/udQCAlZQcfenImu/oXoarqACk6KUja77DTYIA0DylZIzgny4qABlgVgAAxMcZ/2yQAGSEEwIA0Bid/tlhCyAjLz/X826xWLxHRKZ1rwUADDRN8M8WFYCMcUwQAJbjmJ8eJACacEIAAIROf41IADSiORCAz2j204sEQLNyc+C/i0iP7rUAQEami8XiN9nv14smQM1efq7n3fmFwh3C5EAAfpiYXyjcQfDXjwqAQYZHZ54MAjmkex0AkAalZOz4kTU/1r0OlJAAGIa+AAAuYr/fPCQABuKoIABXcMTPXCQABuOoIACrccTPaCQAhmNLAICNKPmbjwTAArv2T/XnOzuOiciQ7rUAQAMT8wuFvZT8zUcCYBFOCQAwGV3+diEBsMzuA9PbgjB8ngZBAKZQIudUsfgIZ/vtQgJgKRoEARiBRj9rkQBYjAZBADrR6Gc3EgDL0SAIQAMa/RxAAuCIcjXgaeFSIQDpmVZKPc5Tvxu4DMgRx4/cND6/ULhDlBzVvRYADlJydH6hcAfB3x1UABzEFcMAEsTVvY4iAXAYcwMAtINz/W4jAXAccwMANItz/X4gAfAE1QAAcfDU7w8SAI/s2j/Vn891HGaAEIAbKDk6v1g4yNE+f5AAeIhtAQARyv3+IgHwGJMEAb8xyc9vzAHwWHl2wDqlZEz3WgBkRykZm18orCP4+40KAESEkcKAJxjhiyUkAFiG/gDAPezzoxoSAFTF3QKAE5jdj5pIAFAXiQBgJQI/GiIBQCzlQUI/FBIBwGh09iMuEgA0hYmCgJmY4IdmkQCgJSQCgBkI/GgVCQBatmv/VH9nruMxEgEge0rJ2MJi4RmO9KFVJABoWykRCIdoFgRSR3MfEkMCgEQNj14dkSAYY44AkBwlck6UOkTgR5JIAJCK3Qemt4Vh+E/CZEGgHRPFYvFHDPBBGkgAkCquIAZawNW8yAAJADJBwyDQGI19yBIJADJXni54QNgeAEREJpRSz7G/j6yRAECbiqoAEwbhm2ml5Gc87UMnEgAYgaoAPMHTPoxBAgCjUBWAg3jah5FIAGCs3Qemt4VB+D1OEMBKSo4WVfFfOMIHU5EAwArDo1dHAgl2kgzAaEqOKlEnKfHDBiQAsA7JAIxC0IelSABgNZoHoQnNfLAeCQCcsHQhEZUBpKX8pL+wWJygmQ8uIAGAk3YfmN4WBOHXJZC9XEyEVpQu4JFjShV/TSMfXEQCAOdRHUBsPOXDIyQA8A7VAUR4yofPSADgtV37p/pzHcFXgiD8ehDIfUIzoesmlJK3lCr+erGg/sxTPnxGAgCsEFUIApGvSiDfFiYS2mpalPybEnmfJ3zgRiQAQAOVPQQqkL9j28BMSuRcoOS37OED8ZAAAC0oVQmCL4sEXytvHWwRKgVZmRaR95SSt0TUn5RSH/B0DzSPBABIyPV+guDLVAuSUflUr5T6gH17IDkkAEDKKhMDkeBr5d6C24WqgUj5aV6UfKhE3o+e6An0QPpIAADNaiUISuT2QGSt2JskTCuRy4HIhwR4wDwkAIAlokRBRKSULIgsJQwiUq4qiIiIkuu/L/0jWVv+baNkYrr85y+v+PMfLv2FKv0+CugiIkqpD0RECOyAPf4/c0cZShBzYJMAAAAASUVORK5CYII=;" parent="PxfYsGnpCf7-yWaWJEkX-32" vertex="1">
                    <mxGeometry x="210" y="51" width="50" height="50" as="geometry"/>
                </mxCell>
                <mxCell id="PxfYsGnpCf7-yWaWJEkX-30" value="" style="shape=image;verticalLabelPosition=bottom;labelBackgroundColor=default;verticalAlign=top;aspect=fixed;imageAspect=0;image=data:image/png,iVBORw0KGgoAAAANSUhEUgAAAgAAAAIACAYAAAD0eNT6AAAACXBIWXMAAA7EAAAOxAGVKw4bAAAgAElEQVR4nOzdeZhdVZU3/u/ae59zxxpSU4oQQggRQggYEogMSiPSiIg4YHAWpxa1HV70RaRtfobXthUnGhVtHHACWwEVUFEjUyMGJQMhzCGGECqhUrfmqjudc/Zevz9uVRKQQEiq7rl1a32eJ0+KSlWdVSF11zp7r7M2IIQQQgghhBBCCCGEEEIIIYQQQgghhBBCCCGEEEIIIYQQQgghhBBCCCGEEEIIIYQQQgghhBBCCCGEEEIIIYQQQgghhBBCCCGEEEIIIYQQQgghhBBCCCGEEEIIIYQQQkwLFHcAQogXZ+TqbFs2ScCSkdLQNYe3BZv9OYZcFPQkF5JTjUQUgJ1jVo6Ij2CiDs1ccs/8MhHAPkALx36P9nA5BUAxYSMY/QD83V80GPDBKJCi+xkcEcg464wiRNQWPsjGOdMY9fN7HtnaMtho8FTS0AcW9oPu3NP1hBBVIgWAEDWCGQaA673giA73aHIuQp0Fa6XAcywAZ6jNGXd4EjbLgHOECA5ZctQCkGOrZsFxGoSo8qPNjoBOX1EyYgbzbtcCoInQkvAAIjzjD3dHlZeIkXKIknOOKgXBTpoIEbNjoAuAA6AIUARybKIugBwIBdLcO/ZnpsS65KzemgrdEyCnALXdMgrKiwLXke8i5amOlw4O0ie7+if+b1kIMU4KACGqiL8x33/6T02NuqAamVzas8p1NSU7G7zy3BlcarSgyAbqEBTNImWpmYkVgIUAkNEqnfZ9wD7zXp7HknfIDg67fqgJQMAMywx61o86oVIEBO5Z6wJ74CmCAuEfy4TK1/YV7faeytf3qVIrVGqI3a6vCLAWuTAqADBgbGRgmBQHlLSPgkgpbXtKnnpiyDV0twzltwKAZh040GDHK54apRXbC3sVuBBij6QAEGKSXbXig+mDSxtnLR3snq36/HnRsH8khVgCovkAAo9oXrNnELhKenXMcOCdyXbs3XDgnW/vjp/x+zM/YE839s/+3BfyQi8U9BwfsHvR8ew/VoSdBYWiyp8Tnvk+nxTKzmHY2q0KUBboJsXrqCF8QM8obXqksXHrnxMv2f6Z5M+GaQX2rpIRQuwkBYAQE+gHucOz514WzS0/mZ0fDSQWKsdHgXgxiOZibIkcDF8TKUMEBsNQJVWOJ3dGpQgYT8527Hfe7X1THQEgqqxDqN1KBTVWSRAAPfbOiCtrCpYZITOIEAAcMcgA6CaHDY5pg2oO7lN+5Aqe3zPnmnV3V/2bEmKKkQJAiH3ADDV04eFzwk2puXbEn6eYX2I1LSLFLRouCUYjW9UMoKVBa5XUCpGrLMdbMCIG7Njtua2jxD4ZzFhRoKjytgZBE8Gr9B9gMIrAhEEo7kelyIoiqK3G8qOW+XGddJuSB+c3N3z7sS4iyNaBEGOkABBiLwysmNsc/K21hYumQyvXRpnwBCY115V0JyLMJcLc9oSvQAQ4hmNGyA4hM4KxxC8mngLgKQVfEXyqbCQoqrQhDgUBAsvbWfMW5but0K57FMlhlNXaDEoPJ+cX+hu+9eggkWwfiOlJCgAhnsP21y1N214/mW52aTujcLwq0XyX91/CES0kYFG752VBhNA5RGBErrI8zbslen7W72JyPNeLGBHgEcEQwZCCobHCwCjk8qVeNnyLSUZ/52y45alUw6bRYqZ78UD/cPa99/XTuVIQiOlBCgAhdnP23e/Lfu/KdafpAb3UBmohKTo6QZg/9rjbzt1qxq49+fG3JWvUFkKlp2C8wXBX3wHAY70HioCCdVvAXAJRj2oOf0AHjW5sef2m9fRKlGIMX4hJJwWAmNaYkd7xuiVnqYI+CYrmO+KFCmgEIwlGMqGU8sfWiMf3791u+/di6hnvH1BE0Kg8CskAIjAcMAjiCEwbYbEe2j2i28uPtv7sxDtB35XhRaKuSAEgppXN/7aoI3Ofme9K3mxFmKOS7jgOaDEczU4blc4YA+cYwdjSfuh4rAtd1KvxpzAUEdJKwSiFkrUYsbbEQI8y3BuQ2q4c/lcr+1c3e7Sr8/uPbYk7biH2lxQAou51v/HoDpf3WgazyaNbwvIJJuCFNlTziDC/PZEA2CFvLcKxfXwhDBG8scZCnxTgGeTyRUDzrZxwW4Z9/2+pklrTbOz2gVO2DR/0yS7ZLhBTjhQAoi7x8uUKo6OmN7P9dBT1q1xRL+lIeCcDQNE6ODDs2FK+w64xuZL+xbhKz0DlLcJYUUCVqYdaa/QUyxvJuJVRg3to7YFtt55VOmQLfVe2CcTUIQWAqDsD711wcvhkwzkMLCKFJT5Rs2MgoWhn0mfsebKeEM9FEaDHHjM0BISOETBXJhszHDNdp1LhX6gtWtX+4wfWxR2vEC9ECgAx5Y1+ub2z8MdDTgfzETC8CMAiWOrQROmUqsyjD9mhLNleTCBvbJvAIwWfCLkwjJh4mIAtcHQXwH9XC4Zubfv244/GHasQz0UKADEl/f1L8xob72xZwoxF5LuXcUEvAzC3xTO+JoWiswidQ+Bkyp6ojrRWSCsNB0Z/GIEZXUjYdVrTPVzCBswZXd9+9WPb445TiHFSAIgpg69aanpvSHZ0zaTDDhgpnKgLankDeYsTRiOwEQKudO2PP6IniV9U0/gJi4oqzYOeIiS1BhyjNwq6kLLXdTcm72gIvAf9Ur5n1m/WylhiESspAMSUkP/mQbPyd7acwf3+ea0Jc3I0NmJ3/OAcBxnGI2rH+NAhhUpBoFCZP5DWCj3lcBP57gepY3tvbPiPJ2V7QMRGCgBR03qWH/1m9CffQoRlDO5QTMkGoxBxZYBLJAfpiClg/AmChCIUrEMADogwyA4bVDb8NZ/Y9ZP2i3pH445TTC9SAIias/nfFnU0rE2cBqf/icmdqp2aP8MYODDy1qHs5D5fTF2GCBmt4RNh1FqUyHYT091gd5s3u3Br048e2RR3jGJ6kAJA1ITcpw/P8rqW+f0NWNIclo/RZXV6k/IO85TCaBShNDauVYh64itCkzYAgN4o6GWfbxn2vdXpEq+nhuDRA66/rzfmEEUdkwJAxIpPOcUMLOpeEHYlz8SI97aOhL8YzJVlUud2PrMvyV/UK8LY+QSKkFYaymj05EvdKml/og8s/WbGtoPvpd//Pog7TlF/pAAQsem/aN6icF3rW8jhA41Gd5acgwHBAoiY4WR/X0wjmgiasPNnwBAwal0A4Ef+nJFrZ/zw0bvijlHUFykARNXtePPiE2nQW86K30SW2jJKpz1FKDiLQIb1CAFDhJRSUCAM2iggxcNgup18+9O23627lUiOKhb7TwoAURUDl89tDn7XcbZOhktdqBcjpGXtyUQydBbDUQRXeYJPxR2nELUmazRS2mCoHCJQdj0l7JqorH+dOXr43savbZQeAbHPpAAQk2r07Jd1jCRKc42l1/KQ9+n2RCIJZozaCEUr3fxC7C1fEZqMAUhhR6n8qM6GN1Mm/OPI0966Q+5cPxh3fGLq0XEHIOpX7t8POSzamvyKl/f/a4bz/wkEU4gsCs4hlKV+IV4Ux0DJMcrWIqVVWzOSJxWG1HJlTOKgjy/d8Ic/PJaPO0YxtcgKgJhwuQ8escQ9nnkLaXpPUqkOA4JjRpl3jekVQuw7Q4SEUnDMKDoHJozC4uaezuRlR/3PnzfEHZ+YGqQAEBPmiTOPX5ax0XkATkVEs1qN1xiww6i10s0vxCRQBGS1RkIp9Aahc0SbyOc/uFnDl3d+/7EtcccnapsUAGK/nHLHCnPDf/xu8WDGW5wphsvTrE5vTPoohyFGIkn8QlRLSitkEwkEYYARFfzIldQvMCPa1PHL9TJZUDwnKQDEPsv94Oxs32/6zmwZCS5uT/qL4RhDUbRzf1+SvxDVM34aYUopZLVGLggjJPlmnYi+02KCu+j6h2WYkHgGKQDEPul9+1Gnub7EvyCk0xs83WzHjuKVw3mEiBcB8IigVeX0wb5S1OU8d5W3NPer1i9ufTju+ETtkAJAvCgDH1m4OHwsczEILydgVpIUHCAH9AhRYzQRkkohcowyuxJp7mVHNyS0+XzTH+/pjzs+ET8pAMRe+fuZyw5rtPYsIj4nYb0Ts1qj6BwKzkKe6BOiZjlNpBqNhlEauXI5AugnbNzvsKDv7plXPNETd4AiPlIAiOc1+PajmrfYhmWd/fZd2rp3tqWTGCkHKMkdvxBTCgFoNBpgwiCHW3XC/VxH/ndm/OGvW+KOTcRDCgCxRzvetqiDRr0LWsLkZzQpDEeRHNIjxBRGqMwQyBoNx4zBMFq5bWbqC8f87FV3E62Qqn6akQJA/ANm+LnXHfNpLph/8TTNSSuFwDECdrLcL8QUN14EaCJYZhilUNThb9WB5Qvbvv/go3HHJ6pHCgDxDD3vWbiYdyQvRajPmKGN75gxIoN8hKhLSaXQ4BnkbYSCs6scqys7b733Z3HHJapDCgABABh46+K5QZ95ORl+SxsSZxEIfWEgd/xC1D/XZIwyAHqjaGMhoW9Me6WbZt60flXcgYnJJQXANLf9dUvT3sz8AupOfyxR8t6T9QyGogiBNPkJMa1oIjQZDe37yAWjD5pMeHEp8G6f9Zu1hbhjE5NDzl+f5lReXcJPNPy5xSbewwQMhqEkfyGmIcuMochipFhCOyUW2cHEtaqsP/vB65Y3xh2bmByyAjBN9Zx3xMl4KnsxE05tNsaPmFG0FpL6hRBJpUAAis7BEfV6nfl3tV7z0B/ijktMLCkAppmeK9uz+o8Hvs+VzYczbBZoAvLWIWJ2kBUhIUSFUwTVbAy00chFxY1E+GkUmF8dcNvfZJxwnZACYBp5+pTj5+pM6e0IzCXtiXRyuFyWEb5CiOdFANqSCeSDEHnnfqbYfa3ttrXriWTBcKqTAmCaWPX+kxcfuqX02YyiN6e0wkAYyU+vEGKvKABpraGJMBRFXWpm8eLiGwZvOOjcrlLcsYl9JwXANNDzpqPfxwPJS1KG5moCSo5hWZ7vE0LsPUWVAUI+KRABoyb4Ll7S97n2/3qyO+7YxL6RAqCOdb/y2LO1j/ezwykZ6EYmoORkmp8QYt/5itCkDQZsiAhYaS1ffsDta6RBcAqSAqAe8QqTO+135zLwqTbPW0KKMBCEiOSuXwgxMVyb56mQGYNRdK9ivrz99jU/jzso8eJIAVBnht+2tC2X99/elI+uaPU9jERWTu4TQkyKpFJoMBq5IHRDDd6/drQOXdf0g4f6445L7B157KuO8ONoLA3xVfOcd0VKa/SHkSR/IcSkKTmH/jBCVms1P9LfCXoSVzAjHXdcYu/ICkCd6H/HkSdGvakrmskcS0wYtlYa/YQQVaGJ0Kg1HDGGEa2i9sIFbT99+N644xLPTwqAOtD9z8s+oJT71xbyFjMDA1EkQ32EENXmWoxRjoBBDtdYR1ce8KfVP4o7KLFnUgBMYX8/a+mcTIHepIgubk/4HaNhhKJzkvyFEHFxaa1Uxhj0lIPtcPjCSCNunn/T6q64AxP/SBLFFPXkta9tTkb6iy3GXD7DMx0DQYhiZb9f/p8KIeKiCtZhIAjR6plZzZ6+MllWl/BTy5NxByb+kawATEH9/3boomhNy5/atdc5ElmELIN9hBC1xRAhoxWGQgsYdyOdOHBR+4rNG+OOS+wiBcAU0/vGY95t8/rzHdqfU3YOw5GNOyQhhHhOmggeVdJMiexm7/DCOTO++fD6mMMSY6QAmCKePuP4uZrCc9nRv3aY1JzhIEBZ9vuFEFNAszHwjEHO5ldRBl9su2HdLXKYUPykAJgCul61rMUHf06BPt6a8NAXBDLOVwgxpRgizEgm0VvOb6W0u6RYSv72oD/eI0ODYiR3jzWOly41HvMXGPj4DE+jPwgl+QshppyIGQOlEtpMYo4bNT/0ouhzccc03ckKQA3bfuoxczzSv1akliQUIXAs8/yFEFOaT4SM1uPzSr61ddB96ti1a6O445qOpACoUZvPfNlpjSV7YbPvnW6ZMWqddPoLIeqCR4SkVhiJbEDMt5R89eOD/nDvjXHHNd3IFkAN6n3ry5clQ/fZ1oR/emms01+SvxCiXoTMLm8d2pO+35ZJvQFEr4k7punIxB2AeKbedy16k3u69IVmMgvy1qJgpVFWCFFfFEH5RBgNIpSs284+PRJ3TNORbAHUkJ53LDo3k8v8IqEUhiMr+/1CiLrUYDSYgVHnbmHmj828bfXmuGOajmQLoEbsOOeYD2FH6hdppVGwTpK/EKIutXgGlb4m+1ut+HxJ/vGRLYAa0HvOSz/qhvUX2hNJ9JXKcJDkL4SoLwSg2TMoOoeC5Zuts5d23LZODgmKkWwBxKj/g/Ma7WjmLJdL/LAjkfZzxWLcIQkhxIRTBKSVhgMj79zNbN0XOu9Ye2/ccU13UgDEJPfpw7N4NH1RQznx7z4p9IWh3PcLIeqOApDSCgTCsHO3OGU/NWvl2kfjjkvIFkAshi6Y3VJ+OH1hJvA/o4kwGEWS/IUQdanBaEQMDDt3i1V8/oEr18qyf42QJsAYlDd3fMgPvM+klMawlW5/IUR9avUMAmaMOnuzZlxw4MrVkvxriKwAVNHwBw9rC/qSb3aj6oImL4HeUknu/IUQdUcBaPE8FJ1DyfLNrN0X2leu3Rh3XOKZZAWgSphhyt2ZT6RH099pV4m2XKkkZ/oIIeqOIULWaAzYEKM2ujFge2nnSmn4q0VSAFRJ/7uPekOmnPj3JCn0hyEgf/dCiDqjADRojZAZLhNdwscE7zjw9rXr4o5LPDdJQlWQO2fxB7g7eb2HSsOfzPUXQtSj1oSPIRehlAo+Fy5WX+/86oZC3DGJPZMCYJL1vOmYj2LYfK3VS443/MlwfyFEXSEA7YkEesJygKT9T39e8K1ZK9ZK8q9xMgdgEuXectTb0Z/4YZsM+RFC1ClDhCaj0R9F4GT0Jf+kvsuaL946GHdc4oXJUwCT5E8fOW2B2jh8bYvvQZK/EKIeaSJktEbBObi0/X8dS7q+QhfnRuOOS+wdKQAmwV/f/Yqj5z02dG1Ga4yGUdzhCCHEpGgxBsMuQpgOL7GLd3ydVuRk2X8KkS2ACZb752XHRqArZxAtKzqHUBr+hBB1qD2RQC4oOUq7/9Cdg19r+e7m4bhjEi+ONAFOoB3/fOyJzLi0U+tlEVgm/Akh6o4iQrvvIxeWIiT4q+Ujd1whyX9qkhWACTJwyuLmQHs3dSS8k/ORRcFKs78Qor4YImS1Rt5ZhH70n+YVg5e1fEaS/1QlPQAT4I5TTjElM/pFzTg5dIyiJH8hRJ3RRGjUGiV2cJnwEjd/+9dbPrND9vynMFkB2E9Pv+KYNuWbSwn4SEYrFJ2DzPgVQtSb9kQCI1GIcjq4pO2Q3Ffp8q5S3DGJ/SM9APuBr4PvNdFbNegjMzyDsmNJ/kKIukIA2lMp9EblnnJD+V/8Q4JvS/KvD7IFsB96/+eYNyFUF7YlPAwEoTT9CSHqifOIVLPnIVcuFKghvKT9l/d/P+6gxMSRLYB91H/BgkX24ez1bV56QV+pBCfJXwhRRzwiNBqNYWvh2ovLW3/2wA1xxyQmlmwB7IPZfEEyfLDh9206sWBQkr8Qos4QgGbPq5xfMrvwOkn+9UlWAF4kXr7Q3z6Y/Wmb0ucCjKHIOkghJYSoI+2pFHrLhYLqKJ7Xeu1DkvzrlPQAvAiPv+xljT397p3Nis4N2Y0/6y/JXwhRD5wmUi2JBHJBoZ8awosl+dc3KQBehIYmdwYsPmcUIS/P+osaRahMawMATQDtttDHYGgQFBF47D178xUJgGOGBf/D17O867qOGfKTMSVVGv6MQa5ccqoluqDtuvt/EndQYnJJAbCX+t591PHcYz/RatIdA0EgHf8iNmq3pE6oLEER7fpvYFdaZ/CuHpWxPwyZwS/q3y/v/HSiytccvwBRZTrcuPG3GXhGb4wb+3wHBvPelR2iejSRajIGw85CdY6e03bNIzfGHZOYfFIA7AXOIdv7ruRX2sg/cSSUx/1EddDuvxMBzFBEMGO/QJXkb4igxz9aEQJrMRTZHgYMAY8yo5uJk8SklINB0m3ihH2SHHxA6ReOxFlSCKKSOQQBzQchYLAjphIRZgG8EEAAIDBEs2YkfMC6nT8nDhhbOQAiZoRurCgZ+552FSsiLi2JBHLlEszswuvafvTIb+OOR1SHFAAvhFnlXnvsL5pYvzxkh5Jz0vQnJp0mgq8IPhE8UpU7fFVJmLlyEDGwEQyQxjD8aKPyuQuOVYH8fBCZrc0hdVliRez6I4cCkVJgVk5rZbUbTM0dHNZhUo2G7gX/LWc95axXcsHGGY2a/GbjXBSA4Ng5j0xaKdsSKnLM7EaNaRs24dysLrdzqOaACOyohUKa7cARgea2+6YR2gDWAcwImRGwQ+hYTs+MQXsmjd5SYVC1BB9r+dFDkvynEXkK4Hk8tHChn5zf9KF5kb4CziEXhpL8xYTTRNAEeKSQVAqKgLJzGI5sBKCXlevXmgdD6JKz1Os7fsCCN8GS44Qb1YeWNrZf+VAXKlv/NTGbnR9Ctv+rR85hTc71JdrcgJmttI2YaW6k1ZGk3GyPXJIdNYKphR3a0lols1ojcoyAGZYrJ2rKitukqOz5J3x0l8vbTdJ+rv2362TIzzQjBcAeMFaoHa+65UwD/k1KKxQdy/P+Yr8pAhQIigCNylJ+BEbgGJY5AvGoAynF2MzgDYB6yJtRfti8ZGjT1/+zdesKWlsTCX6/8XVq4Esfn2Mf7Jjnev2FFKojmbCIiRcCSBPDEGASSsEjqhQDAJgZFpCfxf2UVAoNRiMXhtg2M3nSMdf+eVXcMYnqkwJgD7a/ctnpRrkvtnrekuHIytKk2Cc0/osICpVb9EqXfuXO3yNCfxgNg+lh1naVWTB0/W2HzNl6WWZ+z9rzvxvFG331/dd/nd1x7j1bT/MG9VIOzUIid3Sj0bOAseZFAI53PW3A0lT4ohkizPA9DIQhVh/efMSrv7Xy0bhjEvGQAmAPcmcu/UEbJ983EkUoOycvMGKfeEQwipBSClpp9JUDWOaNpHkTp9zDuWT6f1uLvBkjtpDK5Aebf/fAYNwxx43vgBn66lHZ0Xw6qxBlcwdkZrUX8yf6JbzUhWo+gIXtvu8DjIKtFOehY/kZfQEEIKUVUkTIsftrbmb6Y0f99M41cccl4iMFwHPInbXk/+OyuqRd+yYXhnGHI6YQNbaXn1CEhNIoWYvhyBag3BZKuTVU0n9BpLpgwh5+Sbmr49sPd8cd81Tw9y/Na5yxqnlumPc6CDxLpe1xtkzLKKLDklo1NxgDyw7DkUXELL06z7Ir+SvsYLsySOlL5950jyz7T3NSADxL1ykvm+0r91R7JolcoSQvJGKvJFSlgc8yI28tGChAcw85rHeONiqf72v75ppb6CUYjjvWerHj9UtOx4g5SRHPc8otIVazkqSaG4xGwTqUnZMGQuxK/grAsHOr+lv9Ty38xV/+GndcIn5SAOxm4A2Lm4MR/3uG8OakTPsTz4NQ2cM3Y3v60dhz7oHjbmY8CM3rEkeM/qL5G4+uiznUaWHgi51zy3fNeoMq6/enjVpUdgw91nDJqMwfsNOwGBhP/mAg79z6BxY0vuW0K2/bGHdcojZIATCGV7Rne9Yd+KF0MfEVIozP+Rdip90b+jQBCVJIegYusuiNopXUGvzCaynfXt7s98zs8wJau3baNfHFiVdA9f/tZVnrhR1K8XluxLxzhjFzK6O7LcpuvGFw+vQLpLWCB8KAs2vuXTxj+dlfXbkl7phE7ZACYMymc5a9oWnI/brZeBip7CPGHZKoLc5TpJq0ASmFfBiipOxfSwm+c1Ql72srlDa0Xr52Mx2JIO5ABbD9g4e1qc3Z+V6DXcCBfoUt6jM60slZcIxiFKHoXF2vCIzf+WdI4Wl2t7oO71Ozr7l7Q9xxidoiBQCAHa9ednQEdfks3z91oFiS5C+eIa0VMtpgKIwQwG0mwxs5VOt0JvrzY1f23HniQV2luGMUezbwoQVzy483nhoZvNpjnkOOD2tUpkUTIe8sAldfP+/jyT+hFHqtvb2U1Zce8ut77oo7LlF7pAAAkDvtuF+0GHPuiK2/FwOxbxQRUqoyY3/YWoAQkcNdzrc/THx23W+bX4Fp/7jeVPT0v750odms3saBPhNERydIGU2AZSB0bsqfZLhzzx9AIXKrtnR6/7rsZ6vWxxuVqFXTvgDInXv0WTzgf6fdJGbnAlm9ne40ETQq+/wZrZCPHIrOXWdml67lc56+vf31vaNxxyj2X9/H5jeiK/MBN+yfZ4iOTmmFcmUa45Q90ng8+WsijEbRulGbPemQO++U1SmxR9O7AOAV/o7Tf/dYqzZzh2Xff9rTRGg0GsYz6M2XCkWfvtvdmf7xgi0jXY13ru2NOz4xsXjF3GT/qvY2mwxOp0Cf50XeyU2eQdHaKdcjsHPPX2v0BOHtxqrzWu/8W1fccYnaNm0LgL8vXdrodZhLO536PwAwGEXyzP/05BJKqUbfAA7oCcNNJZ9uSQXuL72NybsW/urPMqinzt3BMEe98dglPILF7PM5CNXJ7cZLhsxT4nVhZ/I3Gr3l4EYCfaHtttUy4U+8oGlbAORevfTMjDO/cwQUrYz6nW4UgKRWSCmNgTCEVehi0AZl+fqO21f/KO74RDxy71p0LO9IvhGOTgb4+HbPNwVrUajR1whNhKxWYABDkb3d0/yJlpVrHow7LjE1TMsCoPddixa4Xv+L7Zx8w7C1KLupuOMn9gWhchiKItr5PHho3cr+Jv+yBb9edXvc8YnaMLzisLZgbcPnvJL5KFApGC0qjYK1UggQKhMoHRiBc+s8G71qxp3rpTlV7LWaXtqaLMW+zIfbdfoNwzaS5D+NEABfEZp9DyXrEIB/Es3Kv16fPLhckr/YXeOKjb2t71r7idUHZ19aYL7GMdDkGXiqUjzGTREwwzMoOReUHH+j3WZPkuQvXqz4/yVXWc8/H/dxx57TTgcAACAASURBVLh0puc39wZBzVTzYnIZIjQYjbJ1KKhoA/n8w3Lk3TD799IoJZ5f32teNttmi8dj1Dt/hvNPM0phIAxjO3SIADR7BsZo5IrlXzntfbhz5aqeaschpr5pVQCMfmBRR2Fz6n/bE96C3iCU5D8NEAHN2sAohVw56AVwtc7aO8qv7b5r1vnbC3HHJ6aO3nOOXuYGE+fAuDPaKHG0A2MgjKr6OuIRIa0VhiIbMHADGFfOvH21nOon9sm0KgB6Xn/MZcibTzdrg8FIxrTXu7RSUEQosoVl3sisfjDztnu/HHdcYmrre9ui02xf8vIk9CIDgmVGsQpbiR4RUpXk74jwjXLeXHzQPffIc/5in02bAmDb6cfNbiX9lKcIfYEk/3qmiZBQlZP6hkNbUgn3/cTbuj7f8O4dskwqJkT+qrbOwk1zLnUl/Z4mT/uBY4STeOKgIkKz0egPI+eYv915+5qPTcqFxLQyLZoAt5+0dI62fKkCoSin/NU1RYQWzyDjGQx7wdVIhie4bPFiSf5iImXO7+2GyX9KNdoTRrzgmgbPoMWYSWkQVAS0egb9YRQR4evKZS+e8IuIaWlarAD0nr343aaQ+DERENTQYzxiYrV5HkgReoJw63CKLmtIFm/pvH7DlrjjEvVt8C2L5gUl73wqmPe1aq+tzA4jkZ2Qr22I0OwZ9AZhBNCXA0vfmS0T/sQEqfsCoPv9RyzST6cub6P0aYPlAOEUGu8p9k5KKWS1Rs4Gw8S4t6zUT2evvPcnccclpg9mqNwZx34EEb3DIzo+qzWGrIXbj9eb3Rr+HIO+Tpa/1nHnaplMKSZM3RcAO1513FWNWn8wYJa7/zqjieCN/RpxFioTfnbLjeu/fCxBmjxELJ5+5XELtcJlvqKzkkqh5Nw+nTBqxg6jGoqsA/CtIX/gwpf8fpOcViYmVF0XAN1vPfpU1ed/p90kDpNn/uuLHnuBtA7Ic7ROHZK/qO17j9wad1xC9L1jfiPnGz6eLPifz2gzPjNgrz9fEdDieegNQueAb3XetvoTkxiumMbquglQ9fnvAtNhRWsl+dcRQ4QW38dQZINRZ79MrN4myV/UitZrNw1TZuQbxZbCO3pteX2aFNJa7dXdliZCayX5Rwx8lYPo85MesJi26nYFoOedR87H0+k7moyZPWIj7MMqnKgxBKDRGPhaI2dLmxj8HUTmmpm3/U06/EVN2vHGY0+L8upTs5Q+IwQwEtk9PSrofEWqyXjoCQLHwJetxpUHrlwtDX9i0pi4A5gMD11wQovaWP6sp2i2ZZbkXwfG9/tLzmKIw83IBhfP/NWGG+KOS4jnM/PXa25dv/yEYb8v8plwSqPRquwYZeeeMUY4qZTyFaEnKvcrUlebKLhsxm0y219MrrpcAXjgzSe9aVEBvyxbi+EJehxHxGe8IWowtCDPXee/vOfi5kue2hx3XEK8GN2nHvtNIvpQi2fMSGR39gV4Y4/65aJwUDcH57def/91MYcqpom66wHInbp0Sftg+H52jLLc+k95hghNRgMMlJP6v+jc5Psl+YupKCx6F6qm8LxBF3bNSCSgxo6lbk4kkLNBFzWVPyzJX1RT3RUAxYQ5ZYZSZw7bCIEc9TuVuZRWaDQa/aHdOhi5Dxcz9JX29/9lNO7AhNgXB91zT6ntY+uvc+nw4lxU3NSaTKI1mUQuKm6iTHRR22dkS0tUV11tATy1/IRZesh+74BE4sz+YnnS5nKLydegNXxF6A2jrQS6pOM2Gewj6kff65e8x5XUVwBAJd2FrTet+1HMIYlpqK6aAP3+6MMEvLxYDvdrApeIV1orEAF9UbQJTF/ruF2Sv6gvwzP6f54pNowCwHBq5LdxxyOmp7pZARj88kHzgltn3tauE3NzgQzMmqrSSiHjechxcSW1hhe3X7NhXdwxCSFEPdJxBzAR1uCDpsEb+bYHOgnAPo3eFLFzjVpTyveRo/wtaLQXd/xsw31xByWEEPWqLrYAWhq650VPpt+UTRNGMkUgwUBUN4sb04Fr93wVwiFH+R9xJrh85s8f2hB3UEIIUc+m/AoAM3wzWnpnsjfzGh70UQ4BSljAMOpoh6OutRqPAjgMU3hz++/WvSe7PLct7piEEKLeTfkMyffjeNurf6oea50/8r8HoPBgE+AAPbMEeA6VQwAIchhA7SEAGa2RMga9Kv+ztt/cdx7JSX5CCFEVU34OQH5V6yn6AJ5Pp/cg+38fROpV2+BGfURPZYBIVVYCSLJ/LcpojZTvo88f/Yb6yJMfluQvhBDVM6W3AMJbsqeqbPGjOo0DUWZQm4PpzEN3jEIpRvj3RvCwB/IdKGkBnvILHvXCtXkeeVqhz+S/kVg4+vnmD28biDsoIYSYTqZ0E6BLlF7jt7plGFKIAgNVsjAHBMi++WkEh4+CyxrldW2wRQNzUB5IWsDJdkDMXLvnqRI7jCC4znvDE59reO+gHHoihBBVNmVXAPhPFzUGdvVFXifPcUOVnO6KCnCAamDozgC6tQguGdhcAjzqQ6UsYBzqoPVhSiIADVqTImBQhTe237Lu7aljSvm44xJCiOloymbC6Db9HWZ6n0nDt0WAGc+4syePoTstoID8TTMxcvUCICSozhIoFe3aDpDVgKpJK4WM76NX57/fdtO6jxGhFHdMQggxXU3RJkA2bOks08K+LYwlf2BXOcMABwTbowACMmf2oPFDD4E1I3oiW+kL8BygJPtXictojYznoReFW6gp+JokfyGEiNeU6wFghuq9ueV0VtQBfo4beBr7xYAraGAbQXdYpP+5F5R+BOU/tyJ4aAaiJ7JQjSGoORjbP5iyiyG1zjVorZiAHBdv9ZrtZ2f89MFH4w5KCCGmuynXA/Deo9tmHtA89HVFOJQiYI8n/hJACuCyApcJKsvwjsrDO2gErj+B6IksXMEDGR5bDYA8JTAJUlpRUmkM2nBj4oDgQzOukfG+QghRC6beCoDzl1ELnYICEO1F+xh5lbHA0VMG6GaYg8vIvnkLVFOA4r3tsNvSUCFBNYeVLQGWpwQmiiFCSin0huFWAF9r/vEDcrCPEELUiCm1AsB3Jw7LePkPa42jEQDO7uUnjm8LOIIbIejWEIllg/AO7UdwfxvstgyIGJS1Y30EshKwvwwRGo1GX2i3AvjszNvW/DDumIQQQuwyxZoAy4s03NkoA/xiZ8YRKt9tqGCHNDgA/KOKaFnxIBrf9ThUJkS0sRGuNwGAAS3LAPuKAHhECJ2DIv58wWZuiDsmIYQQzzSltgCiXHKhmRc2YhCwe9r7fyGawSUF20PQLRbmsFFkWgugjEX+l3MQdWUBR1Ct5coYYTlV8MVyTcYoTylsc+F/J9L+zw+5+U7p+BdCiBozZVYAtr//xDkuMsdB7/8ePZnK4wNRj0H0mAFlHdKv3obsW7bAO2IAbsTADfiAJXlU8EVKK6UMAT22tOmCzxx8YfvNfxmNOyYhhBD/aMrc3trbzKUO/EmTpKwrAW4i8vL413CAaomg2gC7HRj82ksR3NcKlQmhZpakOXAvaSK0JHzkotJG/7Tcq5svfHJL3DEJIYR4blNmBSCw+jQzExOX/IFdzYEEuCED1wvoWUDz/3kYiRO7EeVSsE9lKsnfuClULlWfJkKL76M3Km1UTdFFkvyFEKK2TYkCYOB37ScbsnNhaeKS/+4UAAe4AQO3Q0HPDtH4gS1o+sgj8OYPwXalYbvSQKAAb1+bD+qXJkJaK/SUyxED32z99Prfxh2TEEKI5zclmgAbU33vd051YGTnkL+JN1YE2EENgGEWFJCdV4A5MI/Raw5F+GQWFoBWDPhOThXcjUcE6wAF/vpomW7oOBYv9hkNIYQQVVbzcwCGPzWrzTs0/xWToSZX3m3u/2QggAhwRQ0qMSgFmAOLUE1lgAkul4TrT4BSFrRzS2B67wuklIIhQp6jdX6y/C8H/Om+3rhjEkII8cJqugC4G5dlWw7a/J700t7llGbYUhWS7VgRwIGCG1SVeQELC0iekAOXgfKGVvCoB8rYypRBHvukaWqG52HQRk4dWnhXy/889Ejc8QghhNg7NZ25+NqmeYEXfdOfGZwJxYjK1bw4AIdKQZC10G0MLmsE9zei+MdOlFZ3VOYFtJdADSEQqWm1JUAAWjwPfTYYRtp+seOm+74Ud0xCCCH2Xk03Afa22jmms3A6FMMFVb44obI+QoAbNrA7FMhYJI4fQPatTyJxTC+4qBBtzYBHvMrkwGk0M0ARQSkCmO7yj+j777jjEUII8eLU7BYAP36LX+751RvTB0ZnoAjYuNrKxk4VREiw/RoIGWZuCNNRAEBw/T7cQBJQAPlu18yAOmaI0OIZ9ERhFxiXt/30kdVxxySEEOLFqdlMFd5qTiHCpTqDk1EColroK+exX4ZhZlkgCRT/0IKh/14I5A1UWwmUsWMfVL9PCWS0Qtoz2OS597/kxnuujjseIYQQL17NPgaoVHS8gj4ZAe39qX+TbbxcighRt4aZaZE8qR+q+T4Eq9tRWHkQ3IgPPTtf6R+ow0cF01pDEdBHxat1WyDP+wshxBRVkz0AK8C+HUm+FB0A7ARO/psI46cKlhWipzUQAYlleWTO3Yb06V0gcggfnAHX71e2A+roVMHKKX/AaGiDyIsun/f9B3vijkkIIcS+qckVgI9/9IjDmDAPmKTJfxNBM7isYAcBrRxUc4j0WV1QzREKd3QgeqIJIEA1hZUiwNbsbstea/M89EURygn15dm/3vBg3PEIIYTYdzWZleyd6pMuUheaLDpdvsZWAJ6NAbYEIoY+MAK1AuHaJAavWIRoUwNUcwg1o1wpAhhTtkHQI0Kzb9AdhXcfsHL1K+KORwghxP6pyS0Acvwak0InSpM8+W8iEECaAQLs0wbcDXgLS2j+1P0wh47A9SXg+hI7P7Y2S67np4nQ7HnIuWCNbit9Nu54hBBC7L+aewxwy+Gnz82++snPqGZusHmaGj1044mdAS4qwDHMgRbJ4/qh2/Ow3SmEjzeBIgXKRIDhSoPgFEAAPEVQTCg7vqrjpvt+EndMQggh9l9N9QDwHaeY/OPrTgRRI6Ip2ECvKtsBbkgD5KA7SkiftR0qZcE3KERPZ4FehmoJKgcKRbVfBPhKodEz6EXxD5Si6+KORwghxMSoqQzEa9Do8uo7LlRvNQmoqo7+nUhjfQEAw8yJgCKhfG8bin9tQ3l1+64Rwilb048KEoCkUggdw7YXXtv+8wdviTsmIYQQE6O2egC6k20c0pkmCeXCuIPZD2N9AaSBaKsHjoDka3Jo+vgj8Jf2Ag7gQR8IFACusTJsl7RWCJgREK72uppXxR2PEEKIiVNTBcDofa1LdIqaoQHn4o5mP431BZBiuGEN9zRBNQJN//Iomj7xAPzDBxFtyYIDXXlCgGpuGcCltUYEdvcdmbms+e67B+MOSAghxMSpmR6A0Vs7OsxI/wkAgFqZ/DcRFAAHuBENtgw90yI1qx+6PQKHhNK6dqikheosQmUicI2cKphQSg2EEcBY+Zor7tgYdzxCCCEmVs2sAGSSPYd5M8qnwQKohbn/E0mhcqrgqILrV0AIeIcPI/vOLci8disoGcHuSMHlTWV6YA1sCTQmfISOtyioy+KORQghxMSrmQLAjXgLVZKOBgBbTysA4wggw3AjCuETHtywgn/cMJouehzps58CJSzstjR4dGxRJsZCwBABbEGEW9tv+9ud8UQhhBBiMtVEAfAbrEkHvalj0IBKB30NLIFPGgLIY3BRwT6pgQBoOO9JZN+2CfAZticJLqtnfHw1eUSY4Rn0uuC35qDSFdW9uhBCiGqpiUFAV9/8sxN0Y/AW7fPBKNf46N/9tfs0wIjgCgoq7eAvzCN5TC9gGeEjzXA9SZDnKoODqjg+2FcKiVQSo8XyVe2/Xn9T1S4shBCiqmqiCdBrGp0Pq2cjoPq++9/dWE7nMsHmNFSzhbdgFNmGrUCkUPxrB2xfEhoANYWVxsBJnh7oUWXyYm9x5FGVwp2TejEhhBCxqoktAHbmKHaYh6jO7/6fbawvgMuEaJsHu0NBzy4jc85WZM99Et6hw5XmwN5EJflP7tHCLq01MloBaXdpz7vXyml/QghRx2IvAD4INlHJvNzMBmxY5/v/e6IA8hlcUoi2GphDisi+byuy73gc+oAiuGAqzYGWJrM5UBExBqMIUS9uPfJcBJNyFSGEEDUh9h6AG2f/7YzMK59ablrDZs7XwPNvcWPA5QmkGd6BZfhH5qCbg0pfwEACqml8ROLE/l01GYMha0dVNryoY+X62yf0iwshhKg5sa8AtFx8b6fOhj5KsYcSP0Ll/0ikYHsMXBHwFpWROWc70mdvhUoFCB+YAdebrEwOnMAtAd9oOEJw5z81/HzCvqgQQoiaFXsTYHJJ/wlc1C0oqWm6/v8cNINDghsyIGVBSYv06duhW0MUbutAsKENwNipgporWwP7wSNCMQwB5jXnXPDn7on5JoQQQtSyWG+7+y+a18h5fYZOU9IFXAsTcGsGGQYcEPUYhFs9UINF6txuNH3iEfgv7YMb8mF7kpUDhTRXegP2gSKg2TcYcW4jga6a4G9DCCFEjYq1ANAldTw7NasuDv+ZDDtPFWTYbgP3FGDmhmj+5APwjxoA5w1cv19ZAWDap7YABQKURuipVTNvXf2rif8mhBBC1KLYtgD41oaWIOh6FWlW0m/+PMaTOgNuwACRg57l0LLiIZT+PAOFWw5E+aEWqIYQemYJ8B0Q7V0loIngK0JPobTVkPrj5H0TQgghak18PQA00uxlaBGcrq/T/ybL+KmCo5VFG9UUIvWqHlDKgiOF8IlG2FwSurUEpCwQvvDijkeEjNYo+tEtPCd/J26b5O9BCCFEzYivADBI20jPMwaALP/vHQWAATukYQc1zIEhEsf1gXyH4r1tKN3ViWhbBrqjCMqOHanoaI/HCxOAsmUgHf5vx7cfluY/IYSYRmIrACJGlpjnQxFc+MIfL8aMTQ8EA9E2D6opQuKUAfhLBwBLKN09EzziAYZBxu08ivjZRYBHBAtGyUWbwlx6fRzfihBCiPjE1gS4Y7B9tp5BBiQNgPtkfIzwqIZ9SoF8oPG9GzHj/25A4phe2CczsE9lKicL6n+cHphQCgEzkI1+7M0f6IrnmxBCCBGXWAqANfhCZ2pN9oTKbak8/LfPxk4W5IKCfVpDNQKJfxpC9twnkTxxB9ywB7s1A87rymrAriLApbSCTwqbZ6b/0H71Y6PxfRNCCCHiEEsBMPstv2hLHzQ0GxEm/YS7ujdWBLiigu1X4BGCPqiAhndsQcMHHoPqKMJuz8ANezvPEfCI1EhkUbZu3fXz5z0c97cghBCi+mLpAWj95IZZFNBcRPIEwIQY3w7IK0RDBJVxMAvzaHhpHtQQIX/DXNjtaaiZReiGCBlPYTC03Ui47331wp8W4g5fCCFE9cWyAqDyapnWahkiwMr+/8RRAHljxwtv0cAokD13OxrO2whqDsH9CXBRw1MapF23eU33b+MOWQghRDxiKQAKgX8wZhDgZPz/hBvbEkBEiLYbcB5Iv6YXbV+9F+nXbq1MDuzPgIlKrR/fJs1/QggxTVV9C2AF2FC+oREUYrIOtp/2xv9aI4Lr06AGBzOrjIZzupC0BrkNTY4HvLtjjVEIIUSsqr4C8PGLDl3g+1EHSiT9/5OJUDlVMCDYboMop0CHBPDf/RSSJ++4q9jV+su4QxRCCBGfqhcA2TO3nIx0OA8lgGX/f/KN9QXAKmAIwGFFpM7Yfu/cbb+5N+7QhBBCxKfqWwAU4VACWhDJBICqUWOnBfcZoN/BmOh+gKT8EkKIaazqBYBSKDhLEeg5J9SKSaIIgAMsuFt7GIw7HlHblq94yM9hoRSJQkyyw7YD3/0uRXFcu7oFwHJWkU0s8X3XjFCeAKgqjwEQooda1ow80dgFPBF3RKIGnfz/RhcZTef3ETqVy8uESCEmEbFTm+aollO/MPrL2z+b/VG1r1/VAuAryXe3wWIJWoBIzp6rLq/y29C6mXc88d2vbgHOjDUcUXuWX8eq9/HSMu0nP5puA0IZESXEpCIFJBqBwS2jLaevGLll5YqGnmpev6oFwHtzj85RFg5R5W5UVBETYIH+0/Krjv/umcNxhyNq0PUAL+aCDQqj5eF0NiwGskcnxCQipWBDA4BaQk+dAuC6al6/agXAcrCyfS8/jEPtgyMQkWwBVInxAC4CjnnVQUc+uSXueETtGhvPFbEF2Mo53UJMJmYFFxoQ0Kzg5lT7+lUrAP7zGy8xDcnBWUhYH4GS5F9NGrARIjL8YGYEsrArhBA1geGsBQOdzDiy2lev2hyA+Us2+Ymjew8hzyYhNxbV5QFsqeC2ZVajYWEp7nCEEEIAYAbbEF46AxAWnbLiiWQ1L1+9QUAefM7TAkXkywmAVZZgwKngySuWraIjHw7iDkcIIUQFOwtlAAJmGz1rbjWvXb0CoAyfWM1XHgB5uri6iMCaoy/NOVqevRBCiBrjIoBBJtLRgmpet2oFwP09B3eSojnwgEhWAKqCCDA+YHvhSNnbf3D95f1xxySEEGJ34w3xbDRj1tKruGq9eVUrADq3uTnkVetqAhh70NIDGNzr+fb+uOMRQgjxbDx+Lo4P5oNbh+FX68pVKwBSPUjDQp4rriYC4AMIVXd5a/rBuMMRQgjxj9haAEiDsMiGI1VrBKxKAXDdcla6KaxaVSMqiACkGK7oda1+xyWr4o5HCCHEP2IXQntpMLBYaV21AqAqew3LP5Sca9m9EgTII4BVpghRAoVX4GI5AEgIIWoQOwuVILDzZ1EYVW1lvioXKnPZOO2qfvLgdEY0tgIwAnh+uD3ueIQQQuwZA4DSsAqzq3XNqhQAynlpxdQGQHoAqoQIgAKiIQ48HT4ZdzxCCCH2jB0AZwG4w6r1JEBVCgBPh43MmAOCFABVMl4AkEKXha7qCVNCCCFepLH5+Jb03Oa+kcZqXLI6ew0KTsFFVbmWADBWAGgATJvZ0da44xFCCLFnzAwQQbvoQEteHRUAjEZmmgdg/HlHMdk0AB8In8rc+7drP7ku7nCEEEI8Dzc2IY9ovnKupRqXrEoBMFzIztXNlAUAJwVA9RggGklEL7/6MjkBUAghpgJmZao0Lbc6TwE4rxGpytvSAlBFJYbXXMpdhbXVO/NBCCHEi8bj2ZFUmzUqXY1rViUxGDgnJwBWj1YAGLAjGE7MG15zPo6V/gshhKhlzqJyLgAvYsdt1bjkpBcAv8Fv0slBzBzvcBSTjxTGT1zcGFjI8r8QQkwdAavqdMtNegHwOpxVUoGSO9AYELGichWPfBZCCLFPmBkAw0tnfAWuyrHAkz5sYOQnsw5TzaW5CGn8rlRMtrF5C5xwPZ5CKe5whBBCvJDKKrn2ATvKTdW44qTfHaYOfnohNZbnI4R0AFaLqWwnRd3ZjYUH2uQMACGEmCLYApbIvOYbPOkH6E3+8rDVJUQqqBxOL6rCMFxEGP3lIU9vPP+jsgIghBBTALOrzMohzM4PledM9vUmvwBgOMjif/URnG4vPHoMVsgKgBDi/2fv3uPtqqpDj//GnGutvfd5JZw8TEKIAUMM4SFKABWqCAg+KRCSarXa1qrt9dreWm+9grRpFbnWe6X9eHu9tlVq5WUi+KoiVCBaX7WIaGlAxAAxBAjJyXns91prjvvHPkFU3uTstfc54/sRFETXSLKz51hzjjmG6SMCIY5KM75uzngCkKlkCJntAHSTgCjJSNsSL2OM6SOqIDAK9RnvBjjjCUCEjqKM2h5AFwkg4sZLZbsCaIwx/UK1U8AtlPMsDM3042Y8ARCnK0CXkUOwIsDuUFDV5l3LB+8pOhRjjDFPnnb+FImTLrygz7xMBOsD0CWRB9rghXtecvitDxQdjzHGmCdL0QCCLHewcqafNuMZRq5k0KkBsDKALum0XLAGQMYY05fUITP/HT7jD/C4Z6mymBzrBtwNDrQNgu4iLToYY4wxT52E6Rt0M6oL1wB1cTQoEcH6AM00AfAQlDbCTrCjF2OM6T+Sgc7493c3tokzOkOOTDcoqBIBCaWigzHGGPNUKXmkIjNeozfzCcD0aFoz837ppzlir9UBGGNMv1ANaJ4hLj5MVY+e6efZAjGLiAAegKqq3MlS2sVGZIwx5ilRxUUlQMoz/ShLAGabzq9oW0Ue3LLd2i8ZY0xfEUFDBl2o4bIEYBZScKKabCg6EGOMMT1rxhMADWBFAN0l+/9kGYAxxpjHMPMJAJLZRrQxxhjTW2Z+FgCyhPmd1nTWCMgYY4zpDV3YAVBnPQCMMcaYJ0c1gMyCRkCC7may8ySxRMAYY4x5bKo4FyMqyUw/auZ3AFSWMyqozQIwxhhjHpsqGnKSEUHRFTP9uJmfNuR0jKoitgNgjDHGPDYRxHnSKiiya6YfN+MJQMhlkobaLABjjDHm8SgonfVSCP0/Dtg5jazdkDHGGPNEFEJOaXj6+HyGdWcYkL3+d58Q2FJ0EMYYY54aIQQQkRmf5WLv5rNTUGTGr5AYY4w5gEQQH9GayEHCjpl+nCUAs4kCOQBDLoTDGWLG50kbY4w5QKZvAcQVD8jCmX5cN2YBWA1AlyhAABESJywjtwTAGGP6iyKe2dEHAKFNbg0AumF/pYUqIUCTBTaFwRhj+oYI4iJaU21UtP+PAET0p3nKbrz1AeiW6Z9mW/yNMaYPCYKg/X8NMIeAEjr3Gs1MUoAcfEyEsppgRwDGGNN3RFB1/Z8AeMUpuE6DAzPjFPCgIkOkRQdjjDGmV3WjD4ATsTLAblHodJFSTba1Rma8iMQYY0x/mvmFORBU7Ty6W/IciCEgKyfuffayouMxxhjTm2b+GiByF8g9ROCsCKB7VNzh99ZmfJqUMcaYA01AZv69eeYTAC9NoG0VgN0lEOI9iXUDNMaYfqKKeI8o/d8HQCpZmVgTOwTof2HoxwAAIABJREFUohwQdfGJDx6mXzpuoOhwjDHGPBkCzpO3am3UPTDTT5vxBCDbMZBp3WdWBthFGXgHpedMntgc+P6Mt5M0xhjzzIkIrnP7b7tz+pOZft6ML8sPbHjF7tZ/HrSHJICzi4DdFAKZZrb3Yowx/UIBgQid+T4uM54A/IzTt7vhbAdOrBVgtwQQB05Z7UnmFx2OMcaYp0KcIv3fCOgHvLzuB7Mmaot/1/x8o2Ugidt2+GKMMeZXzPjicDTXJyHXBGsF2F2dZkDlNC46EGOMMU+NOrrQQG/GH9BmOCAE2/7vnhAAAVVZI+3IigCNMaaPCJKBzvg17hlPAM7kTfX6iH8Ij00D6pL9CYCfL1F67+C6DV2YKmWMMeaZEpyDXHRnyGfBOGCA8mBjJ5Od/X/bCOiCAIjC4px8z9Bz/oS/sJbAxhjTJwSC68JI964kAINxc1dWZzd07qebGSZ06i1aED+rsfCQ13xpcdEhGWOMeQIine/vQD0TV53px3VnOQ7UHboLsGOAbhAgE9gdEa2cWLz4fd8fLTokY4wxT0wEEMa992Mz/awZbzQAQIgcErrzLAOAKogqmrFSlOVFx2OMMebJUXEudOEFvSs7AG2ysaDuTrRbTzSqgIKH5V5ZUnQ8xhhjHp+IQxxIYMfuVml2FAHiCRoHm0zXRUGBHGRUSJvJkd9mQ7nomIwxxjwBAVTb2zZJe6Yf1ZUEIG+MVpksdSYbWQ1A16gCZSVMlA47iMqKouMxxhjzBBzEUu/Wo2bewKvGdrb+fdG/ooB1pusaBciU0HZDg6t2rSw4HGOMMY9L0AADjE1042ldO5GXKCQPX08z3dNwREvq5Wdd8k3rCGiMMT1Kpmf/tCdrYcotu6cbz+xaArD7WfEe6wbYXapAEyQKq6KR5plFx2OMMeaJqMtz35UndS0ByA5u7siaZKh1A+wWVQgpRPPE5Vl0QtHxGGOMeQzi6GyRyw7n2pPdeGTXEoDDD7p/zAl3kYLvTnJjmL4NEClkMnr5899ihYDGGNOD9h8BiOhdSjzjTYCgm7fyhUxdfleWdvWpBiBTaPuB0xf+8BWb2ZwUHY4xxphHpyqR1+6skt1bigdpalm3iWgd2wHoroZDStnQ6Dv+48wNX3rLSNHhGGOM+SVuegcA7so1nV07ANs+sCGrX/2c+0IjykjUagG7KYWoDG5Bay1HTtn+izHG9JzOqhjQLEQ645MAoYsJwJYtm7PmvyzdQSZNIrXbAF0UAuBBW35l7dpFNhrYGGN6kuJEmrhSVzrndi0B2ISE5qrWnZKENuKsH0AXhekZDH5QytKKXrgBtV0AY4zpITK9Lmbq7k6pjXfjmV2d0Pdud+rOy6IfZoit/103XXwZH73npM1fL39NXspdRYdkeo8qiIgTB+JsgOfcpaiG6WYiphvEgQZBgt71rfcsqnbjmV39Hb5ly4cmr3h7tJMmKyMPWd7Np89tmoFE4Fx4FXm6BSwBMI9CJBHvR+IhwJWKjsYUQICQQ97OCFkrYPe2ukM6Sfdz5MbJrV16ZNdTfEfYnk+5k30CYglm1+Sh84vtFzBa3TmwHLozbML0j4eO3OpcOH63kn2+9mC2GKVqe3VziyJB0AxhPuhh4pNlGnLoTk3a3CWdGQB5u9YOLt/Trcd2f48v4h7NdQwvo5La10tXKRALQ1F6uO5aNiDLdlkWYB62aO0p4aFtY9tCPHShyyXyYt/6c02AkAdtxmQnqMjbXZQsC2mrcxxgZoxzMSFrA9z2o+SVu7v13K4nAFkmP3Yiu4kZpYVlAN0UFGoBYk7h9gfPAD5fdEimd2zZKAHYOf2HmcNO/0BtraKjRccxV4iPCO165pQfLa7S7tZzu362s+e/nfaNsC+5h4ri7CpgV3QuASiQQ65cXj/8mEX3v+GkouMyxvSmIPkaYK3mtv3fFdMvwiohajDetXW56zsAB992/c5aPFhNKrb6d0MAEulcKf1x+yCumlrDZ0tHusk8WVtsZMaYXqX4Z1fmD7jWVNu2/7uh8zbchmhXMjg8e3cAAGQgv4s9Cs4mA84Unf4jcRkI3JkdxP+cej6bxo/nDl3Aqmh8xcc/fuaSouM0xvQeQee7GHv77wpheg5QO6A/bddm8REAQKXc/LesoXfgwdsFkwNK6VzjiSUndhmo5+bWs7ikegyXNdYw6Foc2d7FfF9d8vGRgdcVHa8xprec8e4HBlBGQlp0JHOF7k8AMsHv2LpJutIFEIq4BQDgeACVHTjWWEvgA0sATwDptFu+YGIdH6k+j4oE1kYPUZKAawtZVFooab4e+OuiYzbG9I7myPDqSBjVHCvS7pLpOUB1SZt3dvW53XzYfjveeuZk698XjRMpePuEHUiRy0CUrc2Dece+l/DJ+hGAsMRXqUiGIxAyRcoRIvKCdVeuP7bomI0xvSPxcrKiK/IM1DKAGSaIj8laANw5+p/z7unm0wtJAB7a9paddS39kBgbCnQA7J+tGPnOztF1zUO4cOpE/r62llQdz432Md81CTjy6fsA5Ip4GcDpWSde9gYbEWyMASBoOFFgWcisU1v3KCjNLVukq0UXhSQA69g4mb9w3y20BcsAnpkAxORELmN3OsTltdV8tHY0324vYUgyVkRTDLo2qfpfyOVDO+9Unqr8VlZu2oRAY0yHhDVRZdBp3sbOAGaeiOs0AXLS7PazCyvBWxJP7gm1UEWtEPDp2H+3P5EcXAAV3jZxMm/cdybfaS/luPgBVkd7ichpq//V/30ecN5RWjS4ikxWdP9HYIzpNTdtGl7oyJe7GDTYsJYZJ4KLIgj5A2j+791+fHFLb5smkW4nsL8C0jwFAjgJnRoKFV6591Vc21zJIl/j2dE4js7RgD7ODovmSt7KEML64y8/97CuBW+M6UkXx/euC0RltbW/K0QEF4HC9lyib3T7+YUtvbv/7sTd9ZsO3po2BUq2zfRkKeBRIpdRCzFXVZ/LK/a+lhtaK1jkGjzbT1AiJ0cIT3C8onkgtDIQOYtI1nXnR2CM6UUnfeihodQNnAYyELp2EW2uE5wHxT/QbFe2dfvphSUAn7/yu2ON7zzr+6hAXFQU/SWnc79ffE4ePJ9qPJfzJ0/guvpqFrkGB/spYglkT/KXVYOiuRKPlJYEOH5mozfG9LJBVx6QkL9YnE80twygWySCWOrNf9skk91+dmEJwNuRrPz8PXeKD23UCgEfjwIRSkkyQNmVDvHx+hF8tHY0d2fzOSR+iBV+AkFJ9Sn+kgZFYo8oL37BFeuPmYn4jTG9T5thBPQoF5XR3LoAdYcQAsShWchk1kJP34c/eO8tzoc7aUP0q3VqZppHQQI42J7N5yV7zuKPJ36NtjpOSO5jqZ8iR8ifxi+nBiWbaCGxe7F3XDgD4Rtj+kAussaXBkdEsP7/3SCCOEc6lVGXkZ8WEUKhCYAIbQbC5/OWjlMSmwvwSxSIJMe5nHuzYS6ZfB5v3HcqO/J5LPFVDnKN/bf6H7fY74mENCeaV8YFbAfAmDnotIuqi8GdhHZeCszME3GIeDRr7QB2FBFD4fX3k/90+E91KqlStozzkTKEWDJwyoPZIH9VfT4XTR3HzeliVvpJlroaEUqnt98zz5y0nROEJWd86tyN6IbCPxfGmO6RoGsRztaQE/KuzaKZ00Q84gVFvqfQ9QJA6IEEYPzSF9yRpdKmbFkn/HyKX9mlgLC1cTB/VT2WzzUPZUJLrPBVFvkaCuQHsIlSXk8hcSN7KnLBH3ysbp0BjZlDgrAmHhxcA2r3/7vFeZwHQtiWJINdnQGwXzHDgB7h0MZnvtsYKe0gd4d1zp6KjqhYMaFz3i/wxcZKNo69nDYxa6K9HBqNk6l71MY+z5RmAT+U4JRjpiQ/Fth6wB9ijOk5Gzao2yv1I30CeXP/K4iZaYJ0Gro5d+/1/13mXhHgflGc3pTv1qpLOt1p5yqPdrr6RfDxqSN5876XITjWRHsZlja5uhn9ramtHM0DP57v3/O8K9avncFHGWN6xL5ja28EfUXWBLUOQF0h4lCUtFZrBs3vKCqOnkgAxIft6mQnnjlZCNgp9ssQybmlvYh37DmVP586gZbGHB6NMU9aD2/5P5NivycSshwNiowkr1iaW0GgMXNBLjxPxK8KaW7V/10iLkJDhqC3ikv2FBVHTyQAzbuX/yhMRfdQnlttgfdvtsUuA4Hvtxfzl1PH83+rR7M3VDg8GmfYtWd84f+FgIISDcTUJLz6tZs3rJz5hxpjinLKJl0ogaOigTIaUjuD7RJxEZ1mS7JNQ6gWFUdPLLdDb/7ZbTpZ+hGxzonhgErnhxlLRuwymqHE9c0VXFI7hn9urmSer3NktIch16KtvjuL//7YciUbb1KP3Hn35/qbXXuwMabrXKlxMsJR4kCDvf13jQjTK8Gutm8Xcv4PPVAE2CEhWuZ/yEOA79QBzOarqA7wdAr9EPjjiRP5f/WjmC8pz4t3ExMIQDoDxX5PSJXQDpSWDZd158TLgQ92PwhjTDdIyF+uyKjd/Ouu6Z3uoMK9UWte18cA79cTOwAAPsrvyOBGBFyPpCUzQVC8y1CEf26s5PV7X87mxuGMSMohfoKY/BH/ZEFUCdU2mbhjXnjVuf+1qDCMMTPnFZv2rVTkdXFlsJy361j1f/dMr3EhisMXt24SSwB+/JOz7szuHb6JiJ7ZlziQAoIA3ncW+C3Nwzh/8oVsaawikZxV0ThDLiXHTZ/5FyuvtpGBaDRF3vnia85ZXHA4xpgD6NUXj89vx8lvuqg8qmBn/90kggZAGLu+NlRYASD0UAKw5i1frLbuHfkuKT0U1TOngENJXIp3GT9pj/I3U8fwsdqR3J4dxALXYpmvUpb0qQ/ymUEaNDjv8Ilf3WrJ2zZstu6AxswWrcwvAX0HQN5qFR3OHCK4qExarwWQbxy3tNjVrqfetee9esdt+YS7x+NWRh6yWXAlNUZBFBQamvDW8ZP5enMlC32NdfEDQOd630w093mGXF5PO5MCRS74KXwFuKXooIwxz5yiqyqjQ8vaNQhZYTvQc4+Ajx15yi4X9HPff7sUOne5t97qKlRV3OezNm2SooN55iICuJx9ocT/qR3FS/e8hpvTpRwcTbAyGicghG5d8XsaNCioEg0nZRfytz//8nNXFB2TMeaZOf39U2vUyeuzJtNX0Uw3iQNB2rmPdhcdS08lAHIk1frWg6/T3DWpFB3N0xeYXvyjQCtE/N/akWyaPJEfpM9iiauyzE/hCQ8nAL0spIHQDkRDpbdFkZxRdDzGmGcmd3ICyNl5GtA8LTqcuUWVeACA8dRNfbfgaHorAQDYdckLvufQPdCfXQFzIJEMfOBLtUP5w4mTuaqxijaO5b7KqGvgUfLe+6l/dKpomhMfVEaR3zj+s9Yi2Jh+deoH6ssEPTMZHhzQPLXOf90kgotKNMZyBL77rfcsKqwB0H49twodMfW5MSnlN+uE4uP+SQKUzlt/abqr3w+ai3nHxMn8XfV57AslnhfvZqmfAoSs937aH5eq0nqwBqqna8o7i47HGPP0iORnI3K6Buv7320iDhdFhKy5DdVvFR0P9GACAKC5/1LI2U6lfxoDRvuL/QRubj2LV4y9kgfzIVbHD3GIn6Slnkx94df7nhaF0M5JFlRAOPuEK9evKzokY8zTIb8elQYXZ822Xf3rOkE6td57ctVdBQcD9GgCsOP3Xv6NrJbsZFD7YgcgkhxxOT/J5vFf972UM/e+lslQ4fBojINc8+FCv37/7ZZV27jYLwnCxUXHYox5ak67aOp1CuvEYWf/BRBx+ARE9bapxUPfLDoe6NEE4LC7v7wzisKdpL09HCgDIpeBU7an8/iLqeP5eO1IxkKZw6JxhqXdma/TN/sYjy+0ciRyAKcfd8X6s7lpU09dIzXGPLpNm9QF5OKoNDiat2zx7zoRECFrQoD/LPr63349urxKkErrB/lDVPHgeijK/W/xkeSUfUYWIj5bW8VF1eP4l9ZyypKxNt7LfNck74Mq/6dKsxxficHxF2f+5Puri47HGPP4zvjwAwP/mlTPLY8MrhQPIW9b5V+XiThAyBq1MefcjqLj2a+HltZflMvgt3OV6ymD65EeOQp4lEgCqIDGXNZYxYaxM7i0fgSLXZ1j4wcZlu5P8euWkAY0D1SWjxyTl+PX33TTb5eLjskY89jydN4LUD6UNQJZqw09/L0/W4n4/QVtt3qhJ87/oYc/CMnLarfuq458mYpCDyQA+xd/JzkQuLG9jNePvZQ/nXwRwy7jqOghBiSlrX7WvfX/spAG0r11Jkrufe9+YPLdRcdjjHlsQcMp5dGhw1Tt3n9RxEedJAD55lQru6foePbr2QQAYGTe1G1hX9hFgKjAJECn/3AuBwdfby3j/MkXsrmxmlwdq6J9DEj68Hl/vxf7PSFV8mZOtKCCiPz68ZeffWzRIRljftXLP9h4iUdfm7dBg137K4rzgi9BULn2O5vmjRUdz349nQBww6E7W7cs2koQKBWzrCrSGeYTZezKhrlg/ET+cup47s6HWewaHDw9yCfgZuWW/2OaHhks3q1T7y885dJT7CjAmB5y+v/UEQ36VonLJ6SN1O79F0RcRJ7ltKemdiSlfHvR8TxSTycA/3bRx8eqX332F7IWodtji5TOkU0sKd7ntLNBLq4eywcnX8i32ktZ7qdYFY0xIClpv97vf4byZhaioQRfic6tVha8q+h4jDE/l+f184KEs6IBj+Z2778oLi4R0mZbcJ+thWa96HgeqedfWVWJshvcD6OyW0vavQmBDsVJZ1MfPBvHTmVLYzWLfYMVfgKHzoq7/QdCNFzClT3tvc0Tb9645XtFx2PMXHfKppsiF6/7QVQeOipP23b2X6B4cJC0VpsMIm/Yev7gPxcdzyP19A4AdK5O4t0X8yZVyt3JWDyKczmZCp+uP5cjHnwdn2sezsG+yko/jkfnxln/kxSaGaGVg+pFz7/qnGOKjseYuezMj0yM+njd34qLjtJgTX+K5hNAaJ7SHvhK0bH8sp5PAAC2/Wztx3N1exhhRhfdQOfNX6IcFD5RX8OmqRN4IJQ5xE/yLF/DoeS9v3HSVSHLyespvhKdHqn7g+M+fe6SomMyZq7K66zGxW/zSZmQNosOZw4TXFSmNV7HwY2bNknP9V/oiwTgeW/60T0I22jpjNwG2H/FL3EZzud8r7GEP5s8gX+or+XBUGFVNM4yP0VE6LtBPl2hoHnAxR4Vflci9wdFh2TMXHT6n4+tCOr+KBkqEfJghX8FEhF84lHlLlX/5aLjeTR9s5pJql9I97gdDBz4zoCxTG/oq+f+dIjfnziZ90++iB35EM+Ld+NQWhrN+vv9z4hCOtGktHgwQfRd6zafe1bRIRkzl5yyScshSd6RzBt6XVrP7O2/B/gSgO5Kg3y36FgeTd8kAN965eVX6N7yjQzrAU0AIslBAveHAT449TxO3fsafpwuYGU8xko/QabOFv6noPVQneig8pCofGHTxWetKjoeY+aKKK79PvC7mkPIU2b2wNQ8IXH4GFDZ/o0Ly3cVHc6j6ZsE4GVsrMpI+4fUgM5chWdEmV78vbIvL/OR2jFcNHU827ODOCSaZLGrAbNnkE/XqIZQT/FDJa5dGV1+3OYNK4oOyZjZ7pQPttYE4a3J0ODCrNkC7bnj5jlFxON8Qn13bY9I+E7R8TyWvkkAAGS4tS2f4B4c+KcZeUCICMS+M8XvE5NH8NbxU/hS81AGXMoKP8k8aSHTlf7mKXOhlZM3U5hXPkFC+O/HX/nry4sOypjZzIXsb3wyuDakoKEnBs3NaeI8LhGA74lzPXs1uq8SgDTlNhW5jAEgfnr/H4lkBITJbICvNQ7hvVMncnVjNU11HBHtYZGvoQh5f/3U9BzNFbIA8F9w/p12M8CYA++1m3YNnPaBqY2l+QNn+AiyVs1e/XuBOFAI8K8NN9CT2//QZwnAwGnsynP/Kdo8pQFBSud6XyQZiHJrtoB3TZ7Ab4ydTlMT1sa7WeqqNDUmm6Nd/Q64oOSNlGik5FTl3S6R9xYdkjGzTTWad7orD30ma0Bab0CffafPRjI9vjat18ZF8xu/9R6pFhzSY+q7D0spa+3OG/rJrAbRk+g+v7+lr5POIJ/b2gt4/9RxfKJ2NG1iDvP7GJYW+XRjH1v8DyCFvNqeTgL43eMvP/e3iw7JmNni9A+11ojw5qjUafajdu7fE5wvoSFF0M0h8zuKjufx9F0CwPc2Vf/j3sM+GlTaDD3xPx6AyHfOxP5w38m8afw0bk0XsjLax0o/QUny6Za+dt4/E3R6J8BX4iH18uHjrlj/prWbNyRFx2VMPzv5Yp2vWfpenwycmzZyQrBuf71CIqFTqe6uXbR2cHfR8TyeLo/YeeZk06YA3Jp+LbqLtq51Tgi/lPjuf+uPJCPyELKYD1WP5m9rRwPCc6MxFro6qXpr7NMFmoagiEsWVBa29zQvruT5HqDn2mIa0y+SvHEBzr8pKkNr0u779xIR0JC1Q5reumXjYE9vy/Tt6ufEX5pOuDE3/ItXAvd39YskJ1dPmg3xoerRnD/5IuZJyrHxbuZLi4bGtvh3jwtpTjrRonzw0DKB95xgMwOMeVpO/UDtNS5O3l0aKdOatKK/XuKiElmjiQrfmFo6f2fR8TyRvl0B/Wmt/5WF6NvMU9x0AqBAND3IB5RrW4dw4p5Xcf7kr7HIN1gVjRGTk/bvD7uvaRZoPViltGT4JQG3Zd3ms1YXHZMx/eT3/vLzJyN8WrynVW1DH3+Hzz5CXIlQDTsk9xd//+3S8/cx+/rDE0et72Q7CRKDEzon+b7T+/qfmyv5H5Mv5gftZzHqqjx7eoRv6O8fct/TXEnHm0QjpdWE+Lrjr1i/tuiYjOkHL7+4esY9/mVXR+WB+cFG/PYgJRoA0OqNF1ZuLDqaJ6OvV8PGjhXXpGOVf2Y+uCQjinO2tRbwe/tO4f1TxzMWElZG4zw7miQikOOsyr8HhFYWNM2JD6qsVMflx1917rqiYzKml53+l7Vj88Afx/NHFocsR63or7eIwyeD1B6sVXHymaLDebL6OgEY+Z177qhMJl+ilpNpiR2thfzP6rF8onos/5kdxHI/xXI/SUxu5/29xeWNLOS1NpXlI8eq8r8tCTDm0Z158cQqIn2POP+KrA4hbxUdkvklIo54EFC2Rpn7p6LjebL6f1U8YuybY1Plb36ieQTnTJ3G5sYqDo7GOSp6CEFp2hS/XuVCO6d5f5XKinkvUeTjdhxgzC86+eLx+VlwH8aXX+dLZfJ2DdT2MXuNiEMDiHLH9RdW7ik6nier7xMAeRF3nL731X+/aeoEfiKLWerrHOInUMQW/j6geaD1QI1kQeUF6viyFQYa0/HyTQ8tKwV/qUSVs8V7smaj6JDMoxAfIy6iNVG7Dcd1RcfzVPR9AgDwg/pLvuKbzW8uT/eysNRCsSl+/SSkechrKdFQspIQf3ndVee9qeiYjCnS6X9ZPSoklUv2L/4hbdqEvx4lLsJFguC/req2FR3PUzErEgB+9w/3PCfed+k8bTRLg5EN8uk/Lm9mIbRzSosHVyF60XGfWf+mUy797SfR7NmY2eW0i6rHaOTeK7680ceevN1AQ150WOZRCSKOPM0IotdNLKr0dOe/XzZrVso8l69muDvyACL29t+HXGjntPc2KC0aXC7K+6dKUxutbbCZS868qLZE4QLxyW/6xJM2avbm38PER2ieErL2HU7DN/vh7v8jzZoE4Fuv/+IugUuzydYDfjD+xfaApm9oHmjvrZMsqKxwng9XsvC6omMyphvO/IiOZvAxF5U3usiT1utFh2SegE8SQt4OoJeOp5M9O/XvscyqVVI3b0he0s4+EVbOf2P7/qnOTHrTlyR2uNiT19O6ov94mPPv3LJxi70KmVnptIvHDyPEH5aodK54T2g3UbVt/x4XygcNuua+WrM0PDjv2j+UdtEBPVWzZgcAQDZuaefw9cZ9k4hzdhTQxzQNIaQ50VAyIMjbfqphy2s+dfYJRcdlzIF22kXVYwjRRRKVznWRLf59QQSfDLjGvnpbkX/sx8UfZlkCAJCX3daBTP8xGkmQeNb98OYSp2kgq6X4oSRK5pfPHYvdh1+1+ZxXFB2YMQfKyy6qnqrIn4uPX+cTT9aq2+LfF4R4SPCkty2R6G+KjubpmpWvyK//+Dkn/3Rx/K94R2hk1jhjFhDvKC0ZpHHfVBDVc8bnNb5616uu7cus2xiA0y+aeFXAfzoZHhzNW0retjP/fiHOk8wvE/Y9tPm68xf/RtHxPF2z8hV5b2XoltDIP6jNDF+Jig7HHACaB1oP1oiHEyex/8L8icqfn/SJs4aKjsuYp+PUD0yeHfCfjsqDo1kzkKfW5KdfiPP4pExrrLYj1fK1RcfzTMzKBOD6N326nlXyD2vQ7QiIm5UbHXOOZiHk9emkTuT81mD8aZshYPrJSR/SoVMvqv4N4q72pcHRPG0T0obtUvYRcTHxEAzzwGVr0uHPFh3PMzGrV8Z1n1n/X1DeH42URrNJG6Axa4gQDSeEZkZo5zdK4NKF8+ubr7UjAdPDTr+oekau8gYRfVNldJDmeAsNfXVtfM4TcYhPCFkrmx/ue+U1F67+WtExPROzcgdgv6H63k/iuNWXIrBdgNlDlWyyhTghGimdqsLf7KkOvOv4K399edGhGfPLTvrTh4ZOvbh6hsKHyiMDb4oHBmmM1YIt/v3HxRXEe4Twyfvl8L5q+/toZnUCsPV3tjZF9dutPTV84q050CyTNzPyaptoKBmN51cuVuJL1l11zlFFx2XMfhs2/WeSzCv/N+dK10WVwWPTRra/wc+s/u6dnRTxELI2ouHS77xPdhUd0TM16z+ELs8+SuCyaF4J8ZYAzDYalLyZktdTXOLOU3HfOuny9R8uOi5jTtukq/dEh16XDAy9X3xE1m4TsjZg5/12/tKEAAAgAElEQVT9yMcDZI06mmf/XMlGflR0PAfCnFgR1111zlngrnSxH9A8oMF+A85Grhx1ugdOtrJY9fqW8Lfff/01Xyk6LjO36Ecor1vyht+b/5PL3hzFrJMBaNdrtu73udJBg6T7Jvcckd9x2kf/7MRZkQD4ogPohuW/ecRDqtKI55dPQzpd5pgjyc9colkgtHOieSUnCyqHh6n0yKXnHTG1/LzV+3Zd/ePJouMzs985V52z5v8NLX5H6srvLh20dFXIhbwmQbJhwWV0sgD76uk34iJEIkib37jywlUfKTqeA2XOfBJftHlDOQ3hPj8Yj4ZmZnMCZjmJHPFIifZYYw/oNU7k6qq4rds2brGbAuaAO/GyN4xoqXVMnuufuFJ8tktysmwnfvL5lPZuJJl6CaigrgmSMYe+evueiCMZrtCerN2p6v78xvcNXFV0TAfKrK8B2O87G7c0BT0zr6V7ohEbMz/baRZIJ5q42C2M55XfFpQvDYbw+0XHZWafj33gNcvUNy/Jc/16PJycTQiEmkJzAVnldloLPkN75OsgIFoGjbAEoH+Ii4groMo1s2nxhzn4KXzBVeu/lcwrvTivtm0XYA4QJ7jEgxPyetoEblHVv/3+66+5oujYTH874VPnjFJy7xXl93Jhvq9EaFBCO//5eb+0AQ8hwWWjDO34K3xrmBBnqLPeJL1OfIJPYrJG7RaV8M6bzh/5dtExHUhzLgF45eZzTh3P5G/d8pE1rfur1oFrbgjixPnBGBSyansH8EUJ4cuDUfTNrRu39N0cb1OcF23eUG4HfaOgrwRelTxrsJxPtsmb6aMU+glIhvpJVFokE2cST51M1DgS115sRwI9zicDiAh5s/aG+sDgNd95lzSLjulAmpOfupd+ev27G/PiD5Pvz9YtCZgrxAvx/AqhlZFV2zdDuD7z/ssnjLVu/bu3f8mmsZjHdNzmDSMODlPNzxKVP45HK/NDOyerPpmyEgFy8mQnvnUopX3nUtr3alw2hPoUlSZz6ES2L7ioBAgha30vpPmrt24a2VN0TAfanLgF8MtGzztiJ1kYjobiF5CrXQucSxTyZooGxVeiZfFI5ddCPT2zJtK8+zWr/3PbG4/Jtm3ZZh8I87BNusk1nrvg6CDhTSh/ER80sAEn5bzW7rxAPGmCC0OEaIyQ7Oz8dbYUCcMIznYCekxULpO3GkE1fsfWPxv8QdHxzIQ5+2k74YpzXpg796++HEXazi0JmGsExDnEC6qKACENYyBXfPLrjQuP+diXx4sO0RRPjztu4IQ/ffafB+V3fSlaqLkiTtDsGfQTkRxQlBwEhu/9X8RTzyVPmiABaxhQPHERUalE2qjdeWM6eASbJBQd00yYswnApptOiW7eftDGPYtLlxN5solmwPbg5iTxgqvEIJBPtdtR0HsycZ86Yjz/h0//wed2Fx2f6b5XXXr2sbsH/FujnJMzxyo/EA8gQmhlaPZM1wIBAurqqK/hW4dQefC/UN57EnkC6uuAtSopUvmgQZr7aju86G/9y/nD3yg6npky5z9hx1953g2U3akChNZT2c4zs46Ar8REoxXqOyfHyjlfGczCD/eV5eZK1rr1m2+wXYHZ7KQvnDXUqCfHjubh2Fokr207OaO0ZIh8okleT0E5wC8JAih56R7i2nGU97wR13o2vn0woJ0CQfuK7jLB+QiXJGT16j/c+L7htxYd0Uya85+u467YcLK48Il4tLI63dew3TcDgCtFRPNKaFDSPfUfOZHPq4Yvuaxx57+98VrrKjiLrN28YWgoZIcF8a9B9ZxotLLOOSGbaBHSbrwUCCHaA3hK+15DaWwDvnUwiKKuhn1Nd4+4iHioRD458T0huuD6C4b6etzvE5mTRYCPdP/V23YcvGHt4ZrpiRJ7NJ+VRz3mKdKghFZGaGW42D3LDyUvzZv5WeqSecvXHzF+39W39/0kMAMnXrH+mFjC2wLu4mReeT2wLLQyQiPt4neBIKEEBPLydnBtXLoMl85HZHrDQezNpBtcVCIaEAbq93zky+87+PKi45lplloCl132hpG/l8b/zg+d/3ut+6fQ1JIA83MSOVzs0EwJaZ6BjoNsy1SuO3Qq/+zn3va5O4uO0Tx5b/k/5664ZRHneZVXi3CUKqMSu8hFjpCGA3DG/3R0rgmqZIiWUGlR2vfrDN73FjSC4BvTxYP2lT1TXFTGeU/WrF9f0Yf+6MsXrryj6Jhmmn2app3+qXNO3ldyl8fzSivyempJgPkV4uTnEwdbGXkz3x1p2B4H7miJ3JBIeuO3Xv9F2xnoQb+2ecPCpoZTS4HTUjgqE1npS26ZL8eENO8U9xXeGbRTE6CuiUZjuPYykvFXEteOI2ocBSFCfRX72p4ZUXmQkOVo1njZDYcPfYONs7Py/5HskzRt+eYN5SWpbsTrJ1zio5DmVg9gHpN4hyt5/HDSqRN4qL4d5XpEvq6EO31L73l2JRrfsnHLrP8S6UUbNm9wO9JwWOYY9egydfIyVc6IFlTW+NiTTbUIzbx3j/zUo9E+1NWIp15Cae9vUKodiwCZr2FTBQ+sqDxInrYhT//phguG3lx0PN1in6BH2LB5g9sewiXOyx+6ckxes8Fx5nFI57ePOHCxx1UiQiMja2Y/EpXP4/T2PNJvz5sc2b31d/5xVrUQ7UWn3HRKNPazQ5IhqkPthFPBvR44RpysjOaVCM2M0H7E/f0+6ACqrgWuTlx9EdG+1+JrzycKCbgUlRS7LvjMiTiSkQqtiepd0b7a867/X0vmTEdQ++Q8inVXrd9bXjo02nygarsA5kkRJ4gXEOksMEE7/zkPDxD0eoQvIXrHza/73G1FxzrbKKuSkzc/f2VD89d5lZMUVomTw3DSafgkAgoaQg9s8z8NkuEJ7JaMbOolrPnZ/+j0rPCt6e6B5mkTISoPkDVqdYf+9dcuGL6g6JC6yRKAR3HCVee9Joj+fXnJ0JLm/TYnxjwFMn08EDnwAkHJG1kbZI+idZRbROSe3IV/X9SsfuX6N10/Z942DpQXX3PO4nZdVuFkhXf6axLk1MzhgMUI810SIZGgaUDzgAb64m3/sQkibVquQR4qDDeOJJ48hXjqJFw2SIhqRQfYt8THxJWEdrX6D6E09N6t75ZZ1+//8VgC8BiO+8y57xKVi3wlLodWZq2CzdPjpHM8UPY478hqKaGVNVW4Q5RbRjIdbzh+lqK35ZJvm7dkcvfWl22117ppL9q8oZyl+TKcWxKcLkZ1uUNepLAMWKiwtrR0yNHKyZvZIxb92ff71SGIq5FG4/jGEZTGzqM8cRo+S0jjBmC3BJ6Kny/+tTtV/FtvOr8yazv+PZao6AB6Vl76J3Hpwa4cvavT99u6BJqn4RH9BB7eHSj5sov9sa4cHduMHWGiBfX0Vqfua7UHR+8+55Pn7My92/FAxY1LFtWjRq3+rZ+9oM6mTT1asXYA3HRKdNxDiwbw+QBpPLCy3lzY8n7F/YQV6nmuF1aJskq8XxEfVEaz0Lmyl+a076/+fN2bfev+wwIKYQCXJuSln5Ie9EUyV0emXsxAeym4NiptLAl4EkRwPiFvA7iParv8vaJDKoJ9Uh7HcVed+wIncq2rxItDOy/ofrCZVaTzJxE6RYTCz8+pnXRqCSJHNtlqgm4TlTsCenvu5LYjJtp3/p//yHYu+Ojs6UR405+csvCvjlmw/IEBWeNTPRrHGmANwtpouISmeWcLH+38S7VT9za9pa+qs3rRf2yByKXsdVWmGkdwxI4PE2eDZL493S/Avqsej48HUA1o1vi8S907/mXT4Jy8vmsJwBN4wVXnrEmGy7e72NMea9jAIHPgPWIyIdOJAKHTkGa6aK0JtKdzhfEgchuq2xAJqE6o6q3ep9vqsXd/8kPGfmfT53tiZsGJV5+7XFyIspTFZP4wdZI5dG1QqSA64ESOksBRKlrWzu+rBEgkckjkpmfmdBb8zkKvs+A8/0ARkIxcUnJpk6SLGL73EqL6YkKST88RMI9GnMcnZdJmbWec6nHXbxqeswO/LAF4EtZdee75ErmL4vll2nstCTBdIJ1bBeKndwW8g8h1WhRX22jQyel/rKnKHoGxIEocJHOqu1pO7hKIVPiZEx0LmZTFCRpku0ioEvIE4p8/zmmkkk+227XtUTS8yosMafjVEvMAmYMICYeJk7JqyERcCC4g6lYKoRKQslNWAksAFMoK86WzlI8KEilEErshP5h0FvRMH67S16Cd+/m2zj8hQRDXJPMTxNXjiadeQlRbh28ejPoWSIp9zf+iZHiQ9lS9HdALt14w9FdFx1Mk+2Q8SeuuWv9pV47eKE46k8GMKYJMtyaO9veIl1/867jTzjYbawQEh8quTutiEgCU7YrURfQX639UIkUnnbAdWKUqQ4g+WjFiBkQKhwmUp/96/37zSqDsYk+ycKAzSCc8YkFHphd2RZXODocdqx0AnfHCIbkPly4l2fcaSvvOxrcXoC5HXR17Z+lwUQmfRKT12ldDPPg7W/9UHig6piJZEeCTJIGLQyMfiQ8qnRXS3FoFm2IoaBrIf2HhlP09iVB9uDFR5xvfyTJxLHv4bdrLKpFfzftVp0sSvHTewvXhPkePHkYeOv9M5/HTf2/6nB6l9WD14V51Co94m3/Ea7294R8gnZ9p1z4YjcZpz78WgGTyNHxrBRKGUWlO1wbMXeI8UTmiXa39SEQ+PtcXf7AdgKfk+CvPO1VF/9YPJmtCK7O3F9O79ncp/OXf4fsLD3/Z/tV6/4r9aJ1mH/n3HuWanT5ykbfFvSABJKDSRl2ToR0fojR+PCHOUddmrhYHijhcXEE1ELLGb914/tBlRcfUC2wH4ClY6WXr9sAfZY30Op/46Tce+6YzPejhKvlf+S+6HorpJg86XUyK0Fh6CenwC0kmTiOqHwmSTRcIzql3v+BLFReVoTnevCCkg58tOqBeMac+BQfK6Z9a/+7aaPJhEke6r2lFgcaYHtP5ag/xbiSUiadOprT3NyjXVxMEsmgSUV9wjF0RfDLoxEPWqN0SI6++7oLBOb/1v9+c+AQcaNs/f/u3l/36c19M5J7jIidWD2CM6UUShjoNgpJdqK9SJ0KyRSTZIOpSZvtUQXGR+Dgia9R2gPzx1y4YvLXomHqJvbk+Td651+e19teioQSXWB5ljOlFiuRDOI1JR77OvYe8l7H5X8ErSBgEjZm1CYAIUaVE2qiNOeGjN14w+NWiQ+o1lgA8Td/ZuGVM0Ytau2s3x/NKncYlxhjTg4JGSCizLAwQLfkokwdfgkvB5SXQ2fjdJThf2t9x84qs/e9/XXREvcheXZ+BkzcetWMsz+8K9fSIaKh0MAKaqw3oNsb0IE+scadxULKLvHJfpyd+ejASKuBmzRyB4KKyVEY9rbHqNZG6993wZ6t7ojtmr5kVv9pFW3fVea9A9XI/GI+GVj7d9MQYY3qQetRPoNEkUfV4ymMbiadOQgLTo4X7uy7ARSVcHJE16jvEsf6G9w7eXHRMvcp2AA6AXZ/ddteyDWsjTcOLouEkDqm1MTXG9ChRRBMklMhLP0P9BCC4fAGSjyD46aZBfZgIiCMqlcgatbaK/NaN5w9+veiQelmf/er2tnVXrr/SD0SvUyA0c+sRYIzpbdOTA0O0l6j+fIbv/minj5NvPSIJ6BdCVBkga9RA9R9ufN/wW4uOqNfNxuqPwuTevTNtZn8tsceX/eP3UjXGmKJpBAgSBslLdzF16H+lteBz4Jq4bIB+ekd0UYmoDKDfjrPwnqLj6Qd2BHAAPbBlW/24jUf9Rz6VDqclf5wgj9oy1RhjeodDtAIooXQPeXIfaIxvH4prD6AuTO8G9G4yIC4iGYhpjte+6pz+2b9cOO/HRcfUDywBOMDu3LJt6o/XHf6924fkUBmI10rs0DTYzQBjTA9ThAjRCiF+CI3HUD8JUsa3liJEIL15S8BFJZKBhNZU9U7v3e/fcP7w94qOqV/03q/mLKEbThk6Yf3CH0cLysvyyXZnNKoxxvQDaRPih3DpEobv/hi+taQzWljaIL1zy6kz4a9MSJW8VT/zxguHri86pn5iNQAzRLZsrXrCa9t7G/ckiwcQZ7mWMaYfCGiEpAtRV2Xq0LeTVe7GpR7RhF56b4wHymTNFnm7+U5b/J86SwBm0Hdfd80tXuW3mvdN3VJePrK/W2DvpM/GGPMrlE5dQBkJgwQ/SX3ZxdSXfpq8tAPJBqZbCBdb31SaN0hab6Ka/XVjoPIPhQbTp6wGYIbdd/W2Hcs3rrmrPdE+PhmtLNI8iHULNMb0B4+ECnlpO3n5pyA5Ll2Obx8EEoNr0u33SBFHXBmgXa0FlI8Hl/7vb/5pZU9Xg5glLAHogvu23HH3ivOOuCWrZ6/xg8kQYEmAMaZvSBgGVyMk96GuhegALh9F8oHOt1iX6gJEHC6pIAJ51v57TVsf2Hrh6I6uPHwWsgWoi47ffPaxGqLrkoWVxel4E83sNMAY0y8UJKCugfpJBn/2fkpjp6FxhpJNXxWcWT7u1FPlrdrWEMLbb7pw5M4Zf+gsZjsAXbRryx0PLNu4+ht5Lf+1yvKRhflUu+hjNGOMeZJ+vtUveLKBH5IN/gTJR/CtQ6ZbCGcz9nSfDKKak6etG9H2b9904fztM/awOcISgC7bteWO+5afu+b2dLJ9dHnZ8NLQzNFgxwHGmH4gCDGiZTQaJyQ70Ggfki2k1FqGCwm5byEH+OtMfEwy7EnrjXuc43dvuGDEGv0cAJYAFOC+q++4++ANR9yRTbZfFo2U5qOI5tYsyBjTPyQMgORo/AAaTTDl2mi+iFJ7BGT/bsAzHygkPiYZSGhO1HY69EM3nD/0pQPyAzC24BTpxM1nvyAP/rp4Xnlh3kgJbWsWZIzpLyI56mr8zNUY3f02Vux5M5k0UWS6OPDptxEWn+CTmKxRq+Pcm29878BnD2jwc5wlAAVb99n1x5LxhfLSoRWt3TU0t6IAY0yfkYwgGUhG1Ho2ydi5lCZOQzRCfR19GsVO4mN8kpA16iFodtLW98377gxEPqfZEUDBdm2+/YGlG9fcnE+lL6gcMm9JXk1tjLAxps84vMYgKXm8h5DshDBA0lqFz2Jy355+23xy75ziY6JyQl6fqh4SfrjxCxeuvmEmo5+rLAHoAfdvuWPHweuP/Ek62TwuWTK4GFU0tSuCxpj+oQBaAnUQ7UPjhxgr3Us7H2Wo2Zkl0DkSePwkQHxMXElo1+p7XAgXfu7C1Z/uRvxzkSUAPWLX1dvuPnj96h8ylb1URUbxrpdmbhhjzJPSmSoYo8n9PDT8HXJfZV7zGCSbB8TT/QIePREQH+NLCWmtNuY0/NUNF867pNvxzyVWA9BjlOOiF1658uo8cWf52JM3MjsSMMb0odBpHBQ9hGsezvDd/w8JZdS1pncCfvENR3yCi2PyZrUpgT+64cLhvysm7rnDhgH1GOH72Vfy+m+Vm/k/qRd82dskQWNMH3KIxrhslJA8wNRhb6e56DLUT+KyCujPN6CdjzvV/s1G+xD+ff3bnztkw326wFaWHnXaJ889bGKQt0TD5fMB8lqb6fkBlrQZY/qIA2kTon24dDHJ+KsojZ2Nbx1EiFtIpMSDZdLJybGFuv3tn3nf8+2qX5dYDUCPuvsLt+9bvfGo7zWb6cLQyg+PBpMSItYwyBjTZ5T9UwU1GkOjMUK8B5ySsJJkIKI51dgRhdZFX7zwOf9YdLRziS0kfWDd5vXno7zTV+IlmgVrGGSM6V/SJiQP4WUhw/d8DDe1fFyl9o4b3jd0RdGhzTWWAPSJ46467wxBP5QsHDg2m2gRUksCjDF9SBRX7vx7qMk3fFx+y7+dd8VdRYc1F1kC0EeOv/zc09XLxeWlQ+vaY01CK7OaAGNMX4kGEzRX8mbrxvZBn3vLj87knqJjmqusBqCP7Lrm9u1Lzz3q9rzeHvEjpbW+EktozNz4TWOMOZDieaXpxT/7aoA/u/Xs228rOqa5zHYA+tCLrzlnsab+0hxeJZWIkObWOdAY07PECa4SkddS/n979x9bV3neAfz7PO85517bN87FBAhplNGUZjRQxggEBohFHaL8KFBM7ZRkoLJ1P5BabRraD6mToEJIQ2J/dFOHSodgYRCwmxRC+CHGGKWZ+GmWZVlGM4rSYGUhuGl+ONf3nnPe99kf59pJSgohJLm27/cj3VzZvkkeW7bv977vc54XwBoR+9vXl65+qdV1tTsGgCns0od6v70vkb+KOuLE8lD0BXBmEBFNIuIUriNCyAJ8mt+T5vW7/mv5U7taXRdx/3hK05/uvDMEudLXsrdcRwxXilpdEhHRBHGCuFpCyAPCWH5PlJXv5JP/5MEVgGngvIG+xfDhtqg76ZfYIds5xuZAImodATR2QKzw+7KNovb3Hm71f/QPjrS6NNqPAWCauGCgb6EP/k8A+XpySpdmPx+D5ewLIKLjS1Sg5ahY+t/deF4cvrNu6aq1ra6LPogBYJpZ/Fjv3aLuL5A4mBks9bDAxgAiOvYkUmis8A0PC/bKmb/Ibl1x65r1ra6LDo3LxNPMa0tX/+X8XfXfyevZDnECSXiYEBEdY9Js9uuM4cdySAj/OPTW5y/mk//kxmeGaer8Vb3zkeIWE/nr8qkVNN6vcUuAiI4JLTkkszpRHx7dYbDbO0Lp0XXLH2Gz3yTHADCNLXrkmlkiST8Ef6Cd8TkiQBjLuSVAREdDkEhVyxF86oHcvwDYvfGwW/vynw3WW10cfTQGgDZw4WO9l0kut2UOX3BdcWJpQMg8rxQgoiOm5QiiglDLdsV5WGtJuPvl/ic42W8KYQBoE0/eds2sb59fut1gvxdXks6QeoQsAMbVACI6fKICiR00VmT70m0ut+++unz13wjAPcYphgGgjfQN9OmWzL5qkd1dOqUyN9tZXCrILQEiOhyiAi05RN1lpNtHX/EWvvXmsh++0Oq66MgwALSZhQN9Sae3iyB2q5ai/qgrRr435ZYAEX0oTRy0HCHf0wiA/YML8v1Xl63a0Oq66MgxALSpxY9ev8CL9IvJNa4jWqylCPmeBlcDiOgDokoCCwZfyzYi2P0+cv/MqX5THwNAmzt/5VcuMrG7JNIlGissACHNeagQUbtrjvOVcgSr5wiN/BVTuXto6arHW10aHR2u1QVQa21btendk5f/+hMuk7GQh0WaaKkYHMRsSNSWpNno57QIAAL4fdkKzd033lj+g1daXR4dPQwAhO2PvVVfcPUFr6bIB8y80yQ6P66WYZmHeS4FELUTiRRRdxkhD7Axv2bh9sbXuyrxg/+ybPC9VtdGRxdf5tFBzl953Vxx0c0WcKUBF8YnlKN8N3sDiKY7UYF2RMXRvQ0/DMiABrv/9WWrNrW6Njo2GADokM57rPci87JUFF+Lejq6reERxjIGAaLpRgBXjiGxIt/TqJUMT3vYU5lla4eWPclGv2mMAYA+1HmP9P6pqNwusVYhxbcLBwgRTQ8SK0QVgME3/IhCVtz/o7E7z773Kc7xbwMMAPSRfnbr1dUbL07+vBHpN0ondnTnoyksCzAzXi1ANNVI8YdEAleO4Gs5EMIKE73rjf7Bza0uj44fBgA6LEse+HJ1b1d8loawHE7+OJpZRqjnCHUeLkQ0lUikiGeWARiykbG1sPBdRNH61/sHt7e6Njq+GADoY7lgVe/cPJVeMVwPxWLXGXdaMIR63urSiOhDSKSIu0vI9jRgedgM2CvBu++8uXzwzVbXRq3BAEBHZNFDveci0j4Ru0xiPU87YljqERqe/QFEk4g4gSYOFgyh4Uch8ixgK3uqe5997ovP1VpdH7UOAwB9IoseXTpfxH9PnVwmkcK8Fb0Bwbg1QNRC4hRwAnECywJCHjY5tW+91r+ak/wIAA9/oU9o6KuPvVMVuWHJu7XPaT27z2ceSU8HtOQgKoyYRC0gKnAdEUqzK/Bj+R7LwzcR0t/mkz8diL+e6ai5dOV1c0c1WqIBX4RiSdLTMdeCId+bwnIeFU50jAVxqlG1BMQO6f/tXTcjw4sdqj/eMbOxbuiaJ7ncTwdhAKCj7jcf7p0XRXK5QZbCsFCczIkqCXw9Q0g9Lx0kOso0cXAdMfJ6BtTDtjiEV1Jx976xbPD5VtdGkxcDAB0zvzXQ15N7f62J3ATgC6ICiR1gBssDewSIPgFRgUQKiBTndpghCF6rpPadl3539SOtro8mPwYAOuYuvv/aStrlLjfocnHaG1Vi+LEc5gNgYBAg+jhUIAKIajG7v57DUr/WBA+Xu+rPrvsSp/jR4WEAoONm0UO9syXCJSZytQJfTk6pVH0thd/HMwaIDkfR3BfDzUjQ2D5ag2GNwZ5MnHtxLrB9sH+QzTZ02BgA6Lg7d+Da08Xii8RwnQHnxpXkNE0c8tG06BEgogniFOIEbkYCC4Z8V30YkDcF9mTwWDe0bNVbra6RpiYGAGqZRat6Z0uGawG5EcA5EFTdjBKQB4TUT2wRELUdATRSwCmCD7AswJmNqOr63OwJU10z1D+4tdVl0tTGAEAtd8HTV3b7vZ1XwXCTiFwFV3xbigosGMwbpwtSexCBRoJikx8IDQ8BNnrFlpNr9v1nv7Z6TatLpOmDAYAmjZtWXN45d0dp3r+dGl2ROl3qIr3QdcYIjbx51QBQdA22ulKio2j8dD4p5vW7rhi+lsE3/PrYh5WXDfvH66fWh++5mWN76ehiAKBJZ8l3+yp7TgjzVexsgd5iYkuSEzvVgsHvY58ATR8SNff3O2Jo4tB4fx9guA+Qp3KVrbOAd57vH9zT6jppemIAoEnt3JVfucRZuAQqiwKwUIAzklmdGhq+OI44D9weoClFnEBLESTS4ns49SmArRDZZAivRxEefPWG1cOtrpOmPwYAmhLuMOjagRuugNlSQC8DrApBp5YiCNDsFQhFvwDRJDM+tEdiRUgDLPM5gBEBNhhsixj+ddbMsQ3sFUUAAAcJSURBVMefueqZtNW1UvtgAKApadHK3mWiegvMLnVdcWJ58wRCGBBQTBs09gtQiwgAKfb1oQKBAE7gyhGyXfWtIrZCvQy+umzVhlaXSu0ranUBREdivnOPbgFeMMnn5aPhQoF+1gRfirtLp2ms8LUMljdXBThkiI4jUdl/7X5nDPMB6e7GdslszafeT5+qlKINQ2WMbFo2ONrqWqm9cQWAprwlDywp7+066WQJthASzgb0YsAWwzA7rpYBAfy+jM2DdMxMNPOVY0CAbHcDAtthhjcB/BhmGzVzG167eXBLq2slGscAQNPOBQPXLfTBXW6QTwtwFgQLYJgTzSwpAhAyXxxPHIyrA3REDtzTBwSW5ghZyAGMwGwzRDeI4Wdw+fOv9z++vtX1Eh0KAwBNa0seWFKulXuuCCI3CXCtNbe9xClEi2ErxYFEza0C5gE6BFGZOISn+AMIWUBzLkUNwEbA3oHiqVIpf/zfr1vD5X2a9BgAqC188++uTOY1ojlPnxrP2RXrNc7scgHmuxlJFSLF6OHxSwonBg8yELSt8QY+AJD98/glKoJjtrtRB+xxM/mRurCpa9/M1/amST70R/flLa2b6GNgAKC2s3j19T0hxZwAqUQqF/lgnxGTC11nfK6rlmDFtdkwb8UEwpwHrLUTcQotOWjSvJUcxt7dPSKQN80wLA7/672ssxC2lmO34+X+wXqrayY6EgwA1Nb6Bvp0i0/nBCRnO/XnlTL7TD3SBQGYI0CPJq7iOuJiiyAv5gwUN4aC6UATN/GqXiIFnCDUMuRj+TY1vGOCnTBsM5EhkbAppG5HvYStm/oHeb0+TXkMAES/5OJ/uv6SsZKe4yCfNtgCCM6BoRtF/0CnxgqJtNgm8M15A2wonLwEEGnu4Y/v5TuBGRBqWQBQA1AXIFVDGgRvB+AZhb0U1G0e4ihemqYYAIg+wnkrbzjHDGer4nMGnAFgoThZIJGDhdD8IZJmu0Czb+DAXgKOKj4+xofvABOn6U0ctAMAxZgowACNXXHIVLDVAIa82eaqZZte+OHerTL4Ihv4qC0wABAdhr6BPv1JvVzuKtfLqfOJZnaRmfsNgZ1uggUAFkTVcrfGDpbmB20VmD/U6oAddEcfgxz6DXHSvOn++5KD35fBj2Y7YGEzIJtN5X8qWXj7jF/kwxtOKb0DoMZ9fGpHDABER2jx6ut7kCazoKEnDzbrxNTPayg+tS/S2RIwD4p5AOa6StLpKgmQ+v2HFxlgeUDwzSZDBoEPJU6bS/nNoTuRFu8XgSQOiBT5rjqsnu8yYNiArQC2zsxsB4B39zobhspIQNi5u7tr5O2rHuayPrU9BgCio2zBQN+cirf5KphvhnmRhc8q5LRM0QmgCkMEQQSgKioV7YqLvenmQUbFikEozjRAMaOguMe0204Q1/wVJM39eWD/fAYIJCr27MNYsaoCM1iwPQbsLB6BVIFdUZDRXMPbQfBTCdgSIFtQSd8ZuubJkRZ9akSTHgMA0XFggF74gxvmp5md40wig1TU2efNcIZAzgJslgHj15BHAJLxC9Elat5LcaAMDuwrMBRNiGjONJr4WPNH2+ygN/c/rtmroDKxIvEB40Nvgk1cF/+BhxkOGo4z8U4IoBNzlvbvy4/fjz/c7w8340EHNvF1CAByNQQINpnIqAEpzDbC7D8BIIjummXZ+udufILH5xJ9TAwARC3UN9Cnv//ynuqDZ5Xm/6RbZzmTXIIuNMP5IqgaoAYsBAAB5kTVcmK+GGM88Wwc7MDn+wNWCX7Fk7vsDwAiMhEgDmXi4+Od9L/qoXqIv6vjRWF/mCj+UUgksCzA1/JtzU9iOyBbAEQI2AixRhDs6TRdf8OW0S2XN2Zsu2Mh8jP7zsQdcgevwSQ6ChgAiCaZs1fc1Oni3VWEKEIZcJl1A0BPXXqqPszKgmDbDJ2bOVMX9ETz4XSo5DCkEMwFMBdAHUCAYT4EPQAOvG491cRV4hM60HhvNI26S0k0I2kusaM5+U6Q724gH03z0uxKlI7UYHkYBZD8UrlR8//ajGIFI2reUjG8ZWYpgDJEaqb23yai1bofOakhOzMVDHfZljwoIo3qZlILzmuaxXuSOAtZvZxvuPmh2jH9YhO1MQYAoinoD7+3KBpatAhu6/vdvhbmWFTOg8/zWOVkqPVAQh6CCwLMBqzbBLmYFK+cNeQWpCpiJ1qQd0XQA5GZFhBEQ7CgKmaROPt5gOxCkF8T2HtmMip68Gt9AaIApAIMB29BnahpUM0tALpVNOQBSIJG9e597w+/3XUShtlxT0REREREREREREREREREREREREREREREREREREREREREREREREREREREREREREREREREREREREREREREREREREREREREREREREREREREREREx9D/A+Q+Kph+1HR1AAAAAElFTkSuQmCC;" parent="PxfYsGnpCf7-yWaWJEkX-32" vertex="1">
                    <mxGeometry x="139" y="50" width="52" height="52" as="geometry"/>
                </mxCell>
                <mxCell id="PxfYsGnpCf7-yWaWJEkX-53" value="" style="rounded=1;whiteSpace=wrap;html=1;fillColor=#dae8fc;strokeColor=none;perimeterSpacing=1;arcSize=3;" parent="1" vertex="1">
                    <mxGeometry x="800" y="103" width="620" height="370" as="geometry"/>
                </mxCell>
                <mxCell id="PxfYsGnpCf7-yWaWJEkX-70" value="" style="group" parent="1" vertex="1" connectable="0">
                    <mxGeometry x="800" y="103" width="330" height="370" as="geometry"/>
                </mxCell>
                <mxCell id="PxfYsGnpCf7-yWaWJEkX-54" value="" style="rounded=1;whiteSpace=wrap;html=1;fillColor=#f8cecc;strokeColor=none;perimeterSpacing=1;arcSize=3;" parent="PxfYsGnpCf7-yWaWJEkX-70" vertex="1">
                    <mxGeometry width="330" height="370" as="geometry"/>
                </mxCell>
                <mxCell id="PxfYsGnpCf7-yWaWJEkX-63" value="Log In With" style="html=1;shadow=0;dashed=0;shape=mxgraph.bootstrap.anchor;fontSize=26;align=center;whiteSpace=wrap;" parent="PxfYsGnpCf7-yWaWJEkX-70" vertex="1">
                    <mxGeometry y="24.66999999999996" width="330" height="47.555" as="geometry"/>
                </mxCell>
                <mxCell id="PxfYsGnpCf7-yWaWJEkX-64" value="" style="shape=image;verticalLabelPosition=bottom;labelBackgroundColor=default;verticalAlign=top;aspect=fixed;imageAspect=0;image=data:image/png,iVBORw0KGgoAAAANSUhEUgAAAgAAAAIACAYAAAD0eNT6AAAABGdBTUEAALGPC/xhBQAAACBjSFJNAAB6JgAAgIQAAPoAAACA6AAAdTAAAOpgAAA6mAAAF3CculE8AAAABmJLR0QAAAAAAAD5Q7t/AAAACXBIWXMAABcRAAAXEQHKJvM/AAAAB3RJTUUH6AMDCC8ehdayxwAAO7RJREFUeNrt3XmcXXV9//HXuXdmkkzCScKWC0LYBRFQQREFN5S6tbXah7VqVVyx1o0qvdpWq63+9KpVqq1LXau1glVxQaso4Aqo7PsqJIHkEpJJcjOZ/Z7v74/viYaQSWa5M3d7PR9eJ2Sd+zln5vv+fs93SZDUMUrlWpL/sAAkQDH/mOQ/NxUByHb4uP1FtZIGqyx1hsQSSC3bkBeAXmAB0J+/FgMpsBewJP+4/bUYWJT/voVAX/7fxfzv6J3iPz8BjOSN/jAwlv/3MDAEDALbgK07vWr5zw/lH8fyV2ZwkAwAkmIDX8gb5cXAMmBvYAWwH1Da4cd756/tDX5/3rD35q9Ck99KAMbzhn58h4CwFdgEbAQ2APcDVWB9/hrIf30bMFKtpJl3hWQAkDqpkV8ILAX2Bw4EDgZW5q8D859fnvfqt/faO9l4PpqwNQ8B64F1wBpgFbAaWJv//BZg2HAgGQCkVm3oE+JQ+3LgYcChwJH569C8od8n78X3+XW3W2P5CMLGPAisAu4A7gTuAe7Lg8OQjxUkA4A03736JXnP/TDgGOBY4Ki8V79f3tAXrVZD1YmPCx7IRwtuB24FbgHuJj5eGKxW0rqlkgwAUiN69guJz+MPB47PX4/IG/t9819X84zmIwKr80BwPXBjPmJwvyMFkgFAmmrvPiU+pz8OOBE4Ie/dl4jD/Gp9I8Q5BHfmgeDqPBTcA2xxToFkAJANfoE4Qe9Q4NHA4/OPhxNn3juM3xky4oqDu4Frgd/mH+8ENhsIZACQOr/BT4jL6A7Ne/enAI8FjiBO4CtYpa4QiCsM7spHBy7PP/6OOI/ARwYyAEgd0Oj3EJ/hnwCcBjyBOGlvX3v42mGEYCNxDsHlwK/yEYJ11Uo6bnlkAJDap9HvJw7jnwI8Ne/lH4IT9jQ1Y8SVBlcBPwMuIz4u2ObogAwAUms1+Alx8t6xwFOApwGPIi7Jc1hfsxHy0YEbgJ8ClxInFG42DMgAIDWv0V+WN/Sn56/jiJP6pLmyFbg5Hxn4MXANMGAYkAFAmvtGf2ne6D8TeHre619iddQEQ8SNiC4BLiJOJNxkGJABQGpcw784790/M38dT9xtT2qlMHBjHgR+CFxfraRbLYsMANL0G/1e4l76zwD+GHgccame1Oq25KMB388Dwe3VSjpqWWQAkCZv9BPikr3TgD8jTuh7mPep2lQgbkf8C+A7xEmE69x4SAYA6Q8N/yLiOv3nAc8h7rXfZ2XUQSaIBxj9H/Bt4JpqJd1mWWQAULf29g8gTuR7IXAqcftdqdNtIW449A3iSoJ7HRWQAUDd0PD3AY8EXkAc5j8a6LUy6kJ14A7ge8A3geuqlXTEssgAoE5r+JcCTwJeTJzYt79VkX5vI3GOwNeAS6uVdMCSyACgdm70E+IkvufmDf/JeKSutDujxBUE5wHfBVb7eEAGALVTw18EHk58tv8XwDF48I40HRnx/IFvAOcDN1cr6YRlkQFArdrw9wKPBv4KeD5wsFWRZm0tcZ7AV4Ar3VNABgC1UsO/EHg8cCZxuH8/qyI13CbiLoNfBH5VraRDlkQGADWr4e8nbtrzSuBZxMN5JM2trcTzBz4PXOJ+AjIAaL4b/icBrwPOwH35pWbYRjye+D8NAjIAaK4b/kXAk234pZYylI8IGARkAFDDG/4FxJ36zgKebcMvtWwQuBj4FPDTaiUdtiQyAGimDX8P8RS+1wN/is/4pXawlThZ8JPAZdVKOmZJZADQVBv+AnG73rOI6/id1S+1n03ABfmIwDXVSlq3JDIAaLKGPwEOAV5FXNLnOn6p/VWB/wY+C9xRraTBksgAoB0b/32BFwFvIB7H670hdZY7iRMFv1KtpFXLIb/J2/AvIq7hPxt4AtBjVaSOlQFXAv8GfLdaSQctiQFA3dfwF4GT8ob/T4DFVkXqGiPEiYIfBS73nAEDgLqn8V9JXMv/aqBkRaSutYF4xsB/AL9zfoABQJ3b8C8BXgD8LXCC119S7lbgXOC8aiXdYjkMAOqchr8APBY4B/hjYKFVkbSTMeAnQIW4f4CPBQwAavPGv0Qc7j8LONCKSNqDB4gHDX2yWknXWA4DgNqv4e8j7tf/98ApQMGqSJqiAFwNfBC4sFpJRyyJAUDt0fgfRpzd/3JgqRWRNEPbgPOAD1cr6W2WwwCg1m34FwLPA94JPMqKSGqQW4EPAV/3tEEDgFqv8T8C+DvgpbimX1LjjQDfBD4A3OySQQOAWqfX/w/A8VZE0hy7g7hS4DxHAwwAal7jf1je63+ZvX5J8zwa8L/A+50bYADQ/Db8vcCzgfcAj7EikprkZuBfgAuqlXTUchgANLeN/wrgrcDrgWVWRFKTDQJfBD5UraT3Wg4DgBrf8CfE0/reBzwF1/VLah0BuAJ4F/DTaiWtWxIDgBrT+C8GziQu73uYFZHUotYD/wp8xjMFDACafeN/OPBu4C+BBVZEUosbB74N/FO1kt5iOQwAmn7DXwCeDvw/4kE+ktRObiIuT/6+BwsZADT1xn8J8QCfMrC/FZHUpjYBHwM+Ua2kmy2HAUC7b/wPBd5LHPLvsyKS2twE8ZHAP7pngAFAu274E+BJxB22TrEikjrMdcA7gIuqlTSzHAYAxcZ/AfBXec/fWf6SOtUDwPuBz1Yr6ZDlMAB0e+O/D/FZ/xtwO19JnW8E+BLw3molrVoOA0C3Nv4PBz5IPMzHjX0kdYsA/AR4e7WSXm85DADd1PAnwJOBjwInWhFJXepm4Bzgh84LmH/2Oue/8e8lPu//io2/pC53LPEcgdflc6HkCEDHNv5LgLcQj/BNrYgkATAEfByouF+AAaATG/8VxFn+r8T1/ZK0szpwHvDOaiVdYzkMAJ3S+B9FPCDjj625JO3WJcBbq5X0BkthAGj3xv9xxKEtN/eRpKm5HnhztZL+zFIYANqx4U+AZwLnAkdbEUmallXA24ALXCEwN1wFMDeNfxF4CfB5G39JmpFDgE8Dr81XT8kRgJZv/PuAs4gT/pZbEUmalUHisejnVivpsOUwALRq498PvJ24zM9tfSWpMUaBTwD/Uq2kNcthAGi1xn8p8G7gjbjMT5IabYK4adDfVyvpBsthAGiVxn9f4hDVq4CiFZGkORGA84G/rVbSdZbDANDsxv8A4CPAi62nJM2L7xKXCa6yFAaAZjX+BxOX+b3AakjSvLoI+JtqJb3TUhgA5rvxPwT4D+C5VkOSmuKnwBuqlfQWS2EAmK/G/0jgk8AZVkOSmuoy4HXVSnqTpTAAzEfj/xngdKshSYYAA4CNvyTJEGAAsPGXJBkCDAA2/pIkQ4ABoK0a/0OAz+KEP0lqpxDw2molvdlSTM7TAHff+B9MXOpn4y9J7eOJwH/ko7cyAEy78T+AuMmP6/wlqf08FfhUPoorA8CUG/99gQ/jDn+S1M6eAXyiVK4daCkMAFNp/JcSD/Z5idWQpLb3J8C/5h07GQAmbfz7iUf6vgonSEpSp3gR8IG8gycDwEMa/z7g7cAb8UhfSeokCfBK4F15R08GgN83/kXgLODvgD4rIkkdp5h38M7OO3ymIhv/WkJ83v8JYLm3hCR1tEHgHOA/q5U0cwSguz0T+JCNvyR1hSXA+4A/dwSgu3v/JwP/BRzj14QkdZXVwJnVSnqpAaD7Gv+jgC8Dp/h1IEld6QbgZdVKel03vvmufARQKtdWAB+x8ZekrnY8cG6pXFtpAOiOxn8J8F7i5hCSpO72VOCDpXKt6+aBdVUAKJVrPcBbcKMfSdIfvAh4Z6lcW2gA6FwvJq717/V+lyTt0Ba+EXh1qVwrdNOb7pbe/1OB9wOp97okaSeLiFvBP6db3nBXDIOXyrWHA/8DnOQ9LknajVuAl1Yr6TWOALR/478P8EEbf0nSFDwC+FA3HCHc0QGgVK4tAMrA87ynJUlT9Azgn0rl2mIDQPv6K+ANuOWxJGl6zgTO6uRJgT0d3Pt/MvAeYLH3sdS+QgAID/65/P/Cjv/90N+2e8mDPvzhx7v4+Z3/YOIi4m7QB7wDuA34fie+wY68jUvl2qHA13CnP6ntGvmQ/3fYoTEvFKCYJPT1QF8PWV8xKSzqhUV9SX1hD6Gvh2JvMUkW9kCSQH9fMlFIeNBJb+N1iiPjoQhQDzAyDlkIjNeZmKjDWD0koxMUxyZgvE6YyEKYqJOMZyQTGYQQyAJkYaegkcRvpMkOP37QN1nTQru7AXhRtZLeYgBo/cZ/CfDvwCu8b6XWbewf1NAn0FNIWNgL6cIk7N2fhP32SpIDlibZ/nsVCqW9kmzfJUmydFGSLO9P6v19FBf2JsmiXup9PQnFhGIhiUEBoFgg7PzNLQskWfjD55CF33+s1zMYjwGgMF6H8XrIRieoD42FwtZRisNjIWwbY3zLcChuHg7FwdEwsWU4sGko9GwdoT44GqiNhOLwGNnIREhGxknqGUxk4UFBZnsWSB4UFBxRaAMXAK+pVtIBA0DrNv4JcDbwgXz4RlKrNPjbe88J9BUTli4ilNJCOHSfAkfsV+DwfQth5fIkKaUFlvWTLFmQ0FskKbRo65iFQD2DiTphZIIwNBYKw+OhvmWYZNNQSLYMh4n7a6F3YChMrN+aFTYMBgaGApuHQjI4Stg2FgpjEzBRjyMLDxpN2CEgOILQGpcb+H/Ae6uVdKJT3lSnzQF4BnHWv42/1NRGP/bwsxAbskV9CSv2SsKR+xXCcQcWOe7AAkfuV6CUFpJ0IUmx0H4NXSFJKBSht0iyqI9keX8CUNzht2zfcbQnDwtheAy2jQVqIyFs3BbChsFQX7clFO+vZfW1tVBcXwvhgcGQbBkObB0Nyej4g0cRksRw0KzLDbwJuB74X0cAWq/3fzhwPvBY71WpOY3+9mH13p6E/ZYk4RGlQnjsyiInrizy8P0LyX57JcmCHhutyUYURsYJQ2OBTUMhbBgMYd2WkNy3JQurB0KydksWqltCYcO2wNaRwPA4ST0fOigWrOk8uQX4i2olvdEA0DqN/2Lic/8zvT+lee7p50P7C3sTVu6dhJNWFsNpR/Rw4sEFDlpeKCzstXFqRJ3H64RtYzCwLbB+a5at2RSSVQNZuOS2Ca5ZUy86GjBvvgW8ulpJN7f7G+mURwCvBF7ifSnNU6MPZBn09SQcvDwJTzy8J5x+dJGTVhaT/fdKCvZIG9xTiysgkr4eWN6fcMR+heIT8l9LFyZjV62uF4uWfL48D7i6VK59oFpJMwNAc3v/p+Jzf2leGv7tk9X2W1IIJx9aDM9+ZA9PPLyYHLDURl9dowi8FbgK+KEBoHmN/wrgn4GDvCeluWv46yHO3D96v0J49iN7wnOO6+HoFYWCz/PVpfYF3lsq126pVtJVBoD5b/x78hT2NO9Fae4a/v7ehJNWFrM/f0wPTz+mJ1mxV1LwebPEycA7SuXa2dVKOmIAmF/PBV5PlxxpLM13w79kQcKpRxTDSx7bG047sidJF9rqSzt5OXAZ8BUDwPz1/g8D3g0s8/6TGtfwZwH6+xJOO7KYvfzxfZx2RLHQ32fDL02iH/iHUrl2dbWS3tRun3zbnXKUH/H7d8CJ3ntSg3r8WaBYSDj1iJ7w7y9amH3mxYsKf/SInkJ/n22/tAdH5yFgiSMAc+/5wMu856TZy/It5o4pFcOrntgbnndCb7K8P/H4bGl6/hz4GfAZRwDmrvd/JPBOPOJXakivf+/+hNc/qS/7ypmLOPOUvsLyfof7pRnoA84plWsnGADmpvFfAJwDnOC9Js2u119IEp58VE/47EsXZe96zoLCIXu7iF+apSOAv2+nRwHt9Ajg+cBLvcekmff6swD771UIrz21N7zs8X3J3osd7pca3E5dSps8CmiLL/78oJ934NC/NOPGH+CJh/eE/3zpwvCmp/YV9l7scL/UYH3A20rl2nEGgMY0/r3EDX8e5b0lTV89CyzqTXjNqX3hMy9ZyBMP7ykUHPGX5spRxPkAi1r9E22HRwDPJG62IGmavf4swMHLC5xzxoLwgkf3JH1u3SvNhxcCFwFfdQRg5r3/EnHof6n3kzT9xv9xhxTDp1+yKLzoJBt/aR4tAt5eKtcONQDMrPFPgNcBT/RekqbX+CdJwvNO6M0+9eJFPO6QYuLe/dK8ezTwpvzcGgPANJ0MnIV7/UtTloVAbzHhNaf2Zh96wcLCSpf3Sc10JvBUA8D0ev9LgLcDB3r/SFNv/Bf3JbztGX3h75+1IFneb9svNdnexAmBexsApu4FwB9770hTbPyzwNKFSfiHZy/I/uYpfcmiXsf8pRZxOi26h03LBYBSuXYIcDaw0PtGmlrPf1l/Et79nAXhzFN6C71F236phfQAbyyVa8cYAHbf+BeA1xInT0iaYs//vX+8MLz4cb2Foo/8pVb08DwE9BoAJvc44FXeK9LUev7pooR3PWdBeOGJPTb+Umt7MfAUA8Cue/+LgLcAB3ifSHtu/Pt7E/7ujAXhJfb8pXawN3B2qVxrmX1tWmkE4NnAn3qPSLsX8qV+b3xqX/aKJ/QmNv5S23gGcZK7AWCH3v++ee/fw36kPTT+AC87uTf76yf3JX1O+JPaSR9xLsBBBoA/+EvgVO8NafeNfxbgWY/szd5+Rl+hv8+lflIbOhF4pQEg9v4PA14PFL0vpMllAR59UDG8+zkLkn0WFyyI1L5e2QpHBjf1u0i+3/8rgUd6P0i7afyzwAFLC+GfnrsgHL6vD/2lNncYcFazzwlodjfieOAV3gvS5EIILOxNOPvpfeGJh/fY9Zc6w4uAx3dlAMiTz+uAld4H0uSNfwBeeFJv9pcn9RZ86i91jP2Avy6Va03b9baZvYmTgb/wHpAmlwV4zMHF8Nan9SULe239pQ7zJzRxc6CmBIBSubaAeNTvfl5/abLGP7C8P+GcZyzgoOU+95c6UJqPAjRlCXyzRgBOxU1/pEmFEEiAV5zSlz314S72lzrYGcAfdUUAyLf8PQtY5nWXJuv9w0kri+FVT3SnP6nD9RNXBKTdMALwFOK2v5Im6f2nCxPe/LQFoZTa+ktdoCnt4rwGgLz3/xpgL6+3tKvGP/b+/+zRvdnpRxdd8id1h4XA60rl2rJOHgF4Ck161iG1S+//0H0K4bWn9ia9PvqXusmp8z0KMG8BoFSu9dv7l3bf+BcKCS9/fG84eoWtv9RlFgCvmc9RgPkcATjN3r80uSzAox5WCC880QX/Upd6IvHI4M4JAPlOR6+09y9N3vvv60k48wl9YYUT/6RutRB4dalcm5e2cr5GAB4PPMtrK03e+z/5kGJ41iN7bPyl7vZk4GkdEQBK5Vov8cCfZV5Xade9/4W9CS97fG9Ytsjd/qUu1088Lri/E0YAHgM812sq7Vo9wOMOKYbTj7b3LwmA04EntHUAKJVrBeAlwP5eT2nXvf8FPQkvOqk3LLX3LylKgZfnI+htOwJwNPB8r6W0a1mA4w8shKcf47I/SQ/yLODR7RwAXgis9DpKu+79FwsJz390b9hnsTP/JT3I/sCLS+XanH1vmLMAUCrXDsoDgKRJev+H7p2EZx7rs39Ju/RnwFHtOALwXOBYr5+0q95//HjGsT1h5XKf/UvapcOYw8focxIA8q0MX0xzThuU2iECsLw/4U+O6yWx/Zc0uReWyrUV7TQCcBpwstdN2rV6gBNXFrPjDiwYkiXtzgnAGW0RAErlWl/e+1/kdZN20fcPgd5CwnMe2cOiPnv/knarF/jLUrm2uB1GAI4Dnu41kyYLAPCwZUk47cgeiyFpKk4DHtsOAeD5wAqvl7RrWYBTDiuGlcsTh/8lTcVS4lyAhn7PaOhfVirXDgSe57WSJuv9Bxb0JjzjmB6KLv2XNHXPBg5v5RGApwOP8DpJk/f+D16ehJMOcec/SdNyeB4CWi8AlMq1RcSNf3ywKU06AgCPXVkMB6Su/ZM0bS8olWtLW3EE4ATgVK+PNFnjH+jtSXjSkQ7/S5qRx9LAJfaNDADPA/b2+kiTBABgxV5JOHFl0WJImokl+ShAQ9ruhvwlpXKtBDzHayNNLsvg2AMK4eBlzv6XNGNnAIe20gjAk3DynzR57z9AksDJhxRZ0Ovwv6QZO4wG7bUz6wBQKtd6icP/fV4XadIIwOIFCSc5/C9p9u3280rlWn8rjAAcCTzFayJNLgtw4NIkHLm/s/8kzdopxF13Z6URS/bOAA7yeki76f8HOKZUDPsu9vl/e1yvwMg4bB0N2aahkGweCvWN20LP4CgTg6Mh2zoaesYmYgdqdALG66Epn2eSwHX3Zj3Gyq6zD3FPgN80LQDkhxM812sh7b7xTxJ4zEGF0OP+Py1pZDxwfy2E323Iwq33Z9y+vs6qgZCs35qxeYhkeCwUR+swUQ89Ib+mO17f0MTPvZBQcFlpV3pWqVz7RLWSDjRrBOB45uCAAqnDIgCLehOOPcDWv5V6+LURws3r6uGKu+v8ZlWd2+/Pkg2DoTAyHsgCkMT/Jcn2H+a9bhIetI1TAm7rpCY4HjgJ+HGzAsAZuPZf2kPzD/suScIR+zr632xjE4Hb7s/CRbdMhItvm0huuz8rbB0JhACFQmzlkyShx0ul1reYuPx+/gNAqVxbBjzTayDtXtz/vxD228t+YrMMjQUuv7ueff2q8eSXd9V5YGtWACgkUEgSnJmhNvX0UrlWqlbS6nyPADyKuP2vpD0MARy1f4H+PgNAM3r8l/2unn3x8nF+cedEYetIoFCIDX/i5VD7O4q4NfB3Z/KHZ5N7nwnsZf2l3bT9+dDyMSsKwWrMrzvW18M7vzOavfarw4Uf3DReGBoL9BST2OO38VdnWAg8u1SuzeiGntEIQKlc25sG7UQkdXr3f2FPwhH7OcY8X0bGA9+5biL826Wj3PlAVigk4Do5dbAnAwcAa+clABCH/o+17tKemn9YuigJD1tml3M+rN+ahY9dPMbXrhxPhsZC3tu3LupoRxIfA3x7un9wpt2S04mnEknaXQAIsN+ShH2X2AWda3esr4e3fH2EL1w+loyMB4oFG391hT7gGTN5DDDtAJDP/j/dmktTCwAHLkuyJQusxVy6/r56eNPXR8LFt00k25fySV3kScD+8zEC8AjgkdZbmpqDlheS3qIt0ly54b569tb/HeHq1fWCs/vVpY4CHjMfAeApwDLrLe25958ksHK5KwDmyl0PZKH87RFuXFtPnN2vLrYIeNqcBoD8+MGnWmtpShGA3mLCgUttlebCxm1ZeM/3R7hy1faevzVRV3tyqVxbPpcjAEcQNwCSNAULemBFasvUaOP1wMcvHePHt0wkDvtLQHw8f8xcBoDHAyusszSV/j8s7kvC8n4bp0b7wY0T2Vd+PZ4EbPyl3FLiZMDGB4BSuVYkDv/71SZNJQAEWLIAli3yS6aRVg1k4dxLxpLB0bjOX9LvPblUri2cixGAA/DoX2la0kUJC3s9aqZR6lngC5eNhZvX1RN3VpAe4lHAIXMRAI6fzl8sOQIAy/uT+qJeMqvRGFevycI3rp4o4HN/abKO+olzEQBOIx48IGmqIwALk56eAo4ANMB4PfDlK8bC+sHMoX9p14rAk6a6K+CUvjGVyrUlwBOsrTQ9y/uTeBqNZu3ae7Pwk1snLKe0eycDezdyBOBQPPxHmp4ElvUnExZi9kIIfOua8bBhmxP/pD04krgzYMMCwGOA/ayrNMUGK7b/LOmj12rM3qqBEC6+bcLZlNKeLc1HARoWAJ4APseUptFlJUmgv8/uaiP8/M6JsGZTcN6fNDWnlMq1nlkHgHxrwZOspzQ9hSRhycKkbiVmZ3QicPGtE0zUgzP/pal5FFMYtZ9Kr/4w4hbAkqYVAAj9fRgAZmn1QBauuzdLCo5BSlN1CFPYFngqX1KPYoozCiU9KACwsMce62xde28W1g8G+/7S1C1mCiP3uw0A+VrCx+P2v9K0JQlJT5GilZid366qMz7h8L80TY/d0zyAPY0ALAUebR2lGQQAoKdgAJiN2kgIN62te9SvNH3Hs4d5AHsKACuJcwAkad5Va1lY7ex/aSYOZg/z9/YUAB4J7GMdJTXD6oHAlmGf/0szsBdwwmwCwIngEKY0E0mCQ9ezdPeGjNGJYCGkmTlxd+cCTBoASuXaoj2lB0mTCyG+NHOrBrIsyzz5T5qh44hz+aY9ArCCKe4nLEmNNpEF1m4JjkBKM3co8LCZBIDD8xAgSfNubIJs47ZQdxGyNGP7sJsNgXYXAI4H+q2fpGYYHguFLcOhaPsvzVhP3pZPPQDkkwaOt3aSmmV0gjA05goAaZaOL5VrvdMZAdiLKewjLElzZbxOfaxO5iMAaVaOApZNJwDsTzxMQJKaNAIQmKjjOgppdh4GHDSdAHAYsK91k9QsWYDgOkpptpYyyYq+yQLAMcBC6yapaRz6lxqhCDxiOgHgWGsmSVJHOKZUrhX3GABK5Vo/bgAkSVKnOAJIpzICsJx4CqAkSWp/DyNO7t9jADiQPZwhLEmS2sZy4vHAewwAhxH3AZAkSe1vEfExwB4DwJF4BLAkSZ3kqN0GgHwL4COtkyRJHeXwnbcE3nkEoJ94fKAkSeocK4EluwsAKXESoCRJ6hwriMcDTxoA9t/5N0iSpLa3DCjtLgAciCsAJEnqNIvY6VCgnQPAwcAC6yRJUkcpstMpvzsHAHcAlCSpM+06AJTKtYIBQJKkjnVQqVzr29UIwEJcASBJUqc6gLjc/yEBoJ9dHBYgSZI6wj7A0l0FgGXEAwMkSVLnWbpjO79jANibXZwXLEmSOkI/O5z2u2MAWEGcByBJkjrPgrytf0gA2A/osz6SJHWkhB12A9wxAJSsjSRJHW2XAWCFdZEkqaPtn+/7EwNAqVwrAvtaF0mSOtq+5I/7t48A9OIpgJIkdbq9dw4AC/KflCRJnSsl3w1wewDox2OAJUnqdHsBi3cOAEusiyRJHa1/5wCwmB0OCJAkSR2pj/w8gO0BIMVNgCRJ6oYAkO4YAPYirgSQJEmdqzdv838fAJYYACRJ6njJrkYACtZFkqSO95AAIEmSOt9eBgBJkrrPkh0DwGLrIUlSV3jQPgCLrIckSV2hv1SuFQulci3BTYAkSeoWC4FCIR8FWGg9JEnqCou2B4AEdwGUJKlbLNgeAIo4B0CSpG7Rt+MIQNF6SJLUFXqA4vYAsMB6SJLUNSMAvdsnAXoOgCRJ3SEAwf3/JUnqLkXyRwCSJKl7LAB6e6yD5koIgRC69L0DWYgfNfMiZvmra2+kySRQSBLroFnp+cPtJDW28V/Wn4SlC5OsW7919xVhUW9S8OtrhvXrSVi5d6G+ZEHAtu5BbX+ojYTipqGQQGJtNOsAIDVUFuClj+vldaf1Uc+69zv1Pov97jxTBy9Piv/1ikVJPTNB7ahQgE/+bKz+6V+M9RQsjBoQABxfU2NHAIB0UZKsSAvuMaEZ6S0mSSlNvH92/toKgdpIyEKAxFlcmk2YtASS1D5GJghrNgWHRWQAkKRuUhsOVGuZj/41G6PAuAFAktrIhsEQNg05MVKzUgfqBSADxq2HJLW+dbUQBkdt/zUrCfkUkpAPB0iSWtzqgSwZnXDetmZlHJjYHgAy6yFJrW/VQBayDBLHANSAAJABw9ZDklrbRD2E1QPBll+NCADZ9gAwZj0kqbVtG4P7tmR2/jVbIzsGgBHrIUmtbfNQCBsGXQGgBgWAaiUN+AhAklre/VsztgwH23/N1vD2EQCAIeshSa3t3k2BYRdta/aGqpW0vj0ADFoPSWptqzdlYaIeXAGgWQcA+MNWwNushyS1rhAC92zMkuAWAJq9wR0DwFbrIUmta2SCcK+HAKkxtu4cAMyVktSq37FHQqjWMtt/zUkAcGqJJLWoDYMhGRgKBR//a5YCsGXnAOBmQJLUotZuCWFw1CcAmrWJnUcAao4ASFLrWrMpC/EQICOAZmUsb/MftArAvQAkqUWt2pgl8RAga6FZB4AtOwcAVwJIUguaqAdWb3IBoBpiW/5ix50A3QxIklrQ0Dhh7WYPAVJDDO4cAMaAzdZFklrPpm2BBwaDAUCNUNtVANhgXSSp9azfGrItw8Hpf2qEgbzNjwGgWknrBgBJak33bs6SoXHbfzXEhgcFgNz91kWSWs+qgYyJuksA1RAPVCtptnMAqFoXSWotIQRWDWQhBJcAqiF+39bvGADW42ZAktRSRicIazaFxM6/5joAjFgbSWodtZHA/bVg518NyZN5W/+QADBAvj2gJKk1DGwLYWBbcPhfjTA0WQDYlL8kSS1i7ZbA1lFHANQQW/LO/kMCwLYdk4EkqfnWbMrC2IS7AKshNuYh4CEBYARYZ30kqXWs2phRz8AlgGqAdexw8N/vA0C+LnCN9ZGk1jCRBVYNhARcAqiGWFutpKO7GgEAWGV9JKk1DI0R1m7JbPzVKPfs+B87B4DV5FsESpKaa/NQCOu3OgFQDZHlbfykAWAtsNU6SVLz3b81sGXYJYBqiOE9BYD17LBEQJLUPPdtzsKwhwCpMTaz05k/OweALcB91kmSmm/VQJaMewiQGmM9O536u3MAGMKJgJLUdCEEVg8EPARIDbIGGJw0AFQraQDutE6S1FzxEKDMHYDUKHdVK+nY7kYAyANAZq0kqXm2jgaqW0LB3r8a5I6df2JXAeBuXAkgSU21cTCEjUOuAFBDjAB3TSUArGWniQKSpPm1rhbC4Ih7AKghNrOLnX53FQAGcEtgSWqq1QNZMuohQGqM+9hpCeBkAWCIXTwrkCTNn1UDWagHSBwD0Oz9DqjtMQDkKwFutl6S1Bz1LITVAyHBAQA1xq3VSjoxlREAgFuBUWsmSfNv2xjctzmz869GyIBbdvULkwWAe3BLYElqii3DITwwGILtvxpxOwG3TycAVNnp0ABJ0vxYvzWwedg9ANQQa4F7pxMAasTHAJKkeXbf5oxhD2ZXY9wBbJpyAKhW0gy43rpJ0vxbNZCF8XpwBYAa4cadtwDe0wgAwI3E3YMkSfMZADaGJLgCQLNXB26Y7Bd3FwDuZBcbB0iS5s7IeGDNpswTgNUIA+zmcf7uAsD97GLvYEnS3BkcDdm6WrD9VyOsYpIJgLsNANVKug3nAUjSvNq4LSQbtwUf/6sRbiKeAzDtEQCAq/FoYEmaN+u2hDA44giAGuLqfFL/jALAjUyyfECS1HhrNmVhdMI9gDRrg8B1u/sNewoAq4C7raMkzY9VAyGpB3AWoGbpXvZwsN+eAsAm4FrrKElzr54FVg9kgQDOAdAs3QQ8MOMAkJ8M+FvrKElzb3ic4CFAapArq5V0fDYjAOQjAM4DkKQ5tmkosH5rsP3XbA0BV+7pN00lANwJ/M56StLcemBrCJuHg8P/mq17mcJ5PlMJAJuIywElSXPovs0ZQ2PO/tOsXc8UdvLdYwDI5wFcDrgztSTNoVUDGeP1gCsANEtX7On5/1RHAMhHADZYU0maywAQQnAFgGanBvx6Kr9xqgHgd0zheYIkaWZGJ0JYsymz6dds/Q64rWEBoFpJtxIfA0iS5sDWkcC6LZ4BoFm7kimO2Bem8Zf+ChiztpLUeAPbQti4zRUAmpUM+EU+d6+hAeA6YLX1laTGW1cLDI66B4Bmpco0Nu+bTgBYC1xlfSWp8dZsysLIuIutNCs3EM/waWwAyJcU/Nz6SlLjrR4IeAiQZukX1Uo6NNXf3DPNv/wy4uEC+1ln7U4C3H5/xg9vGs+/qXWfQgKPO6TIvksK3hAzsHUkhF/fU09GJ0LHf62EAL9dVS8kuARQM/+SAX4xnT8w3QBwZz7EcLq11u4bv4QLrp3g29dNdOX7D8CCHvjKKxZx2pEGgJlYuyWrn/2NkWTjYCh2Q6OYBZKCjb9m7jbiCYBzEwCqlXSwVK79zACgPfZqEshC6Or9I7MscfvMWYaoLAvUQyAJ3fJ1YwLQjP2yWkk3zuUIAMBPiTsNpdZbfjObpPEKNv3eS9K8GQUume4fmsnY5I3ALdZbkqSWcBczWKU37QBQraQDwM+styRJLeFXxD0A5nwEAODHwDZrLklSU40DF1UraTZfAeBaPBxIkqRm+x1TPP2vIQGgWkk3MIMJB5IkqaF+Adw3bwEgdxE+BpAkqVnGgB/NZPh/tgHgGqa56YAkSWqYu4DLZ/qHZxwA8g0HLrL+kiQ1xaXEg/rmNwDkfgRs8RpIkjSvhoEfVCvpjHcdm20AuA642usgSdK8uhn4zWz+glkFgGol3Qr8wOsgSdK8+lG1kj7QtACw/ZMA1nktJEmaF5sb0fluRAC4Dfil10OSpHnxW+Ij+OYGgGolHQO+A0x4TSRJmlMB+G61kg62wggAxMOBbve6SJI0p1bToCX4DQkA1Up6L/B/XhdJkubUxcQNgFojAOS+Q5yYIEmSGm8YuKBaSeutFgCuZhZbEkqSpN26BrisUX9ZwwJAtZJuA74JZF4jSZIa7tvVSjrQcgEg92OcDChJUqOtBi5s5F/Y0ABQraSrge95nSRJaqiLGt3BLszBJ/lNYIPXSpKkhhgEvt6oyX9zGQCuBX7q9ZIkqSEuB65o9F/a8ABQraSjwHnAqNdMkqRZqQPn5YfvtXYAyP0UuMrrJknSrNxMPHSv4eYkAFQr6UbgfOKexZIkaWa+Ua2k97VNAMh9F5cESpI0U2uIE+vnxJwFgGolvWcuP3FJkjrchcCtbRcAcucD93kNJUmalgHgfxq99G8+A8BNNHjnIkmSusCPgd/O5T8wpwEgTy7/nScZSZK0Z9uAL+fL6tszAOR+yxwtYZAkqQP9DPj5XP8jcx4A8gTzJWCr11SSpN0aBb5UraSDbR8Acr8ELva6SpK0W78iPv+fc/MSAKqVdAj4IvG5hiRJeqjxvPe/uWMCQO6S/CVJkh7qCuAH8/WPzVsAyJ9nfM5RAEmSdtn7/3y+lX5nBYDcxY4CSJK0y97/vO6bM68BoFpJtwGfdRRAkqTm9f6bMQIAzgWQJGlHvwK+N9//6LwHgHwU4FO4L4AkSaPAZ6qVdN53zC006Q3/FPg/r7skqcv9lHmc+d/0AFCtpMPAp/GMAElS99oGfKpaSWtdEwByvwK+7fWXJHWpHzJPu/61VACoVtIx4lyAdd4DkqQuswn4ZL5TbncFgNzVwFe9DyRJXeabxHNymqapAaBaSTPi7oB3eC9IkrrEfcRn/2NdGwDyEHAbcXOg4D0hSeoC/wVc2+xPotAixfhv4DfeE5KkDncT8Ll8BNwAUK2k64CPAyPeG5KkDjVBnPh3dyt8MoUWKsx3iUsiJEnqRD8HzmuVT6ZlAkB+XPDHgA3eI5KkDlMDPtaMLX/bYQQA4uZAX/Y+kSR1mG/QxE1/Wj4AVCtpnbg50M3eK5KkDnEP8G/VSjpqANh9CLiTOCFw3HtGktTmMuKa/+tb7RMrtGjBzgMu8r6RJLW5XwJfasVPrCUDQLWSbgE+DDzgvSNJalM14CPVSrreADD91PR57x9JUpv6H+BHrfrJtWwAyCcEfhK40ntIktRmbgHObfZ+/+06AkC1kq4BPgQMei9JktrEGPDR/KybllVog0J+Dzjf+0mS1Ca+Qwvt+Ne2AaBaSUeAjwC3ek9JklrcKqCS725rAGhACLiVuCrAw4IkSa1qgrjhz1Xt8MkW2qiw5wPf9P6SJLWoHwJfbJdPtm0CQLWSbgM+CNzhPSZJajH3Au+rVtLNBoC5CQE3AhV8FCBJah0TxNNsf9NOn3ShDQv9NeDr3m+SpBZxIfD5aiUNBoC5HQUYAj4A3OQ9J0lqsruBf8m3sG8r7TgCsH1VwPtwgyBJUvOMEpf8Xd2On3yhjQt/AW0021KS1HHOB77Srp982waAaiUdJe4NcJn3oCRpnl0PvD9/LG0AaEIIWAP8E7Dee1GSNE+2AO+pVtLb2/lNFDrgQlwC/CtxGYYkSXMpEE+q/V67v5G2DwDVSpoBnwG+5X0pSZpjPwI+Vq2kbd/p7IQRAPLlF+8BbvTelCTNkbuAd1Ur6QOd8GYKnXJVqpX0FuBdwCbvUUlSg20jrve/slPeUKHDLtD3gHOBuveqJKlBAvFR83md9KY6KgBUK2kd+DhxjwBJkhrhIuBD+fJzA0ALh4DNwD8C13rPSpJm6Q7gndVKen+nvbFCJ16taiW9DXgn7g8gSZq5zcA/VCvpNZ345godfOEuAt5P3KtZkqTp2H7Eb8c+Uu7YAJDvD/A54Avex5KkaTofOLcT1vt34wjA9qOD/4W4cYMkSVPxK+Afq5W01slvstDpV7FaSdcBfwfc5D0tSdqDu4FzqpX0nk5/o4VuuJrVSno9cA5wv/e2JGkSm4kz/i/vhjdb6KIL+0PidsFD3uOSpJ2MAR8Evtktb7hrAkC1kgbgi8SNgtwpUJK0XSBOGv9EJ0/66+YRAPJdnCp02HaOkqRZ+R7w3nzieNcodNtVzncKfCdwsfe8JHW9K4C3Vytp120cV+jGq12tpGuAs4HrvPclqWvdAby1Wknv6MY3X+jWq16tpDcAbwHu8WtAkrqvGQD+tlpJf92tBSh09dWvpD8D3g5s8GtBkrrGFuKj4O93cxEK3gdcAPwDsNVSSFLHGwHeB/x3vjrMANDFowAZcXngB/DgIEnqZBPAucC/d9NyPwPA7kPAeH5TfDy/QSRJnSUAnwc+UK2kI5bDALBjCBgmDgt9Ib9RJEmd43y64IAfA8DMQ0CNOB/AjYIkqXNcCLytWkmd8G0A2G0I2AC8Dfiu1ZCktncx8OZqJV1rKQwAUwkB64A3AxdZDUlqW5cBb6xW0rsthQFgOiFgFfA3wKVWQ5LazpXAWdVKequlMADMJATcmYeAy6yGJLWNq/PG/0ZLYQCYTQi4BXidIUCS2sINwOuqlfRqS2EAaEQIuMkQIEkt7ybg9dVKepWlMAAYAiSpexr/11Urqd+jDQCGAEnqEjfY+BsADAGS1F2uBl5p428AmM8Q8Brgp1ZDkprmSuC1PvM3AMx3CLgFeC1uFiRJzXBZ3vN3tr8BoCkh4E7i4wC3DZak+XMJ8CrX+RsAmh0CVgF/TTxAyFMEJWluXQi8plpJb7MUBoBWCAFrgTcBnwMmrIgkNVzIO1pnube/AaDVQsAG4O3AvwGjVkSSGmYC+CzwJk/1MwC0agioAe8G/hkYtCKSNGsjwEeAc/KOlgwALRsChoAPA+cA3qySNHM14F3Ae/MOlgwALR8CxonDVX8NrLYikjT9b6XAW4Bzq5V0xHIYANopBNSBbwJnEreplCRNzR3Ezda+XK2kTqyeIz2WYE5DQAAuLZVrfwWcCzzNqkjSbv0aeEu1kv7aUjgC0AlB4HrgFcDXgLoVkaSHCMRN1V5m428A6LQQsAZ4A/CvwJAVkaTfGwM+TdzX/w7LYQDoxBCwmbhM8BzgASsiSWwizvQ/p1pJ11sOA0Anh4DRPOm+CrjVikjqYncTV0t9tFpJt1mO+eUkwOaEgAy4sFSu3Uvc4OLpVkVSl7kMeFu1kl5hKRwB6MYgcC3wMuA/cftgSd1hAvgq8BIbfwNAt4eAdcDZwDtx50BJnW0zcav0N+QnqcoA0PUhYAj4OHGpoJsGSepEdwCvBT7gtr6twTkArRMC6sAPSuXa3cD7gT8FilZGUpvLgJ8A76hW0msshyMAmjwI3AK8GngfcbhMktrVIPAx4uY+Nv4GAE0hBGzKA8CrgVusiKQ29DviEr+/d32/AUDTCwET1Ur6LeCFwLeIM2clqdVlwA+BvwC+Wq2kY5bEAKCZBYGb8pGAf8JVApJa2xbgg8Qh/6vyA9FkANAsQsBmoAK8FPiNFZHUgq4nHn/+nmoltbPSBlwF0D4hoA5cVCrXbgXeAbwcWGxlJDXZKHA+8D4P8nEEQHMbBFYDfwu8HrjNikhqonuANxM39rHxNwBoHkLASLWS/jfwAuB/cBthSfNrHPhO/j3osx7kYwDQ/AeBm4GzgLcQl9xI0ly7l/gY8hXVSnqNE/0MAGpeCBgkHib0fOJzOEcDJM2FCeBC4M+Bc6uVdIslaW9OAuyMEBCA60vl2muAS4C3A0dZGUkNspq4o9+X8lVJcgRALTga8Nl8NODLwJBVkTQLo8A38u8p/2bj7wiAWn804KZSufZ64m5cZeBRVkbSNN0KfAQ4P+9cyACgNgkCw8DXSuXa5cCbiBt07G1lJO1Bjbi66KMu7etsPgLo/CBwD3HG7l8AFxGX70jSzurAL4g7jr7Fxt8RAHVGCBgHLi6Va1fnX9xvxkmCkv5gFfBJ4IvVSvqA5XAEQJ0XBDYB/wH8Sf5xk1WRuloN+ALwp8CHbfwdAVBnh4AA3FYq184GLgDOBp4BLLA6UtcYJw73fxT4SbWSun+IAUBdFAS2Pxb4LXE7zzcTVws4KiR1rgDcTBwBPL9aSQcsiQFA3RsEasCXSuXaj4krBV4DHGplpI5zH/Al4HPAKrfwlQFA24PAfaVy7QPExwKvB/4S2M/KSG1vE/BN4iS/6/OjxSUDgB4UAjLg5lK59rfA14A3ECcHpVZHajvbiJuB/TtwWbWSjlkSGQC0pyAwAVxeKteuAb6SB4EzgH6rI7W8EeBneY//J9VK6pbgMgBo2kFgBLioVK79Kg8ArweeDCyyOlLLGQMuAz4D/CCf3yMZADSrILAN+HapXLsE+CPgr4FTcemg1CoN/2+IB4F9L9/vQzIAqKFBoAZ8o1Su/QR4NvBq4ImOCEhNbfg/lzf8LumTAUBzHgQ2Ew8a+j7x0cBrgCcBi62ONOdGiEP9XwD+z4ZfBgA1a0Tgm6Vy7UfAU4FXAk8HllodqeG2ESf3fZE4uW+zJZEBQM0OAoPAhaVy7WLgFOAVwHNwHwGpEQaIJ3l+Gfh5PidHMgCopYLAMHBpvmrgBOAlwJ8RdxZMrJA0LfcC3wW+Clzlfv0yAKgdgsAYcGW+j8CngOcDLwKOB3qtkDSpCeAW4H+Ju/fdnu/LIRkA1FZBoA7cUSrXPkzcg/wM4MXAaThPQNrRIHA5cB5x97517tUvA4A6IQgEYD3w1VK5dgHwWOCFxHkCh+IJhOpOAVgD/Aj4OvDraiXdallkAFCnhoEh4Of5PIFz8xDw53kocBmhusEwcC1xiP9C4C6H+WUAUDcFgTpwF/CJUrn2X8DJxLkCz8xHBYpWSR0ky3v7PwG+RRzu3+wwvwwA6vYwUAN+UirXLgVWEvcS+DPiksJ9rJDa2Gbibn3fAX4M3G1vXwYAadejAncDnyuVa18FHkl8RPBs4goCHxGoHQwDNwP/B/wAuN61+zIASFMPA8PEpYRXAZ8ATsrDwNOBhwMLrZJayBhwJ3Bp3uj/BtjoEL8MANLMg0AANhEfEVxC3F3wcXkYeCpwOJ5KqOYYB34H/IK4dO9yoFqtpJmlkQFAamwYyID7idsO/wAoEVcPnAE8GTgKTybU3BolTl79JfGZ/hXENft1SyMDgDR/YWAt8N1SuXYhsC/wGOD0PAwcAyyzUmqArcBteU//EuAqYL2NvgwAUmuEgfXAj0rl2kXEXQaPIe44+BTg0flogfe7pqKe30/XE0/f+wVxUt8mn+nLACC1bhgIxKVXVwBXlMq1fycuLTwReBLweOBIIMUDivTgXv5dxMl7vwSuBO7JJ6NKBgCpDQPBCHA7cHupXPs68bHAUcSJhE/IRwdWAkusVlcZIm7Mcz1x8t5viMP8A07ikwFA6rwwkBHPVv818OtSufZp4tyBhxMnE54MHLdDIHCEoHMMEo/XvTHv3V9FPHVvfbWSjlseGQCk7goEE0A1f/28VK71EHcePJK48dBJ+cdD85/366U9TBCXjt4D3ARcDVxHXKf/gA2+ZACQdhUI7s9fvyqVawVgL+CgfJTghHyE4GjgQOJkQ7+GmqsO1IgrQu4EbiAO69+a9/hrztaXDADSdANBBmzJXzcBF5TKtV7iPIKDgCOAY4krDo7MQ8HexF0KfXwwWwEgSfIfAIzkPfu1xAl7txKH8e/IG/tNwLgz9SUDgDQXoWAceCB/XQNQKteK+UjB/nkwOBI4koQjegqsBFYAy4mbFHnK4e5lxL30NxcLrC0k3Escyr8j7+GvIY7QbPVQHckAIDU7FNSJSw83E1ccXAJw5LtrvXsvTpbkowIl4GDiBMND8qBwAHFuwTKgn7ilcaePHATibnrDeb02Eudg3AusBlbljXx1cV+ycb+9kq03vrs2AQfbq5cazGFKab5bwBASoDcfEViajw7sn48UrMiDwf55ONiHuGfBEuJpiH35q7eFvn4DcV/88bxxHyLOuq8RV11sII6YrMsb+/X5a4D4eGUIGE+SxEZeMgBIXR8SCnkjvyAfHVicv9I8NOyV/zjNf7w9ICza4bUgDws9+cdAfAQx2eFJo8RJdckODfpY/vMjea99aIcGfmveyO/8Gsx/z7b8z48lSeLaeskAIGmORhUACrt4FfMwEXb48a6M7xAAJvJXtosX9tal9vf/AYu1COAFciExAAAAJXRFWHRkYXRlOmNyZWF0ZQAyMDI0LTAzLTAzVDA4OjQ3OjMwKzAwOjAwXCp73AAAACV0RVh0ZGF0ZTptb2RpZnkAMjAyNC0wMy0wM1QwODo0NzozMCswMDowMC13w2AAAAAASUVORK5CYII=;" parent="PxfYsGnpCf7-yWaWJEkX-70" vertex="1">
                    <mxGeometry x="70" y="84.11374999999995" width="48.19763513513513" height="48.19763513513513" as="geometry"/>
                </mxCell>
                <mxCell id="PxfYsGnpCf7-yWaWJEkX-65" value="" style="shape=image;verticalLabelPosition=bottom;labelBackgroundColor=default;verticalAlign=top;aspect=fixed;imageAspect=0;image=data:image/png,iVBORw0KGgoAAAANSUhEUgAAAgAAAAIACAYAAAD0eNT6AAAACXBIWXMAAA7EAAAOxAGVKw4bAAAgAElEQVR4nO3db2xc9Zno8eccjyep3Q02psEhRKraOmsEN0HJm1UIQjFVI9TSFwHFuY6UhsbQF6yqVmI3ui+Kla50pbRIvaqWFwuhQK7iJajhxcKqCluMUAH1XimoyW3VbFIqJBMSUoIdd22C7ZnffTFznLEzf87MnHN+/74fqUqAZvwDj+d5zvN7fs8vEABW2LV/qj/XEXxFRCQIgi+X/m7wtUDkq6Xfyu3R/1fJ9d+X/pGsLf+2p8GXmS7/+csr/vyHS3+hSr9XIu+LqD+JiCilPhARWSyoP7/yQu+lJv61AGgS6F4A4LsosJeCejmgB3K7Erm9HLgbBW1TTSuRy4HIh6LkwyhhUEp9QKIA6EcCAKSsVoAXkS1ib3BPyrSIvEeCAGSPBABISGWgDyTYqQL5u0Bko+512UyJnAuU/FaJOkliACSLBABowe4D09uWnugDuU94ms/StIi8p5S8FVUMXn6u513diwJsQwIANLBr/1R/Zy4c4qnebJXVgoXF4gSVAqA+EgBghdLTffj18l79t4Une1tNi5J/UyLvK1X8NVUCYDkSAHjt+r59+PVyKX9I95qQqgml5C2lir+mnwC+IwGAd6InfAlkL+V8vymRc6LkGBUC+IgEAM6r3MOXQPbpXg8MpuQoPQTwBQkAnMRTPtpFdQCuIwGAE3jKR+qoDsAxJACw2vDo1ZEgCA4IzXvI1oRS6rnjR24a170QoFUkALDO8OjVEZ70YYxyZYBkALYhAYAVCPqwAskALEICAGPtPjC9LQzC7xH0YSUlR4uq+C80EMJUJAAwSqmZr+OxIJAfChP44IZppeRnC4uFZ2gehElIAGAEmvngCZoHYQwSAGjD0z48RlUA2pEAIHM87QPLUBWAFiQAyETF0/4h3WsBTKWUjFEVQFZIAJCqXfun+vO5jsN08gNNUHJ0frFwkEQAaSIBQCp2H5jeFobhPwllfqAdE8Vi8UccJUQaSACQqOHRqyMSBGNcwAMkp3QxkTpEnwCSRAKARAyPzjxJNz+Qumml1OMkAkgCCQBaRmMfoA8Ng2gXCQBaUn7iJ/ADmiklY8ePrPmx7nXAPiQAaAqBHzATiQCaRQKAWNjjB6xAjwBiIwFAXeWpfU8LgR+wCYkAGiIBQFUEfsAJJAKoiQQAy+w+ML0tCMPnOccPuEOJnFPF4iMMFEIlEgCISHlkb2fHMWFyH+CyifmFwl6ODkKEBMB7nOUH/MMMAYiQAHitvM9/TPc6AOihlNpLf4C/SAA8xD4/gAj9Af4iAfAIV/MCqIkriL1DAuAJJvgBiIOJgv4gAXAc5X4AzWJbwA+h7gUgPcOjM0+GYfgOwR9AMwKRjWEYvjM8OvOk7rUgPVQAHLT7wPS2MAz/XZjiB6B908Vi8ZtUA9xDAuAQmvwApIYmQeeQADiC2f0AMsDdAg4hAbAcI3wBaMBIYQeQAFiMSX4AdGKSoN04BWCpPaMzLxL8AegUBMGxPaMzL+peB1pDBcAynOsHYBrmBtiJCoBFONcPwETMDbATFQAL0OgHwCI0CFqCBMBwNPoBsBENguZjC8BgNPoBsBUNguajAmCgXfun+js7O95irx+AA6bnFwp3sCVgHioAhhkevTqS7+y4SPAH4IiefGfHxeHRqyO6F4LlSAAMMjw68yQlfwAuCoLgGKcEzMIWgAHo8gfgEU4JGIIEQDOu7gXgIa4YNgBbABoNj14dCcPwHSH4A/BLT2lwEH0BOpEAaMIRPwC+46igXmwBZIwjfgCwnBI5t7BQuI++gGxRAcjQ7gPT2/KdHX8k+APAdYHIxnxnxx93H5jepnstPqECkJFys987utcBACYrFov30ByYDSoAGaho9gMA1EFzYHZIAFLGcB8AaA5Dg7LBFkCK9ozOvCiB7NO9DgCwkpKjLx1Z8x3dy3AVCUAKmOwHAIlhcmBKSAASxjE/AEgcNwqmgAQgQXT6A0B6OCGQLBKAhBD8ASB9JAHJIQFIAMEfALJDEpAMjgG2iTP+AJAtZgUkgwpAG4ZHr45wxh8A9FBK7T1+5KZx3euwFQlAiwj+AKAfSUDrSABaQPAHAHOQBLSGHoAmMdoXAMzC6ODWUAFoQin4yyHd6wAA3EgpGTt+ZM2Pda/DFiQAMRH8AcB8JAHxkQDEQPAHAHuQBMRDAtAADX8AYB8aAxsjAaiD4A8A9iIJqI8EoAaCPwDYjySgNhKAKgj+AOAOkoDqSABW4GIfAHAPFwjdiASgAsEfANxFErAcCUAZwR8A3EcScB0JgIjs2j/Vn+/suKh7HQCA1E3PLxTueOWF3ku6F6Kb93cB7No/1d/Z2fGW7nUAADLR09nZ8dau/VP9uheim/cJQL6z41ggslH3OgAA2QhENuY7O7w/6eV1ArBndOZFERnSvQ4AQOaGyjHAW94mAMOjM09KIPt0rwMAoEkg+3y+RtjLJkAG/QAAIr4OCvIuAeC4HwBgJR+PB3qVABD8AQC1+JYEeJMAlM/6/1FEenSvBQBgJK9mBHjTBFg+60/wBwDU0uPTXBgvEoA9ozMvctYfANBIILLRl+OBzm8B0PEPAGiWDycDnE4AaPoDALTK9aZAZxMAmv4AAG1yuinQ2R6A8pxngj8AoFU9Lt8Z4GQCUB7tyIx/AEC7hlwdF+zcFgBNfwCApLnYFOhUAlDe97+oex0AAPfMLxTWudQP4MwWwK79U/0+DXAAAGSr3FjuDGcSgHyu4zDDfgAAKepxaUiQE1sA7PsDALLiSj+A9QkA+/4AgKy50A9g/RaAy2c0AQBmciH2WJ0AcN4fAKCJ9fMBrN0CYM4/AEA3m+8LsLYCEITh87rXAADwm82xyMoEYM/ozIsc+QMA6BaIbLT1aKB1WwAc+QMAmMbGo4FWJQAc+QMAmMq2o4FWbQG4cOwCAOAm22KUNQnA8OjVEeHIHwDAXEPlWGUFK7YAyqX/P4pIj+61AABQx/T8QuEOG7YCrKgA5HMdh4XgDwAwX085ZhnP+AoAA38AALaxYUCQ8RWAMAz/XfcaAABohg2xy+gEoDxnmdI/AMA2PabfFWDsFgClfwCA7UzeCjC2AmDzfGUAAETMjmVGJgDDozNPMusfAGC7QGSjqVsBxm0BMO4XAOAaE8cEG1cBsOX8JAAAcZkY24yqAND4BwBwlWkNgUZVAExulgAAoB2mxThjEoDh0asjNP4BAFxVagg057IgI7YAaPwDAPjClIZAIyoAnbmOx3SvAQCALJgS87RXAHj6BwD4xoQqgPYKQL6z45juNQAAkCUTYp/WCgDH/gAAvtJ9LFBrBcC0IxEAAGRFdwzUlgBw7A8A4DPdxwK1JQBBEDyt62sDAGACnbFQSwJQznh6dHxtAAAM0qOrCqAlAeDpHwCAEl0xMfMEgKd/AACW0VIFyDwBCIJA+9lHAABMoiM2ZpoADI/OPJnl1wMAwBZZx8hME4AgkENZfj0gS4MDOdmxPS+DAzndS3FO9N+2r1f78FIgNVnHyMwmAQ6PzjxJAgBX9PWGsunOnKy7NZS778rJzb2BdHeV/tnsnMjoD/6qd4EO6esN5fBY97L/vmfPF+SjS0W5+HFRzvxhUa5MFfUuEkiIUjJ2/MiaH2fxtTJJALjwBzarDPa39YcyONCxFIxqeebo5/Lm2/PZLNBxIw+tlgd3dtb9/5AUwCVZXRSUSa3SlKsPgUb6ekP50i2hbNmUix3sq9n78CoSgAT09YYydG/94C8i0t0lsnVzh2zd3FH+O6tICmCtcsxMvQqQSQVgz6MzKouvA7RicCAnWzbl5O67crJhfXI/Eq+eXJDxE9cSez0fxXn6b8bkBSW/+/2ivHdmUc6eX0zsdYGkvfTsmtTjc+pfgL1/mCYq6W/dnGv5CT+O2TmRg4dmeepsUV9vKP98uDu1148qBKdOL1IdgHGy6AVIfQsgCOSHaX8NoJ7KPfyheztTC/grdXeJ7BzKUwVo0SMjq1N9/eXbBqUtg4nfLLBdACOUY2eqCUCqFYDh0asjDP6BDmmV9Vvx9wepAjQr7af/ONgugG5Kqb3Hj9w0ntbrp1sBCIKxVF8fqDA4kJNvfSOfalm/FVQBmpf2038cG9YHsmF9pzy4s3Npu+C11+dJBpCdUgxNLQFI7dFo94HpbWEYvpPW6wMi15/0syztt4IqQHwmPP3XE20VUBlAForF4j0vP9fzbhqvnVoFIAzDf0rrteE3W4J+JaoA8e0cyuteQl3dXSIP7rxeGSAZQJrKsfT+NF47lQoAg3+QNJP29FvBdMB4Vk79swk9A0hLWoOBUqkA5HMdh9N4XfilrzeUnUN5a4N+pe4ukR3b8wwHamDnUN7K4C+yvGcgSgZOTsyz9YO2lWPqd5J+3cQ/VXn6R7t2bM/LA/fnrQ/6K1EFaOzI//obaxOAWiYvKPnVG/Mkf2hLGlWAxCsAjP1FK2zc129WElWA6Da8L91S+nXdrct/FRG5rf/679feUv32vJt7lydXn05VH9Z5+ZPrT68fXbr++4sfF5f9+pfy/6+dp90d2+19+q9nw/pAHtu3SvY+vEomfrNAVQAtSWM8cOKPWIz9RTN2bM/L1s25ihnubpu8oOQfD/1X1X8W3UOw7tZwKaDf1h8uBXFbKiKTF0ofAZc/KS4lDRc/Ls3j/8snxZrB7ydjX7Tm37Fdp06XJhBSFUAzkh4PnOiLMfgHcUR7+y4/7dfz6skFEbn+pL72ltCbwBeZvKCWEoSLHxdl3a1hojP/bUGvAJqR9GCgRD919jw684aIDCX5mnBHNKjHl6d9oBmnTjNoCA1NvPTsmsSOBCaWAND8h1pcbeoD0kDTIOpJshkwsSZAmv+w0shDq70t8wOtWtk0yAApVEqyGbB6i3ALuPUPlaJ73An+QGuiiYMjD+m/FwHmSDLWJpIADI9eHRGRniReC/YbHMh52dAFpGHo3s6l45+AiPSUY27bEnlXBUFwIInXgRu+a8BNboArurvMuB0R5kgq5radAOzaP9UvdP6jbOSh1TT7AQnburlDdmw3+5IkZGqoHHvb0nYCQPMfIpT+gfTsfXgVWwFYkkTsbfvdRPMfIpT+gfSwFYBKScTethKA3QemtwnNfxBK/0AWtm7ukMGBVC5xhX16yjG4ZW0lAGEQfq+dPw839PX6OcYV0IFKGyLtxuD2tgAC2dfWn4cTKEsC2dmwPmA2AErajMEtJwBJnUOE3Uq3+THbH8jSgzuZDYCSdmJxy++gQIKdrf5ZuKGvN5S9D6/SvQzASwe/z5hNtBeLW08hKf9775GR1Yz6BTTZsD5gNgDaisUtJQCU/zE4kKP0D2jGbACItB6TW3rnUP4HnciAfswGgEjrMbnpBGDX/ql+yv9+27E9z5l/wBDMBkCrMbnpBKAzFzL332M0/gHmeeLxL+heAjRrZRug6QSAm//8tnMoT+MfYJjuLmE2gOdaic1NJQDc/Oc3LvsBzPXgzk62AvzW9A2BTSUAlP/99q1vcOQIMBnNuX5rNkY3lQDQ/e8vJv4B5mM2gN+ajdHN9QDQ/e8tGv8AOzxwPwmAt5qM0bETgHavHYS9Rh5i4h9gC6oAfmsmVsdOAIIg/Hpry4HN+npDGbqXxj/AJlTs/NVMrI6/BRDI3pZWA6tx7A+wD8cCPdZErI6VAOzaP9UfiGxsfUWwUV9vyLE/wFJD93JlsI8CkY1xjwPGendw/M9PzBgH7NXdVargwT9xY3asBIDjf/7htj/AflQB/BQ3Zsd7Z3D8zzsM/QHsRxXAUzFjdsMEgON//uHpH3DHgzupAvgoTuxu+K7g+J9/GCcKuIUqgH/ixO7GaSHH/7wyOJCTDesD3csAkCCqAB6KEbvrviM4/ucfnv4BN3Gqxy9xjgPWTQByHcFXkl0STLZje56nf8BRWzd3cF2wZxrF8LoJAPv/fuESEcBtnO7xS6MY3iABkPuSXQ5MxdM/4D6qAH5pFMMbdYUwAdATPP0DfqDPxyt1Y3jNBIDz//6g8x/wx4b1AVUAj9SL5TUTAPb//cG+IOAXqgD+qBfLaycAIl9NZzkwCVP/AP9sWB/Iju0k/j6oF8tr9wAE8u1UVgOj8PQP+GnrZrYBvFAnlldNAMrDA3pSWxCM0Ncb8vQPeGrr5g6mA/qhp9ZAoKrf/bh3CcNuTAYD/MYdAX6oFdOrJgBx7xKGvXj6B/Dgzk7dS0AGasX0qgmACuTv0l0OdCPzByAiNAN6oFZMr1EB4AIgl/X1hjJ0L5k/AIaA+aBWTL8hAWAAkPs23ZmT7i7dqwBgAgYD+aFabL8hAQiC4MtZLAb6kPEDqMRxYPdVi+1VtgCCr6W/FOjC2F8AK3Ek0Ac3xvYqFQBuAHQZmT6AamgMdlu12F4t5duSwVqgAUf/ANRCY7DzbojtyxIAJgC6jQwfQC3dXRwJdNwNEwGXJQC5juAr2a4HWSLDB1APDcJuWxnjlyUAnABw147teY7+AaiLI4FuWxnjlycAjAB2Fpk9gDhoFHbXyhi/LAFgBLCbOPoHIC6OBLprZYxfUQFgBLCLtmyipAcgPhqG3bQyxi8lALXuC4b9aP4DENfsHJ8ZLquM9UsJACcA3DQ4wNx/APF1d3Ek0GWVsX4pAeAEgJto6AHQiq2b2Tp0UWWsr+gB4A4A1zD5D0CraAZ01fVYf70CIPJVPYtBWjbdSQYPoHV8hrinMtaHFX/3di2rQWo4+w+gHWwDOKgi1lfWd7gEyCF9vSFn/wG0hW0AJy3F+srvLJcAOYRzvACSwDaAc5ZifSjCDAAXcY4XQBLYBnBPFPNDEWYAuIaz/wCSwkki90QxPxRhBoBrGP0LIEkMBXJLFPPLPQDMAHDJ3XeRAABIDtsArinF/FIFgBkAzqD7H0DSBgfYBnBJFPPD8l8xA8ARdP8DSFp3V6m3CI4ox/xQREQJCYArKP8DSAP3irgjivnRFsBavctBEij/A0gL2wDuiGJ+NAiIIUAOYGAHgLSwDeCUHpHlkwBhOWb/A0gTR4zdEjIF0A2U/wGkjQmj7ti1f6o/ZAqgGyj/A0gb2wDuyHUEX+E76QgGdaTj1OmCiIh8dKkoFz8u/S+y7tZw6dfb+kNZewtVmLRNXlBy+ZPi0vdDRG74nkTfDxHG2KZhy6acnD2/qHsZSECOMcBuoEM3OadOF+TU6UV58+35uv+/s+dv/HuDAznZsiknd9+VIxlIyOQFJb/7/aK8d2axYeBZ+T3p6w1l05052bo5RzKQkLvvysn4Cd2rQLuCIPgyj40O4PKf9k1eUPKrN+blzB8W5cpUsfEfqOHs+VKQGj9xPRl4cCf7pq149eRCrKBfz5Wporz59ry8+fb8UjLwwP15krM2bFgfyOAAVQAX5LgHwH5RKRqtefXkgoyfuJb460bJwHtnFuW7I6sJOjFNXlDyi/FriQeYymRg5KHVMnRvJ4lzi9gGcEHwtY7/tuV/fFcC2ax7KWjdww+uWtrzRHynThfkf/7sM/m/7y2k+nU++bQo//HWvHw6VaoK5CkIVDU7J/LCv34uz/7vz+STT1uvwsTx//64KO/8n0W5dW0HPzst6PpCKP/xVv0tMpgtEJlkC8AB7G0275mjnzfc409a9PT5xONdfM9WOHW6IM+PX2tr+6VZV6aK8tTTczI4kJMnHv8C1YAm3NxLNcsFIRcB2Y0jOc2ZnRM59NPPMg/+lZ56ek5ePZlu1cEmp04X5Kmn5zIN/pXOnl+Up57+TGbntHx5K3Ec0AGB3E7ty3JM5opvdk7kqac/M2LvcvzENZIAKfVfPPW0/sh79vyiHDw0SxLQBD577EcCYDlu/4tn8oKSg4dmjQj+kfET1+SZo5/rXoY2aTVfturKVFEOHpqVyQtK91KswGeP/UgALMb433hm50QO/1xfibmeN9+e97ISYFrwj1yZKsrhn89RCYiBPgC7KZHbw+heYNjnS7eQv8Vx7JefGxn8I+Mnri1NHPTB5AVlZPCPlJoDP9O9DOPRB2A/IojF2INr7NTpgtaGv7ieH7/mxVNnVI0x3dnzi15WZprFZ5DdSAAsxvnl+iYvKCMazOLw5anT9GpMpfET1+gHaIDPILuFgcha3YtAa5j/X98vxs0tM1fj+lOnLdWYSjZUK3RinoW9ApG1pG+W6usNGVxSx6nTBaM6/uM6OTHv7FbA85YlZCKlyozLSVkS6AOwVygiPboXgebRAFjfa6/b9aQZuTJVlInfuBdwTp0uWFP6X+nkhJ3vpaxwF4m1evjOWYrmm9psffqPuBhwbHz6j1yZKnp1SqNZWzfzWWQrEgBL0XxTm61P/xHXys42P/1HbE5g0raWaqS1+M5ZigbA6mx/+o+4VAWwPSEToQpQD8PI7EUCYCEaAGs7ddr+4C9SCjguHEGbnRMnEjIRd95baaAR0E4kABaiAbC2M39w50P6d7+3/9/FpYZGl95bSaMR0E581yxEA2B1s3Ni/V5zpffO2B9wLn7szvfDlapMGmgEtBMJgIVoAKzOpadNkVLp3PaZAK49NbtQlUkDjYB2CkVkWvci0Bx+2Kpz6Wkzcva8vY1nkxeUUxUZETeqMmmgEdBK00QSy3AFcG2uPW2KiHx0yd4A6uLT8l8+sff7kTYaAe0TKpHLuheB+GgArM21p00Ru6saNq+9FhffY0mhEdAuSuQy3zHL8ENWne175bAH77Xq+GyyD98xy9BtW92nU252Z9v8FG3z2utx9b3WLpqT7RMGIh/qXgTiowGwusuO7s2y52weV99r7WI6qV0CkQ+JJpahARC2IHnxC9NJ7UMCYBG6bGuzuVu+HpubzmxeO1rDZ5RdSAAsQpNNba7uP/b12vvvZfPa0Ro+o+wSiqIHwBb8cPnH5mOfNq+9HvpwauMzyiKKHgCruPqUmwRXP5T5QDXPzb304dTCZ5RdQiXyvu5FAO3iQ9k8riYvNLvV5moi7iIl8n4oov6keyGIhx+u2lz9ULY5iNq89lroa6iPRNwm6k+8my3CEcD6XPxwpqRqFlf7GpLS3eXmz6GrQqXUB7oXgcb4oWps053uHUGyebjK3Xe59/3Yssm9f6ekkSTZQSn1Ad8pOMO1McmDAzmrtzY2rA+cS1xdTGrgr3CxoP6sexFojKy6MZuflqtx4WnTpaoMV3HH42Lvh4sWC+rP4Ssv9F7SvRA0xg9VY91dbk0ic2H/36WqjEvJTJr4rLLDKy/0XuI7ZQl+qOJx4alZpPS0uXWz/RUNl6oyLiUzaXIhcfVF9J2a1roKICGu7NG68rTZ3SWyY3te9zIS4VIyA+9Ni5QTACVyWe9a0AhZdTwb1gdOBJwH7rf/3yHiwr/LyEOrrW7IzBLzSswXxfxQpHQvsN7loBF+qOKzPeDs2J53qtlsw/rA+t6MoXs7dS/BGgwDMl8U80tRhQuBjMcPVXy2VwFsT2Cq+e7Iat1LaNmO7Xme/pvAfysLqIoEgPsAzMcPVXNsDaKuPf1HbK4C7H14le4lWMe1+Q+uiWJ++bvEfQAm44epebZWAWxNXOKwsQrA039rmFtiulLML1UAGAdsNH6YWvPYvlVWJU9PPN7l5NN/ZMP6QEYesicJGBzIyWP7ePpvBceWzRbF/FCkNBFI62pQFz9MrTv4fTse33Zszztx7r+RB3d2WlOZsbFiAcQRxfxQpDQRSO9ygHRsWB/IE4+bnQT09YZe7TPvfdj8yozr1Rj4LYr5lT+FDAMyFBWA9mzd3GH0U+fB73d5tc/c3WV2ZcaXakya+Mwy2lKsr/wuvadhIYiBIUDte2zfKuOSgL7e0NsnzQ3rA/nJ2Bd1L+MGO7bn2feH65Zi/fXIwiwAOM6kJKCvN5SD3+/y+kkzSgJM2Q4g+CeHhxaDVcT68PrfYxYA3PfYvlXaO9Gj4O/jk/9KG9YHcvD7XdqTgJGHVhP84YXKWF/xU8csAPjhwZ2d8sTjeoLO4EBODo91E/wrbFgfyOGxbi2DgqJtmAd3MuoXvrge65d+4pRSHwQBH0om4h6A5G3d3CGDA91y7Jefy5tvz6f+9fp6Q3lkZLXXJf96urtExv7hC3LqdEGeH78mV6aKqX/NHdvzsvfhVV41YGaFzyxzVc79WUoAFgvqz3m+Z0a6/ElRNqwncCStu6u0JfDA/Xn5xfg1OXt+MZWvQ6CJL4vEjGQMPquc+7PskX/PozMq++WgkZ+MfZGScQZOnS7Ia6/PJ5II9PWGsunOnDxwv5uz/bMweUHJr96YlzN/WEykIjA4kJNvfYMjflmYnRMZ/cFfdS8DVbz07JqlD6Rlm25K5FwgsjH7JQH6bd3cIVs3f0Fm50QmfrMg751ZbCoZiIL+1s05gkwCNqwPyo15q1pOBgYHcrJlU06G7u2kApMh/lubSYmcq/zrZQlAoOS3EpAAwG/dXaVGwagxbPKCksuflILOR5eKcvHj0u/X3RrKbf2hrL0llJt7Az70UlSZDMzOiXw6VfqeVPt+iAjfE6CKQMlvK/96RQVAnQwk2JftkgCzbVgfLPVg8GSvX3eXSHdX6XvC9wOIT4k6WfnXy9r+uBUQAAA3rYzxyxIAbgU00829NJEBANqzMsYvSwDKNwRxKRAAoC26pzviBtMrb/6t9h3iUiAAANxyQ2y/IQFQSt7KZi0AACAL1WJ7lQoAdwKYhqNMAID23Bjbq1QAOAkAAIBLqsX2GxKAl5/reTeT1QAAgExUi+1V2zRXjgsEAAB2qhXTqyYAK8cFAgAAO9WK6TUqAMvHBUIfztICANpRK6ZXjS4Li8WJdJcDAACyUCumV00AmAgIAGhHM9c2I1U3TACM1K4vK/m31JaD2PghAgC0rE4sr5kAKJH301kNmjU7p3sFAAAb1YvltRMAVfx1OssBALiMhxZz1IvlNRMABgKZ49MppXsJAAAL1Yvljc6YcRoAAAA71Y3hdRMAbgY0w+VPaAQEYA+qlmZoFMMbJAD0AQAAYKNGMbxuArBYUH9OdhohaocAABMFSURBVDloxUeXqAAAAJrTKIbXTQBeeaH3EhcDAQCawbalfkrkXK0BQJHGg+aVHEtsRQAAIH0xYnfDBIA+AP0ufkw2DcAebFvqFyd2N0wAmAcAAIBd4sTueHfNKjna9moAAF6gaqlZzJgdKwGodZcwssEPEwAgrrgxO1YCUOsuYQAAVuKhRa+4MTtWAsBxQL3+wpGahiYvKDn008/k1ZMLXESCxM3Oibx6ckEO/fQzmbzAlDuYK87xv0iuiVc9JoEcanlVQEpePbkg4yeuiYjI2fOLMn7imuzYnpcH7s/LhvWB5tXBZpMXlPzqjXl58+35pb/3j4f+S554vEu2bu7QuDKz8dCiURNH92MnAEoVfx0EIQmABlem+GGqZnZO5NgvP1/24Rx58+3Sh/bgQE6+9Y08H9ZoyqnTBXnt9Xk5e36x6j9/6uk52bE9L4/tW5XxyoD6mjm639Tj0Z5HZ6h9afKvz/yN7iUYZfKCksM/n4udHPX1hrJzKC9D93ZKd1fKi4OVZudEJn6zICcn5mO/rwYHcvLdkdVUmlb474/9VfcSvPXSs2tivxnjbwGIlI4WBLKv6RWhbbNzQuAqO3W6IE893dxG/5WpooyfuLa0PbB1c46qAESk9H46dXqxaiWpkbPnF9kSWIEeHI2aPLLfVAKgRJ0MJCAB0ODYLz+XvQ+vIgkQkcGBDhl5aPXSvn+zou2BqCpw9105nuA8M3lBye9+v9jU034tIw+tlsEBgr/I9W056NHskf2mPvV27Z/qz3d2XGxuSUhKX28oj4ys5kmjrF4PQLMGB3KyZVOOLQKHRSX+984s1tzbb8aO7XmS8grNbsshefMLhXVxTwCINJkAiIjseXTmDREZavbPITl88CyXZCIgIktbBIMDHfw3ttzsnMjZ862X+KvhhMmNnjma3M8fWjbx0rNr7m/mDzT9Dh4evToSBAE3BGrW1xvKwe938SFUYfKCkl+MX0vk6S6yY3te1t0aUhmwSNJP+hEa/m7EU785lFJ7jx+5abyZP9PSO5nTAObgKNKN0kgERK5vE9AzYJ5oTz/poC9C4K+lcv4G9Gum+z/SWgIwOvMipwHMQTWgulOnC/L8+LVUnk6iBsLb+kO2CjSISvsfXSom0shXDT031fHUb6Smy/8iLSYAbAOYaeSh1fLgzk7dyzBOmolAJKoOkBCkozLgp/GUX4nAXxtP/WZqpfwv0mICIMI2gKmoBtTWznnvZpEQtCfLgB9hPkRtaW2rIRmtlP9F2kkA2AYwGtWA2lqZ+Nauvt5QNt2Zk3W3hiQFK1QG+4sfF+XMHxYz/77Q1V8bT/2GU3L0pSNrvtPKH235Hc82gPloXmrs1ZPJd4vH1dcbypduCZcqBWtvCZ3/Xk1eUHL5k+LSk/1fPilq2UuOKjQkybXx1G+HVsv/Im0kACJsA9iCakBj1W590yVKDNbdGi5VDNbeEsrNvYHxVYPZOZFPp64H+Ysfl/6nK9CvxBn+eHjqt0er5X+RdhMAtgGsQTUgHh3bA83o6w1FRJYSBBFZ+vW2/tKvUbIQaTVpqJzpHgV1EZGPLpV+vfjx9V+j619N/W/GRVDx8NRvmTbK/yJtJgC7D0xvC8PwnXZeA9kaeWg1H4QxTF5Q8o+H/kv3MhIXJRC1mBjA2/WTsS+S+DYQJb489dulWCze8/JzPe+2+ufb/qnY8+jMlIj0tPs6yE70RMS2QG2HfvoZT0GOGBzIydg/fEH3Moz16klzK16oa/qlZ9f0tvMCzV0HXIVS8rMgkEPtvg6yE12N+96ZRfnWN/Ice1rh1OkCwd8hZ88vyqnTBd7nK5w6XZDXXp/nvW4ppeRn7b5G2wnAwmLhmXxnBwmAhc6eL3W/0x+w3PPjlEFd89rr87J1M1UAEfb5XbGwWHim3ddI5BOfGwLdwC2DdD+7zPfTMEnfmgmtWhr9u1L9jqCYlFLPJfE60OvNt+dl9Ad/lVdPLizrAPfF7JzIyQk+HF11cmLe2/f1qycXZPQHfyX4OyKpmJtYzZdmQLf42CjInebu860KkMU9GMhc281/kbZ7ACI0A7rFt0bByQuK4O+B8RPXvDgGS4Ofu5Jo/osklgDQDOgmXxoFf0HjnzeO/fJzeWzfKt3LSAUNfu5LovkvkuinOc2A7nOxUfDU6YI89bSHm8Mec204EA1+3kik+S+SSBNghGZA97nYKPja63xo+saVig8Nfn5JOsYmngJzQZA/XLhKlWN//nri8S5re1t44vdTOxf/VJNYD0BEKRmjGdAPV6aK8ubbpRv0bLxljWN/fnt+/Jps3dytexlNMenWSmRLKRlL+jUTTwBoBvRTlAgMDuSsOTUw8ZsFjkd57MpUUV49uWDFsUC6+pFk818klcc1rgmG6VewunrbH5pnakOg6VdTI0NtXvtbSyrv+l37p/rznR0X03ht2MXURODvD87yoQoRMe+2QAI/VppfKKx75YXeS0m/bmppL0cCsZIpfQJM/MNKJkwIZH8fNSR69K9S4j0AkWKx+KMwDEkAsMSEPgEm/qGa8RPX5O67clqSU/b3UU+xWPxRWq+d6rt9+NGZ/wxENqb5NWCvrO8bmJ0TOXiI0j+qy3orgMCPRpTIuePPrvnbtF4/tQqAiIgodUiC4FiqXwPWiu4bODkxLzuH8qk/gR375ecEf9R09vxi6qcCJi8o+d3vF9nfRzxKpXqiLvV6F7cEohmDAznZsimXeNMg434RV9KnAqKmvvfOLPK0j2YkdutfLelWAIRbAtGc6PKh8RPXEksGZudKQ1+AOA7/fE7++XB7A4II+mhXkrf+1ZJJxwvjgdGuqHFwcKCj6WSArn80a8f2fEs3BrKvj6QkPfa3mtQrACKMB0b7osqASOnDeevmXKxTBKdOFwj+aNqbb8839R47dXqR9xkSk8bY32oyqQAwGAhpiC4jqvVBTdc/2tHXG8rhse6qFaco6J/5wyLvLyQurcE/K2V26HV4dOZJqgBIS7WbCSn9o12VWwHRoB6CPtKklIwdP7Lmx1l8rUynXtALgCxEyQDBH0nYsT1P0Edmstj7j4RZfSGR7PY14LfommIgCW++zZl9ZCPrGJn53EvmAgAAcIPUz/2vlGkFQEREKfV41l8TAACT6YiNWq5lowoAAMCSzJ/+RTRUAESoAgAAENEVE7VdzE4VAAAAPU//IpoqACJUAQAA0BkLtVUARESGH535z0Bko841AACggxI5d/zZNX+r6+trqwCIiKhi8RGdXx8AAF10x0CtCcDLz/W8KyITOtcAAIAGE+UYqI3WBEBEZH6hsFf3GgAAyJIJsU97AvDKC72XGBEMAPCFUjKWxW1/jWhPAEREFhYLz+heAwAAGZg2JeYZkQCUqgBKezkEAIA0KaUeN+HpX0TzMcCVOBYIAHCV7mN/KxlRAYjoPhIBAEBaTItxRiUALz/X864oOap7HQAAJErJUd3H/lYyKgEQEZlfLBzUvQYAAJJkYmwzLgHgWCAAwCWmHPtbyagmwEo0BAIAbGda418l4yoAEdOaJQAAaJbJsczYBODl53reZSsAAGArpWTMtMa/SsZuAUT2PDozJSI9utcBAEATpl96dk2v7kXUY2wFIFIsFr+pew0AADTDhthlfALAbAAAgFUMPPNfjfEJgMjS+clp3esAAKCBaRPP/FdjRQJQvizocd3rAACgHpMu+2nE+CbASnsenXlDRIZ0rwMAgComXnp2zf26FxGXFRWAyPxCgSuDAQBGsi1GWZUAlLcCrPoPDABwn1Jqry2l/4hVCYCIyPEjN41zKgAAYAwlR48fuWlc9zKaZVUPQCXuCgAA6GbyrP9GrKsAREyerwwA8IPNscjaBIC7AgAAOpk+678Ra7cAIhwNBABoYNWRv2qsrQBEbDt2AQCwnwuxx/oEgKOBAIAs2XjkrxrrEwARjgYCADJi6ZG/apxIAERKFwYpkXO61wEAcNb0S0fWfEf3IpLiTALwygu9lxYWCvfpXgcAwE3zC4U7dK8hSc4kACL0AwAA0uHKvn8lpxIAkVI/APMBAABJUUrGXNn3r2T9HIBamA8AAEiA9ef9a3GuAhApn9Gc1r0OAIC1pl0471+LswnAKy/0XioWi9/UvQ4AgJ2KxeI3Xdv3r+RsAiAS3RdAUyAAoDlKqb02z/mPw+kEQIQhQQCAJjk07KceZ5sAVxp+dOY/A5GNutcBADCXEjl3/Nk1f6t7HVlwvgIQKQ8JoikQAFDLtE8D5bxJAGgKBADU43rT30rebAFEdh+Y3haG4Tu61wEAMEexWLzH9aa/lbypAEQ4GQAAqORDx3813iUAIowLBgCUuDrmNw7vtgAq7RmdeVEC2ad7HQAADZQcdel632Z5nQCIcGcAAHjK2Rn/cXm5BVBpfqGwV4mc070OAEA2lMg5l2f8x+V9BUBEZNf+qf58Z8dF3esAAKRvfqGwzqfjfrV4XwEQWZoRcI/udQAA0lUsFu8h+JdQAajAjAAAcJePZ/3rIQFYgSQAANxD8L8RWwArMCgIANzi66CfRqgA1DA8enUkCIJjutcBAGidUmqvr4N+GiEBqIMkAADsRfCvjwSgAZIAALAPwb8xegAa4N4AALCLz/P9m0EFIKbh0Zkng0AO6V4HAKC2UvBf82Pd67ABCUATSAIAwFwE/+aQADSJJAAAzEPwbx4JQAtoDAQAc9Dw1xoSgBaRBACAfgT/1pEAtIEkAAD0Ifi3hwSgTSQBAJA9gn/7SAASwAVCAJAdLvZJBglAQkgCACB9BP/kkAAkiCQAANJD8E8WCUDCdu2f6u/s7HgrENmoey0A4AIlcm5hoXDfKy/0XtK9FpdwF0DCXnmh99LCQuE+EZnQvRYAcMAEwT8dVABStGd05kUJZJ/udQCAlZQcfenImu/oXoarqACk6KUja77DTYIA0DylZIzgny4qABlgVgAAxMcZ/2yQAGSEEwIA0Bid/tlhCyAjLz/X826xWLxHRKZ1rwUADDRN8M8WFYCMcUwQAJbjmJ8eJACacEIAAIROf41IADSiORCAz2j204sEQLNyc+C/i0iP7rUAQEami8XiN9nv14smQM1efq7n3fmFwh3C5EAAfpiYXyjcQfDXjwqAQYZHZ54MAjmkex0AkAalZOz4kTU/1r0OlJAAGIa+AAAuYr/fPCQABuKoIABXcMTPXCQABuOoIACrccTPaCQAhmNLAICNKPmbjwTAArv2T/XnOzuOiciQ7rUAQAMT8wuFvZT8zUcCYBFOCQAwGV3+diEBsMzuA9PbgjB8ngZBAKZQIudUsfgIZ/vtQgJgKRoEARiBRj9rkQBYjAZBADrR6Gc3EgDL0SAIQAMa/RxAAuCIcjXgaeFSIQDpmVZKPc5Tvxu4DMgRx4/cND6/ULhDlBzVvRYADlJydH6hcAfB3x1UABzEFcMAEsTVvY4iAXAYcwMAtINz/W4jAXAccwMANItz/X4gAfAE1QAAcfDU7w8SAI/s2j/Vn891HGaAEIAbKDk6v1g4yNE+f5AAeIhtAQARyv3+IgHwGJMEAb8xyc9vzAHwWHl2wDqlZEz3WgBkRykZm18orCP4+40KAESEkcKAJxjhiyUkAFiG/gDAPezzoxoSAFTF3QKAE5jdj5pIAFAXiQBgJQI/GiIBQCzlQUI/FBIBwGh09iMuEgA0hYmCgJmY4IdmkQCgJSQCgBkI/GgVCQBatmv/VH9nruMxEgEge0rJ2MJi4RmO9KFVJABoWykRCIdoFgRSR3MfEkMCgEQNj14dkSAYY44AkBwlck6UOkTgR5JIAJCK3Qemt4Vh+E/CZEGgHRPFYvFHDPBBGkgAkCquIAZawNW8yAAJADJBwyDQGI19yBIJADJXni54QNgeAEREJpRSz7G/j6yRAECbiqoAEwbhm2ml5Gc87UMnEgAYgaoAPMHTPoxBAgCjUBWAg3jah5FIAGCs3Qemt4VB+D1OEMBKSo4WVfFfOMIHU5EAwArDo1dHAgl2kgzAaEqOKlEnKfHDBiQAsA7JAIxC0IelSABgNZoHoQnNfLAeCQCcsHQhEZUBpKX8pL+wWJygmQ8uIAGAk3YfmN4WBOHXJZC9XEyEVpQu4JFjShV/TSMfXEQCAOdRHUBsPOXDIyQA8A7VAUR4yofPSADgtV37p/pzHcFXgiD8ehDIfUIzoesmlJK3lCr+erGg/sxTPnxGAgCsEFUIApGvSiDfFiYS2mpalPybEnmfJ3zgRiQAQAOVPQQqkL9j28BMSuRcoOS37OED8ZAAAC0oVQmCL4sEXytvHWwRKgVZmRaR95SSt0TUn5RSH/B0DzSPBABIyPV+guDLVAuSUflUr5T6gH17IDkkAEDKKhMDkeBr5d6C24WqgUj5aV6UfKhE3o+e6An0QPpIAADNaiUISuT2QGSt2JskTCuRy4HIhwR4wDwkAIAlokRBRKSULIgsJQwiUq4qiIiIkuu/L/0jWVv+baNkYrr85y+v+PMfLv2FKv0+CugiIkqpD0RECOyAPf4/c0cZShBzYJMAAAAASUVORK5CYII=;" parent="PxfYsGnpCf7-yWaWJEkX-70" vertex="1">
                    <mxGeometry x="210" y="85.30262499999995" width="48.19763513513513" height="48.19763513513513" as="geometry"/>
                </mxCell>
                <mxCell id="PxfYsGnpCf7-yWaWJEkX-66" value="" style="shape=image;verticalLabelPosition=bottom;labelBackgroundColor=default;verticalAlign=top;aspect=fixed;imageAspect=0;image=data:image/png,iVBORw0KGgoAAAANSUhEUgAAAgAAAAIACAYAAAD0eNT6AAAACXBIWXMAAA7EAAAOxAGVKw4bAAAgAElEQVR4nOzdeZhdVZU3/u/ae59zxxpSU4oQQggRQggYEogMSiPSiIg4YHAWpxa1HV70RaRtfobXthUnGhVtHHACWwEVUFEjUyMGJQMhzCGGECqhUrfmqjudc/Zevz9uVRKQQEiq7rl1a32eJ0+KSlWdVSF11zp7r7M2IIQQQgghhBBCCCGEEEIIIYQQQgghhBBCCCGEEEIIIYQQQgghhBBCCCGEEEIIIYQQQgghhBBCCCGEEEIIIYQQQgghhBBCCCGEEEIIIYQQQgghhBBCCCGEEEIIIYQQQkwLFHcAQogXZ+TqbFs2ScCSkdLQNYe3BZv9OYZcFPQkF5JTjUQUgJ1jVo6Ij2CiDs1ccs/8MhHAPkALx36P9nA5BUAxYSMY/QD83V80GPDBKJCi+xkcEcg464wiRNQWPsjGOdMY9fN7HtnaMtho8FTS0AcW9oPu3NP1hBBVIgWAEDWCGQaA673giA73aHIuQp0Fa6XAcywAZ6jNGXd4EjbLgHOECA5ZctQCkGOrZsFxGoSo8qPNjoBOX1EyYgbzbtcCoInQkvAAIjzjD3dHlZeIkXKIknOOKgXBTpoIEbNjoAuAA6AIUARybKIugBwIBdLcO/ZnpsS65KzemgrdEyCnALXdMgrKiwLXke8i5amOlw4O0ie7+if+b1kIMU4KACGqiL8x33/6T02NuqAamVzas8p1NSU7G7zy3BlcarSgyAbqEBTNImWpmYkVgIUAkNEqnfZ9wD7zXp7HknfIDg67fqgJQMAMywx61o86oVIEBO5Z6wJ74CmCAuEfy4TK1/YV7faeytf3qVIrVGqI3a6vCLAWuTAqADBgbGRgmBQHlLSPgkgpbXtKnnpiyDV0twzltwKAZh040GDHK54apRXbC3sVuBBij6QAEGKSXbXig+mDSxtnLR3snq36/HnRsH8khVgCovkAAo9oXrNnELhKenXMcOCdyXbs3XDgnW/vjp/x+zM/YE839s/+3BfyQi8U9BwfsHvR8ew/VoSdBYWiyp8Tnvk+nxTKzmHY2q0KUBboJsXrqCF8QM8obXqksXHrnxMv2f6Z5M+GaQX2rpIRQuwkBYAQE+gHucOz514WzS0/mZ0fDSQWKsdHgXgxiOZibIkcDF8TKUMEBsNQJVWOJ3dGpQgYT8527Hfe7X1THQEgqqxDqN1KBTVWSRAAPfbOiCtrCpYZITOIEAAcMcgA6CaHDY5pg2oO7lN+5Aqe3zPnmnV3V/2bEmKKkQJAiH3ADDV04eFzwk2puXbEn6eYX2I1LSLFLRouCUYjW9UMoKVBa5XUCpGrLMdbMCIG7Njtua2jxD4ZzFhRoKjytgZBE8Gr9B9gMIrAhEEo7kelyIoiqK3G8qOW+XGddJuSB+c3N3z7sS4iyNaBEGOkABBiLwysmNsc/K21hYumQyvXRpnwBCY115V0JyLMJcLc9oSvQAQ4hmNGyA4hM4KxxC8mngLgKQVfEXyqbCQoqrQhDgUBAsvbWfMW5but0K57FMlhlNXaDEoPJ+cX+hu+9eggkWwfiOlJCgAhnsP21y1N214/mW52aTujcLwq0XyX91/CES0kYFG752VBhNA5RGBErrI8zbslen7W72JyPNeLGBHgEcEQwZCCobHCwCjk8qVeNnyLSUZ/52y45alUw6bRYqZ78UD/cPa99/XTuVIQiOlBCgAhdnP23e/Lfu/KdafpAb3UBmohKTo6QZg/9rjbzt1qxq49+fG3JWvUFkKlp2C8wXBX3wHAY70HioCCdVvAXAJRj2oOf0AHjW5sef2m9fRKlGIMX4hJJwWAmNaYkd7xuiVnqYI+CYrmO+KFCmgEIwlGMqGU8sfWiMf3791u+/di6hnvH1BE0Kg8CskAIjAcMAjiCEwbYbEe2j2i28uPtv7sxDtB35XhRaKuSAEgppXN/7aoI3Ofme9K3mxFmKOS7jgOaDEczU4blc4YA+cYwdjSfuh4rAtd1KvxpzAUEdJKwSiFkrUYsbbEQI8y3BuQ2q4c/lcr+1c3e7Sr8/uPbYk7biH2lxQAou51v/HoDpf3WgazyaNbwvIJJuCFNlTziDC/PZEA2CFvLcKxfXwhDBG8scZCnxTgGeTyRUDzrZxwW4Z9/2+pklrTbOz2gVO2DR/0yS7ZLhBTjhQAoi7x8uUKo6OmN7P9dBT1q1xRL+lIeCcDQNE6ODDs2FK+w64xuZL+xbhKz0DlLcJYUUCVqYdaa/QUyxvJuJVRg3to7YFtt55VOmQLfVe2CcTUIQWAqDsD711wcvhkwzkMLCKFJT5Rs2MgoWhn0mfsebKeEM9FEaDHHjM0BISOETBXJhszHDNdp1LhX6gtWtX+4wfWxR2vEC9ECgAx5Y1+ub2z8MdDTgfzETC8CMAiWOrQROmUqsyjD9mhLNleTCBvbJvAIwWfCLkwjJh4mIAtcHQXwH9XC4Zubfv244/GHasQz0UKADEl/f1L8xob72xZwoxF5LuXcUEvAzC3xTO+JoWiswidQ+Bkyp6ojrRWSCsNB0Z/GIEZXUjYdVrTPVzCBswZXd9+9WPb445TiHFSAIgpg69aanpvSHZ0zaTDDhgpnKgLankDeYsTRiOwEQKudO2PP6IniV9U0/gJi4oqzYOeIiS1BhyjNwq6kLLXdTcm72gIvAf9Ur5n1m/WylhiESspAMSUkP/mQbPyd7acwf3+ea0Jc3I0NmJ3/OAcBxnGI2rH+NAhhUpBoFCZP5DWCj3lcBP57gepY3tvbPiPJ2V7QMRGCgBR03qWH/1m9CffQoRlDO5QTMkGoxBxZYBLJAfpiClg/AmChCIUrEMADogwyA4bVDb8NZ/Y9ZP2i3pH445TTC9SAIias/nfFnU0rE2cBqf/icmdqp2aP8MYODDy1qHs5D5fTF2GCBmt4RNh1FqUyHYT091gd5s3u3Br048e2RR3jGJ6kAJA1ITcpw/P8rqW+f0NWNIclo/RZXV6k/IO85TCaBShNDauVYh64itCkzYAgN4o6GWfbxn2vdXpEq+nhuDRA66/rzfmEEUdkwJAxIpPOcUMLOpeEHYlz8SI97aOhL8YzJVlUud2PrMvyV/UK8LY+QSKkFYaymj05EvdKml/og8s/WbGtoPvpd//Pog7TlF/pAAQsem/aN6icF3rW8jhA41Gd5acgwHBAoiY4WR/X0wjmgiasPNnwBAwal0A4Ef+nJFrZ/zw0bvijlHUFykARNXtePPiE2nQW86K30SW2jJKpz1FKDiLQIb1CAFDhJRSUCAM2iggxcNgup18+9O23627lUiOKhb7TwoAURUDl89tDn7XcbZOhktdqBcjpGXtyUQydBbDUQRXeYJPxR2nELUmazRS2mCoHCJQdj0l7JqorH+dOXr43savbZQeAbHPpAAQk2r07Jd1jCRKc42l1/KQ9+n2RCIJZozaCEUr3fxC7C1fEZqMAUhhR6n8qM6GN1Mm/OPI0966Q+5cPxh3fGLq0XEHIOpX7t8POSzamvyKl/f/a4bz/wkEU4gsCs4hlKV+IV4Ux0DJMcrWIqVVWzOSJxWG1HJlTOKgjy/d8Ic/PJaPO0YxtcgKgJhwuQ8escQ9nnkLaXpPUqkOA4JjRpl3jekVQuw7Q4SEUnDMKDoHJozC4uaezuRlR/3PnzfEHZ+YGqQAEBPmiTOPX5ax0XkATkVEs1qN1xiww6i10s0vxCRQBGS1RkIp9Aahc0SbyOc/uFnDl3d+/7EtcccnapsUAGK/nHLHCnPDf/xu8WDGW5wphsvTrE5vTPoohyFGIkn8QlRLSitkEwkEYYARFfzIldQvMCPa1PHL9TJZUDwnKQDEPsv94Oxs32/6zmwZCS5uT/qL4RhDUbRzf1+SvxDVM34aYUopZLVGLggjJPlmnYi+02KCu+j6h2WYkHgGKQDEPul9+1Gnub7EvyCk0xs83WzHjuKVw3mEiBcB8IigVeX0wb5S1OU8d5W3NPer1i9ufTju+ETtkAJAvCgDH1m4OHwsczEILydgVpIUHCAH9AhRYzQRkkohcowyuxJp7mVHNyS0+XzTH+/pjzs+ET8pAMRe+fuZyw5rtPYsIj4nYb0Ts1qj6BwKzkKe6BOiZjlNpBqNhlEauXI5AugnbNzvsKDv7plXPNETd4AiPlIAiOc1+PajmrfYhmWd/fZd2rp3tqWTGCkHKMkdvxBTCgFoNBpgwiCHW3XC/VxH/ndm/OGvW+KOTcRDCgCxRzvetqiDRr0LWsLkZzQpDEeRHNIjxBRGqMwQyBoNx4zBMFq5bWbqC8f87FV3E62Qqn6akQJA/ANm+LnXHfNpLph/8TTNSSuFwDECdrLcL8QUN14EaCJYZhilUNThb9WB5Qvbvv/go3HHJ6pHCgDxDD3vWbiYdyQvRajPmKGN75gxIoN8hKhLSaXQ4BnkbYSCs6scqys7b733Z3HHJapDCgABABh46+K5QZ95ORl+SxsSZxEIfWEgd/xC1D/XZIwyAHqjaGMhoW9Me6WbZt60flXcgYnJJQXANLf9dUvT3sz8AupOfyxR8t6T9QyGogiBNPkJMa1oIjQZDe37yAWjD5pMeHEp8G6f9Zu1hbhjE5NDzl+f5lReXcJPNPy5xSbewwQMhqEkfyGmIcuMochipFhCOyUW2cHEtaqsP/vB65Y3xh2bmByyAjBN9Zx3xMl4KnsxE05tNsaPmFG0FpL6hRBJpUAAis7BEfV6nfl3tV7z0B/ijktMLCkAppmeK9uz+o8Hvs+VzYczbBZoAvLWIWJ2kBUhIUSFUwTVbAy00chFxY1E+GkUmF8dcNvfZJxwnZACYBp5+pTj5+pM6e0IzCXtiXRyuFyWEb5CiOdFANqSCeSDEHnnfqbYfa3ttrXriWTBcKqTAmCaWPX+kxcfuqX02YyiN6e0wkAYyU+vEGKvKABpraGJMBRFXWpm8eLiGwZvOOjcrlLcsYl9JwXANNDzpqPfxwPJS1KG5moCSo5hWZ7vE0LsPUWVAUI+KRABoyb4Ll7S97n2/3qyO+7YxL6RAqCOdb/y2LO1j/ezwykZ6EYmoORkmp8QYt/5itCkDQZsiAhYaS1ffsDta6RBcAqSAqAe8QqTO+135zLwqTbPW0KKMBCEiOSuXwgxMVyb56mQGYNRdK9ivrz99jU/jzso8eJIAVBnht+2tC2X99/elI+uaPU9jERWTu4TQkyKpFJoMBq5IHRDDd6/drQOXdf0g4f6445L7B157KuO8ONoLA3xVfOcd0VKa/SHkSR/IcSkKTmH/jBCVms1P9LfCXoSVzAjHXdcYu/ICkCd6H/HkSdGvakrmskcS0wYtlYa/YQQVaGJ0Kg1HDGGEa2i9sIFbT99+N644xLPTwqAOtD9z8s+oJT71xbyFjMDA1EkQ32EENXmWoxRjoBBDtdYR1ce8KfVP4o7KLFnUgBMYX8/a+mcTIHepIgubk/4HaNhhKJzkvyFEHFxaa1Uxhj0lIPtcPjCSCNunn/T6q64AxP/SBLFFPXkta9tTkb6iy3GXD7DMx0DQYhiZb9f/p8KIeKiCtZhIAjR6plZzZ6+MllWl/BTy5NxByb+kawATEH9/3boomhNy5/atdc5ElmELIN9hBC1xRAhoxWGQgsYdyOdOHBR+4rNG+OOS+wiBcAU0/vGY95t8/rzHdqfU3YOw5GNOyQhhHhOmggeVdJMiexm7/DCOTO++fD6mMMSY6QAmCKePuP4uZrCc9nRv3aY1JzhIEBZ9vuFEFNAszHwjEHO5ldRBl9su2HdLXKYUPykAJgCul61rMUHf06BPt6a8NAXBDLOVwgxpRgizEgm0VvOb6W0u6RYSv72oD/eI0ODYiR3jzWOly41HvMXGPj4DE+jPwgl+QshppyIGQOlEtpMYo4bNT/0ouhzccc03ckKQA3bfuoxczzSv1akliQUIXAs8/yFEFOaT4SM1uPzSr61ddB96ti1a6O445qOpACoUZvPfNlpjSV7YbPvnW6ZMWqddPoLIeqCR4SkVhiJbEDMt5R89eOD/nDvjXHHNd3IFkAN6n3ry5clQ/fZ1oR/emms01+SvxCiXoTMLm8d2pO+35ZJvQFEr4k7punIxB2AeKbedy16k3u69IVmMgvy1qJgpVFWCFFfFEH5RBgNIpSs284+PRJ3TNORbAHUkJ53LDo3k8v8IqEUhiMr+/1CiLrUYDSYgVHnbmHmj828bfXmuGOajmQLoEbsOOeYD2FH6hdppVGwTpK/EKIutXgGlb4m+1ut+HxJ/vGRLYAa0HvOSz/qhvUX2hNJ9JXKcJDkL4SoLwSg2TMoOoeC5Zuts5d23LZODgmKkWwBxKj/g/Ma7WjmLJdL/LAjkfZzxWLcIQkhxIRTBKSVhgMj79zNbN0XOu9Ye2/ccU13UgDEJPfpw7N4NH1RQznx7z4p9IWh3PcLIeqOApDSCgTCsHO3OGU/NWvl2kfjjkvIFkAshi6Y3VJ+OH1hJvA/o4kwGEWS/IUQdanBaEQMDDt3i1V8/oEr18qyf42QJsAYlDd3fMgPvM+klMawlW5/IUR9avUMAmaMOnuzZlxw4MrVkvxriKwAVNHwBw9rC/qSb3aj6oImL4HeUknu/IUQdUcBaPE8FJ1DyfLNrN0X2leu3Rh3XOKZZAWgSphhyt2ZT6RH099pV4m2XKkkZ/oIIeqOIULWaAzYEKM2ujFge2nnSmn4q0VSAFRJ/7uPekOmnPj3JCn0hyEgf/dCiDqjADRojZAZLhNdwscE7zjw9rXr4o5LPDdJQlWQO2fxB7g7eb2HSsOfzPUXQtSj1oSPIRehlAo+Fy5WX+/86oZC3DGJPZMCYJL1vOmYj2LYfK3VS443/MlwfyFEXSEA7YkEesJygKT9T39e8K1ZK9ZK8q9xMgdgEuXectTb0Z/4YZsM+RFC1ClDhCaj0R9F4GT0Jf+kvsuaL946GHdc4oXJUwCT5E8fOW2B2jh8bYvvQZK/EKIeaSJktEbBObi0/X8dS7q+QhfnRuOOS+wdKQAmwV/f/Yqj5z02dG1Ga4yGUdzhCCHEpGgxBsMuQpgOL7GLd3ydVuRk2X8KkS2ACZb752XHRqArZxAtKzqHUBr+hBB1qD2RQC4oOUq7/9Cdg19r+e7m4bhjEi+ONAFOoB3/fOyJzLi0U+tlEVgm/Akh6o4iQrvvIxeWIiT4q+Ujd1whyX9qkhWACTJwyuLmQHs3dSS8k/ORRcFKs78Qor4YImS1Rt5ZhH70n+YVg5e1fEaS/1QlPQAT4I5TTjElM/pFzTg5dIyiJH8hRJ3RRGjUGiV2cJnwEjd/+9dbPrND9vynMFkB2E9Pv+KYNuWbSwn4SEYrFJ2DzPgVQtSb9kQCI1GIcjq4pO2Q3Ffp8q5S3DGJ/SM9APuBr4PvNdFbNegjMzyDsmNJ/kKIukIA2lMp9EblnnJD+V/8Q4JvS/KvD7IFsB96/+eYNyFUF7YlPAwEoTT9CSHqifOIVLPnIVcuFKghvKT9l/d/P+6gxMSRLYB91H/BgkX24ez1bV56QV+pBCfJXwhRRzwiNBqNYWvh2ovLW3/2wA1xxyQmlmwB7IPZfEEyfLDh9206sWBQkr8Qos4QgGbPq5xfMrvwOkn+9UlWAF4kXr7Q3z6Y/Wmb0ucCjKHIOkghJYSoI+2pFHrLhYLqKJ7Xeu1DkvzrlPQAvAiPv+xljT397p3Nis4N2Y0/6y/JXwhRD5wmUi2JBHJBoZ8awosl+dc3KQBehIYmdwYsPmcUIS/P+osaRahMawMATQDtttDHYGgQFBF47D178xUJgGOGBf/D17O867qOGfKTMSVVGv6MQa5ccqoluqDtuvt/EndQYnJJAbCX+t591PHcYz/RatIdA0EgHf8iNmq3pE6oLEER7fpvYFdaZ/CuHpWxPwyZwS/q3y/v/HSiytccvwBRZTrcuPG3GXhGb4wb+3wHBvPelR2iejSRajIGw85CdY6e03bNIzfGHZOYfFIA7AXOIdv7ruRX2sg/cSSUx/1EddDuvxMBzFBEMGO/QJXkb4igxz9aEQJrMRTZHgYMAY8yo5uJk8SklINB0m3ihH2SHHxA6ReOxFlSCKKSOQQBzQchYLAjphIRZgG8EEAAIDBEs2YkfMC6nT8nDhhbOQAiZoRurCgZ+552FSsiLi2JBHLlEszswuvafvTIb+OOR1SHFAAvhFnlXnvsL5pYvzxkh5Jz0vQnJp0mgq8IPhE8UpU7fFVJmLlyEDGwEQyQxjD8aKPyuQuOVYH8fBCZrc0hdVliRez6I4cCkVJgVk5rZbUbTM0dHNZhUo2G7gX/LWc95axXcsHGGY2a/GbjXBSA4Ng5j0xaKdsSKnLM7EaNaRs24dysLrdzqOaACOyohUKa7cARgea2+6YR2gDWAcwImRGwQ+hYTs+MQXsmjd5SYVC1BB9r+dFDkvynEXkK4Hk8tHChn5zf9KF5kb4CziEXhpL8xYTTRNAEeKSQVAqKgLJzGI5sBKCXlevXmgdD6JKz1Os7fsCCN8GS44Qb1YeWNrZf+VAXKlv/NTGbnR9Ctv+rR85hTc71JdrcgJmttI2YaW6k1ZGk3GyPXJIdNYKphR3a0lols1ojcoyAGZYrJ2rKitukqOz5J3x0l8vbTdJ+rv2362TIzzQjBcAeMFaoHa+65UwD/k1KKxQdy/P+Yr8pAhQIigCNylJ+BEbgGJY5AvGoAynF2MzgDYB6yJtRfti8ZGjT1/+zdesKWlsTCX6/8XVq4Esfn2Mf7Jjnev2FFKojmbCIiRcCSBPDEGASSsEjqhQDAJgZFpCfxf2UVAoNRiMXhtg2M3nSMdf+eVXcMYnqkwJgD7a/ctnpRrkvtnrekuHIytKk2Cc0/osICpVb9EqXfuXO3yNCfxgNg+lh1naVWTB0/W2HzNl6WWZ+z9rzvxvFG331/dd/nd1x7j1bT/MG9VIOzUIid3Sj0bOAseZFAI53PW3A0lT4ohkizPA9DIQhVh/efMSrv7Xy0bhjEvGQAmAPcmcu/UEbJ983EkUoOycvMGKfeEQwipBSClpp9JUDWOaNpHkTp9zDuWT6f1uLvBkjtpDK5Aebf/fAYNwxx43vgBn66lHZ0Xw6qxBlcwdkZrUX8yf6JbzUhWo+gIXtvu8DjIKtFOehY/kZfQEEIKUVUkTIsftrbmb6Y0f99M41cccl4iMFwHPInbXk/+OyuqRd+yYXhnGHI6YQNbaXn1CEhNIoWYvhyBag3BZKuTVU0n9BpLpgwh5+Sbmr49sPd8cd81Tw9y/Na5yxqnlumPc6CDxLpe1xtkzLKKLDklo1NxgDyw7DkUXELL06z7Ir+SvsYLsySOlL5950jyz7T3NSADxL1ykvm+0r91R7JolcoSQvJGKvJFSlgc8yI28tGChAcw85rHeONiqf72v75ppb6CUYjjvWerHj9UtOx4g5SRHPc8otIVazkqSaG4xGwTqUnZMGQuxK/grAsHOr+lv9Ty38xV/+GndcIn5SAOxm4A2Lm4MR/3uG8OakTPsTz4NQ2cM3Y3v60dhz7oHjbmY8CM3rEkeM/qL5G4+uiznUaWHgi51zy3fNeoMq6/enjVpUdgw91nDJqMwfsNOwGBhP/mAg79z6BxY0vuW0K2/bGHdcojZIATCGV7Rne9Yd+KF0MfEVIozP+Rdip90b+jQBCVJIegYusuiNopXUGvzCaynfXt7s98zs8wJau3baNfHFiVdA9f/tZVnrhR1K8XluxLxzhjFzK6O7LcpuvGFw+vQLpLWCB8KAs2vuXTxj+dlfXbkl7phE7ZACYMymc5a9oWnI/brZeBip7CPGHZKoLc5TpJq0ASmFfBiipOxfSwm+c1Ql72srlDa0Xr52Mx2JIO5ABbD9g4e1qc3Z+V6DXcCBfoUt6jM60slZcIxiFKHoXF2vCIzf+WdI4Wl2t7oO71Ozr7l7Q9xxidoiBQCAHa9ednQEdfks3z91oFiS5C+eIa0VMtpgKIwQwG0mwxs5VOt0JvrzY1f23HniQV2luGMUezbwoQVzy483nhoZvNpjnkOOD2tUpkUTIe8sAldfP+/jyT+hFHqtvb2U1Zce8ut77oo7LlF7pAAAkDvtuF+0GHPuiK2/FwOxbxQRUqoyY3/YWoAQkcNdzrc/THx23W+bX4Fp/7jeVPT0v750odms3saBPhNERydIGU2AZSB0bsqfZLhzzx9AIXKrtnR6/7rsZ6vWxxuVqFXTvgDInXv0WTzgf6fdJGbnAlm9ne40ETQq+/wZrZCPHIrOXWdml67lc56+vf31vaNxxyj2X9/H5jeiK/MBN+yfZ4iOTmmFcmUa45Q90ng8+WsijEbRulGbPemQO++U1SmxR9O7AOAV/o7Tf/dYqzZzh2Xff9rTRGg0GsYz6M2XCkWfvtvdmf7xgi0jXY13ru2NOz4xsXjF3GT/qvY2mwxOp0Cf50XeyU2eQdHaKdcjsHPPX2v0BOHtxqrzWu/8W1fccYnaNm0LgL8vXdrodZhLO536PwAwGEXyzP/05BJKqUbfAA7oCcNNJZ9uSQXuL72NybsW/urPMqinzt3BMEe98dglPILF7PM5CNXJ7cZLhsxT4nVhZ/I3Gr3l4EYCfaHtttUy4U+8oGlbAORevfTMjDO/cwQUrYz6nW4UgKRWSCmNgTCEVehi0AZl+fqO21f/KO74RDxy71p0LO9IvhGOTgb4+HbPNwVrUajR1whNhKxWYABDkb3d0/yJlpVrHow7LjE1TMsCoPddixa4Xv+L7Zx8w7C1KLupuOMn9gWhchiKItr5PHho3cr+Jv+yBb9edXvc8YnaMLzisLZgbcPnvJL5KFApGC0qjYK1UggQKhMoHRiBc+s8G71qxp3rpTlV7LWaXtqaLMW+zIfbdfoNwzaS5D+NEABfEZp9DyXrEIB/Es3Kv16fPLhckr/YXeOKjb2t71r7idUHZ19aYL7GMdDkGXiqUjzGTREwwzMoOReUHH+j3WZPkuQvXqz4/yVXWc8/H/dxx57TTgcAACAASURBVLh0puc39wZBzVTzYnIZIjQYjbJ1KKhoA/n8w3Lk3TD799IoJZ5f32teNttmi8dj1Dt/hvNPM0phIAxjO3SIADR7BsZo5IrlXzntfbhz5aqeaschpr5pVQCMfmBRR2Fz6n/bE96C3iCU5D8NEAHN2sAohVw56AVwtc7aO8qv7b5r1vnbC3HHJ6aO3nOOXuYGE+fAuDPaKHG0A2MgjKr6OuIRIa0VhiIbMHADGFfOvH21nOon9sm0KgB6Xn/MZcibTzdrg8FIxrTXu7RSUEQosoVl3sisfjDztnu/HHdcYmrre9ui02xf8vIk9CIDgmVGsQpbiR4RUpXk74jwjXLeXHzQPffIc/5in02bAmDb6cfNbiX9lKcIfYEk/3qmiZBQlZP6hkNbUgn3/cTbuj7f8O4dskwqJkT+qrbOwk1zLnUl/Z4mT/uBY4STeOKgIkKz0egPI+eYv915+5qPTcqFxLQyLZoAt5+0dI62fKkCoSin/NU1RYQWzyDjGQx7wdVIhie4bPFiSf5iImXO7+2GyX9KNdoTRrzgmgbPoMWYSWkQVAS0egb9YRQR4evKZS+e8IuIaWlarAD0nr343aaQ+DERENTQYzxiYrV5HkgReoJw63CKLmtIFm/pvH7DlrjjEvVt8C2L5gUl73wqmPe1aq+tzA4jkZ2Qr22I0OwZ9AZhBNCXA0vfmS0T/sQEqfsCoPv9RyzST6cub6P0aYPlAOEUGu8p9k5KKWS1Rs4Gw8S4t6zUT2evvPcnccclpg9mqNwZx34EEb3DIzo+qzWGrIXbj9eb3Rr+HIO+Tpa/1nHnaplMKSZM3RcAO1513FWNWn8wYJa7/zqjieCN/RpxFioTfnbLjeu/fCxBmjxELJ5+5XELtcJlvqKzkkqh5Nw+nTBqxg6jGoqsA/CtIX/gwpf8fpOcViYmVF0XAN1vPfpU1ed/p90kDpNn/uuLHnuBtA7Ic7ROHZK/qO17j9wad1xC9L1jfiPnGz6eLPifz2gzPjNgrz9fEdDieegNQueAb3XetvoTkxiumMbquglQ9fnvAtNhRWsl+dcRQ4QW38dQZINRZ79MrN4myV/UitZrNw1TZuQbxZbCO3pteX2aFNJa7dXdliZCayX5Rwx8lYPo85MesJi26nYFoOedR87H0+k7moyZPWIj7MMqnKgxBKDRGPhaI2dLmxj8HUTmmpm3/U06/EVN2vHGY0+L8upTs5Q+IwQwEtk9PSrofEWqyXjoCQLHwJetxpUHrlwtDX9i0pi4A5gMD11wQovaWP6sp2i2ZZbkXwfG9/tLzmKIw83IBhfP/NWGG+KOS4jnM/PXa25dv/yEYb8v8plwSqPRquwYZeeeMUY4qZTyFaEnKvcrUlebKLhsxm0y219MrrpcAXjgzSe9aVEBvyxbi+EJehxHxGe8IWowtCDPXee/vOfi5kue2hx3XEK8GN2nHvtNIvpQi2fMSGR39gV4Y4/65aJwUDcH57def/91MYcqpom66wHInbp0Sftg+H52jLLc+k95hghNRgMMlJP6v+jc5Psl+YupKCx6F6qm8LxBF3bNSCSgxo6lbk4kkLNBFzWVPyzJX1RT3RUAxYQ5ZYZSZw7bCIEc9TuVuZRWaDQa/aHdOhi5Dxcz9JX29/9lNO7AhNgXB91zT6ntY+uvc+nw4lxU3NSaTKI1mUQuKm6iTHRR22dkS0tUV11tATy1/IRZesh+74BE4sz+YnnS5nKLydegNXxF6A2jrQS6pOM2Gewj6kff65e8x5XUVwBAJd2FrTet+1HMIYlpqK6aAP3+6MMEvLxYDvdrApeIV1orEAF9UbQJTF/ruF2Sv6gvwzP6f54pNowCwHBq5LdxxyOmp7pZARj88kHzgltn3tauE3NzgQzMmqrSSiHjechxcSW1hhe3X7NhXdwxCSFEPdJxBzAR1uCDpsEb+bYHOgnAPo3eFLFzjVpTyveRo/wtaLQXd/xsw31xByWEEPWqLrYAWhq650VPpt+UTRNGMkUgwUBUN4sb04Fr93wVwiFH+R9xJrh85s8f2hB3UEIIUc+m/AoAM3wzWnpnsjfzGh70UQ4BSljAMOpoh6OutRqPAjgMU3hz++/WvSe7PLct7piEEKLeTfkMyffjeNurf6oea50/8r8HoPBgE+AAPbMEeA6VQwAIchhA7SEAGa2RMga9Kv+ztt/cdx7JSX5CCFEVU34OQH5V6yn6AJ5Pp/cg+38fROpV2+BGfURPZYBIVVYCSLJ/LcpojZTvo88f/Yb6yJMfluQvhBDVM6W3AMJbsqeqbPGjOo0DUWZQm4PpzEN3jEIpRvj3RvCwB/IdKGkBnvILHvXCtXkeeVqhz+S/kVg4+vnmD28biDsoIYSYTqZ0E6BLlF7jt7plGFKIAgNVsjAHBMi++WkEh4+CyxrldW2wRQNzUB5IWsDJdkDMXLvnqRI7jCC4znvDE59reO+gHHoihBBVNmVXAPhPFzUGdvVFXifPcUOVnO6KCnCAamDozgC6tQguGdhcAjzqQ6UsYBzqoPVhSiIADVqTImBQhTe237Lu7aljSvm44xJCiOloymbC6Db9HWZ6n0nDt0WAGc+4syePoTstoID8TTMxcvUCICSozhIoFe3aDpDVgKpJK4WM76NX57/fdtO6jxGhFHdMQggxXU3RJkA2bOks08K+LYwlf2BXOcMABwTbowACMmf2oPFDD4E1I3oiW+kL8BygJPtXictojYznoReFW6gp+JokfyGEiNeU6wFghuq9ueV0VtQBfo4beBr7xYAraGAbQXdYpP+5F5R+BOU/tyJ4aAaiJ7JQjSGoORjbP5iyiyG1zjVorZiAHBdv9ZrtZ2f89MFH4w5KCCGmuynXA/Deo9tmHtA89HVFOJQiYI8n/hJACuCyApcJKsvwjsrDO2gErj+B6IksXMEDGR5bDYA8JTAJUlpRUmkM2nBj4oDgQzOukfG+QghRC6beCoDzl1ELnYICEO1F+xh5lbHA0VMG6GaYg8vIvnkLVFOA4r3tsNvSUCFBNYeVLQGWpwQmiiFCSin0huFWAF9r/vEDcrCPEELUiCm1AsB3Jw7LePkPa42jEQDO7uUnjm8LOIIbIejWEIllg/AO7UdwfxvstgyIGJS1Y30EshKwvwwRGo1GX2i3AvjszNvW/DDumIQQQuwyxZoAy4s03NkoA/xiZ8YRKt9tqGCHNDgA/KOKaFnxIBrf9ThUJkS0sRGuNwGAAS3LAPuKAHhECJ2DIv58wWZuiDsmIYQQzzSltgCiXHKhmRc2YhCwe9r7fyGawSUF20PQLRbmsFFkWgugjEX+l3MQdWUBR1Ct5coYYTlV8MVyTcYoTylsc+F/J9L+zw+5+U7p+BdCiBozZVYAtr//xDkuMsdB7/8ePZnK4wNRj0H0mAFlHdKv3obsW7bAO2IAbsTADfiAJXlU8EVKK6UMAT22tOmCzxx8YfvNfxmNOyYhhBD/aMrc3trbzKUO/EmTpKwrAW4i8vL413CAaomg2gC7HRj82ksR3NcKlQmhZpakOXAvaSK0JHzkotJG/7Tcq5svfHJL3DEJIYR4blNmBSCw+jQzExOX/IFdzYEEuCED1wvoWUDz/3kYiRO7EeVSsE9lKsnfuClULlWfJkKL76M3Km1UTdFFkvyFEKK2TYkCYOB37ScbsnNhaeKS/+4UAAe4AQO3Q0HPDtH4gS1o+sgj8OYPwXalYbvSQKAAb1+bD+qXJkJaK/SUyxED32z99Prfxh2TEEKI5zclmgAbU33vd051YGTnkL+JN1YE2EENgGEWFJCdV4A5MI/Raw5F+GQWFoBWDPhOThXcjUcE6wAF/vpomW7oOBYv9hkNIYQQVVbzcwCGPzWrzTs0/xWToSZX3m3u/2QggAhwRQ0qMSgFmAOLUE1lgAkul4TrT4BSFrRzS2B67wuklIIhQp6jdX6y/C8H/Om+3rhjEkII8cJqugC4G5dlWw7a/J700t7llGbYUhWS7VgRwIGCG1SVeQELC0iekAOXgfKGVvCoB8rYypRBHvukaWqG52HQRk4dWnhXy/889Ejc8QghhNg7NZ25+NqmeYEXfdOfGZwJxYjK1bw4AIdKQZC10G0MLmsE9zei+MdOlFZ3VOYFtJdADSEQqWm1JUAAWjwPfTYYRtp+seOm+74Ud0xCCCH2Xk03Afa22jmms3A6FMMFVb44obI+QoAbNrA7FMhYJI4fQPatTyJxTC+4qBBtzYBHvMrkwGk0M0ARQSkCmO7yj+j777jjEUII8eLU7BYAP36LX+751RvTB0ZnoAjYuNrKxk4VREiw/RoIGWZuCNNRAEBw/T7cQBJQAPlu18yAOmaI0OIZ9ERhFxiXt/30kdVxxySEEOLFqdlMFd5qTiHCpTqDk1EColroK+exX4ZhZlkgCRT/0IKh/14I5A1UWwmUsWMfVL9PCWS0Qtoz2OS597/kxnuujjseIYQQL17NPgaoVHS8gj4ZAe39qX+TbbxcighRt4aZaZE8qR+q+T4Eq9tRWHkQ3IgPPTtf6R+ow0cF01pDEdBHxat1WyDP+wshxBRVkz0AK8C+HUm+FB0A7ARO/psI46cKlhWipzUQAYlleWTO3Yb06V0gcggfnAHX71e2A+roVMHKKX/AaGiDyIsun/f9B3vijkkIIcS+qckVgI9/9IjDmDAPmKTJfxNBM7isYAcBrRxUc4j0WV1QzREKd3QgeqIJIEA1hZUiwNbsbstea/M89EURygn15dm/3vBg3PEIIYTYdzWZleyd6pMuUheaLDpdvsZWAJ6NAbYEIoY+MAK1AuHaJAavWIRoUwNUcwg1o1wpAhhTtkHQI0Kzb9AdhXcfsHL1K+KORwghxP6pyS0Acvwak0InSpM8+W8iEECaAQLs0wbcDXgLS2j+1P0wh47A9SXg+hI7P7Y2S67np4nQ7HnIuWCNbit9Nu54hBBC7L+aewxwy+Gnz82++snPqGZusHmaGj1044mdAS4qwDHMgRbJ4/qh2/Ow3SmEjzeBIgXKRIDhSoPgFEAAPEVQTCg7vqrjpvt+EndMQggh9l9N9QDwHaeY/OPrTgRRI6Ip2ECvKtsBbkgD5KA7SkiftR0qZcE3KERPZ4FehmoJKgcKRbVfBPhKodEz6EXxD5Si6+KORwghxMSoqQzEa9Do8uo7LlRvNQmoqo7+nUhjfQEAw8yJgCKhfG8bin9tQ3l1+64Rwilb048KEoCkUggdw7YXXtv+8wdviTsmIYQQE6O2egC6k20c0pkmCeXCuIPZD2N9AaSBaKsHjoDka3Jo+vgj8Jf2Ag7gQR8IFACusTJsl7RWCJgREK72uppXxR2PEEKIiVNTBcDofa1LdIqaoQHn4o5mP431BZBiuGEN9zRBNQJN//Iomj7xAPzDBxFtyYIDXXlCgGpuGcCltUYEdvcdmbms+e67B+MOSAghxMSpmR6A0Vs7OsxI/wkAgFqZ/DcRFAAHuBENtgw90yI1qx+6PQKHhNK6dqikheosQmUicI2cKphQSg2EEcBY+Zor7tgYdzxCCCEmVs2sAGSSPYd5M8qnwQKohbn/E0mhcqrgqILrV0AIeIcPI/vOLci8disoGcHuSMHlTWV6YA1sCTQmfISOtyioy+KORQghxMSrmQLAjXgLVZKOBgBbTysA4wggw3AjCuETHtywgn/cMJouehzps58CJSzstjR4dGxRJsZCwBABbEGEW9tv+9ud8UQhhBBiMtVEAfAbrEkHvalj0IBKB30NLIFPGgLIY3BRwT6pgQBoOO9JZN+2CfAZticJLqtnfHw1eUSY4Rn0uuC35qDSFdW9uhBCiGqpiUFAV9/8sxN0Y/AW7fPBKNf46N/9tfs0wIjgCgoq7eAvzCN5TC9gGeEjzXA9SZDnKoODqjg+2FcKiVQSo8XyVe2/Xn9T1S4shBCiqmqiCdBrGp0Pq2cjoPq++9/dWE7nMsHmNFSzhbdgFNmGrUCkUPxrB2xfEhoANYWVxsBJnh7oUWXyYm9x5FGVwp2TejEhhBCxqoktAHbmKHaYh6jO7/6fbawvgMuEaJsHu0NBzy4jc85WZM99Et6hw5XmwN5EJflP7tHCLq01MloBaXdpz7vXyml/QghRx2IvAD4INlHJvNzMBmxY5/v/e6IA8hlcUoi2GphDisi+byuy73gc+oAiuGAqzYGWJrM5UBExBqMIUS9uPfJcBJNyFSGEEDUh9h6AG2f/7YzMK59ablrDZs7XwPNvcWPA5QmkGd6BZfhH5qCbg0pfwEACqml8ROLE/l01GYMha0dVNryoY+X62yf0iwshhKg5sa8AtFx8b6fOhj5KsYcSP0Ll/0ikYHsMXBHwFpWROWc70mdvhUoFCB+YAdebrEwOnMAtAd9oOEJw5z81/HzCvqgQQoiaFXsTYHJJ/wlc1C0oqWm6/v8cNINDghsyIGVBSYv06duhW0MUbutAsKENwNipgporWwP7wSNCMQwB5jXnXPDn7on5JoQQQtSyWG+7+y+a18h5fYZOU9IFXAsTcGsGGQYcEPUYhFs9UINF6txuNH3iEfgv7YMb8mF7kpUDhTRXegP2gSKg2TcYcW4jga6a4G9DCCFEjYq1ANAldTw7NasuDv+ZDDtPFWTYbgP3FGDmhmj+5APwjxoA5w1cv19ZAWDap7YABQKURuipVTNvXf2rif8mhBBC1KLYtgD41oaWIOh6FWlW0m/+PMaTOgNuwACRg57l0LLiIZT+PAOFWw5E+aEWqIYQemYJ8B0Q7V0loIngK0JPobTVkPrj5H0TQgghak18PQA00uxlaBGcrq/T/ybL+KmCo5VFG9UUIvWqHlDKgiOF8IlG2FwSurUEpCwQvvDijkeEjNYo+tEtPCd/J26b5O9BCCFEzYivADBI20jPMwaALP/vHQWAATukYQc1zIEhEsf1gXyH4r1tKN3ViWhbBrqjCMqOHanoaI/HCxOAsmUgHf5vx7cfluY/IYSYRmIrACJGlpjnQxFc+MIfL8aMTQ8EA9E2D6opQuKUAfhLBwBLKN09EzziAYZBxu08ivjZRYBHBAtGyUWbwlx6fRzfihBCiPjE1gS4Y7B9tp5BBiQNgPtkfIzwqIZ9SoF8oPG9GzHj/25A4phe2CczsE9lKicL6n+cHphQCgEzkI1+7M0f6IrnmxBCCBGXWAqANfhCZ2pN9oTKbak8/LfPxk4W5IKCfVpDNQKJfxpC9twnkTxxB9ywB7s1A87rymrAriLApbSCTwqbZ6b/0H71Y6PxfRNCCCHiEEsBMPstv2hLHzQ0GxEm/YS7ujdWBLiigu1X4BGCPqiAhndsQcMHHoPqKMJuz8ANezvPEfCI1EhkUbZu3fXz5z0c97cghBCi+mLpAWj95IZZFNBcRPIEwIQY3w7IK0RDBJVxMAvzaHhpHtQQIX/DXNjtaaiZReiGCBlPYTC03Ui47331wp8W4g5fCCFE9cWyAqDyapnWahkiwMr+/8RRAHljxwtv0cAokD13OxrO2whqDsH9CXBRw1MapF23eU33b+MOWQghRDxiKQAKgX8wZhDgZPz/hBvbEkBEiLYbcB5Iv6YXbV+9F+nXbq1MDuzPgIlKrR/fJs1/QggxTVV9C2AF2FC+oREUYrIOtp/2xv9aI4Lr06AGBzOrjIZzupC0BrkNTY4HvLtjjVEIIUSsqr4C8PGLDl3g+1EHSiT9/5OJUDlVMCDYboMop0CHBPDf/RSSJ++4q9jV+su4QxRCCBGfqhcA2TO3nIx0OA8lgGX/f/KN9QXAKmAIwGFFpM7Yfu/cbb+5N+7QhBBCxKfqWwAU4VACWhDJBICqUWOnBfcZoN/BmOh+gKT8EkKIaazqBYBSKDhLEeg5J9SKSaIIgAMsuFt7GIw7HlHblq94yM9hoRSJQkyyw7YD3/0uRXFcu7oFwHJWkU0s8X3XjFCeAKgqjwEQooda1ow80dgFPBF3RKIGnfz/RhcZTef3ETqVy8uESCEmEbFTm+aollO/MPrL2z+b/VG1r1/VAuAryXe3wWIJWoBIzp6rLq/y29C6mXc88d2vbgHOjDUcUXuWX8eq9/HSMu0nP5puA0IZESXEpCIFJBqBwS2jLaevGLll5YqGnmpev6oFwHtzj85RFg5R5W5UVBETYIH+0/Krjv/umcNxhyNq0PUAL+aCDQqj5eF0NiwGskcnxCQipWBDA4BaQk+dAuC6al6/agXAcrCyfS8/jEPtgyMQkWwBVInxAC4CjnnVQUc+uSXueETtGhvPFbEF2Mo53UJMJmYFFxoQ0Kzg5lT7+lUrAP7zGy8xDcnBWUhYH4GS5F9NGrARIjL8YGYEsrArhBA1geGsBQOdzDiy2lev2hyA+Us2+Ymjew8hzyYhNxbV5QFsqeC2ZVajYWEp7nCEEEIAYAbbEF46AxAWnbLiiWQ1L1+9QUAefM7TAkXkywmAVZZgwKngySuWraIjHw7iDkcIIUQFOwtlAAJmGz1rbjWvXb0CoAyfWM1XHgB5uri6iMCaoy/NOVqevRBCiBrjIoBBJtLRgmpet2oFwP09B3eSojnwgEhWAKqCCDA+YHvhSNnbf3D95f1xxySEEGJ34w3xbDRj1tKruGq9eVUrADq3uTnkVetqAhh70NIDGNzr+fb+uOMRQgjxbDx+Lo4P5oNbh+FX68pVKwBSPUjDQp4rriYC4AMIVXd5a/rBuMMRQgjxj9haAEiDsMiGI1VrBKxKAXDdcla6KaxaVSMqiACkGK7oda1+xyWr4o5HCCHEP2IXQntpMLBYaV21AqAqew3LP5Sca9m9EgTII4BVpghRAoVX4GI5AEgIIWoQOwuVILDzZ1EYVW1lvioXKnPZOO2qfvLgdEY0tgIwAnh+uD3ueIQQQuwZA4DSsAqzq3XNqhQAynlpxdQGQHoAqoQIgAKiIQ48HT4ZdzxCCCH2jB0AZwG4w6r1JEBVCgBPh43MmAOCFABVMl4AkEKXha7qCVNCCCFepLH5+Jb03Oa+kcZqXLI6ew0KTsFFVbmWADBWAGgATJvZ0da44xFCCLFnzAwQQbvoQEteHRUAjEZmmgdg/HlHMdk0AB8In8rc+7drP7ku7nCEEEI8Dzc2IY9ovnKupRqXrEoBMFzIztXNlAUAJwVA9RggGklEL7/6MjkBUAghpgJmZao0Lbc6TwE4rxGpytvSAlBFJYbXXMpdhbXVO/NBCCHEi8bj2ZFUmzUqXY1rViUxGDgnJwBWj1YAGLAjGE7MG15zPo6V/gshhKhlzqJyLgAvYsdt1bjkpBcAv8Fv0slBzBzvcBSTjxTGT1zcGFjI8r8QQkwdAavqdMtNegHwOpxVUoGSO9AYELGichWPfBZCCLFPmBkAw0tnfAWuyrHAkz5sYOQnsw5TzaW5CGn8rlRMtrF5C5xwPZ5CKe5whBBCvJDKKrn2ATvKTdW44qTfHaYOfnohNZbnI4R0AFaLqWwnRd3ZjYUH2uQMACGEmCLYApbIvOYbPOkH6E3+8rDVJUQqqBxOL6rCMFxEGP3lIU9vPP+jsgIghBBTALOrzMohzM4PledM9vUmvwBgOMjif/URnG4vPHoMVsgKgBDi/2fv3uPtqqpDj//GnGutvfd5JZw8TEKIAUMM4SFKABWqCAg+KRCSarXa1qrt9dreWm+9grRpFbnWe6X9eHu9tlVq5WUi+KoiVCBaX7WIaGlAxAAxBAjJyXns91prjvvHPkFU3uTstfc54/sRFETXSLKz51hzjjmG6SMCIY5KM75uzngCkKlkCJntAHSTgCjJSNsSL2OM6SOqIDAK9RnvBjjjCUCEjqKM2h5AFwkg4sZLZbsCaIwx/UK1U8AtlPMsDM3042Y8ARCnK0CXkUOwIsDuUFDV5l3LB+8pOhRjjDFPnnb+FImTLrygz7xMBOsD0CWRB9rghXtecvitDxQdjzHGmCdL0QCCLHewcqafNuMZRq5k0KkBsDKALum0XLAGQMYY05fUITP/HT7jD/C4Z6mymBzrBtwNDrQNgu4iLToYY4wxT52E6Rt0M6oL1wB1cTQoEcH6AM00AfAQlDbCTrCjF2OM6T+Sgc7493c3tokzOkOOTDcoqBIBCaWigzHGGPNUKXmkIjNeozfzCcD0aFoz837ppzlir9UBGGNMv1ANaJ4hLj5MVY+e6efZAjGLiAAegKqq3MlS2sVGZIwx5ilRxUUlQMoz/ShLAGabzq9oW0Ue3LLd2i8ZY0xfEUFDBl2o4bIEYBZScKKabCg6EGOMMT1rxhMADWBFAN0l+/9kGYAxxpjHMPMJAJLZRrQxxhjTW2Z+FgCyhPmd1nTWCMgYY4zpDV3YAVBnPQCMMcaYJ0c1gMyCRkCC7may8ySxRMAYY4x5bKo4FyMqyUw/auZ3AFSWMyqozQIwxhhjHpsqGnKSEUHRFTP9uJmfNuR0jKoitgNgjDHGPDYRxHnSKiiya6YfN+MJQMhlkobaLABjjDHm8SgonfVSCP0/Dtg5jazdkDHGGPNEFEJOaXj6+HyGdWcYkL3+d58Q2FJ0EMYYY54aIQQQkRmf5WLv5rNTUGTGr5AYY4w5gEQQH9GayEHCjpl+nCUAs4kCOQBDLoTDGWLG50kbY4w5QKZvAcQVD8jCmX5cN2YBWA1AlyhAABESJywjtwTAGGP6iyKe2dEHAKFNbg0AumF/pYUqIUCTBTaFwRhj+oYI4iJaU21UtP+PAET0p3nKbrz1AeiW6Z9mW/yNMaYPCYKg/X8NMIeAEjr3Gs1MUoAcfEyEsppgRwDGGNN3RFB1/Z8AeMUpuE6DAzPjFPCgIkOkRQdjjDGmV3WjD4ATsTLAblHodJFSTba1Rma8iMQYY0x/mvmFORBU7Ty6W/IciCEgKyfuffayouMxxhjTm2b+GiByF8g9ROCsCKB7VNzh99ZmfJqUMcaYA01AZv69eeYTAC9NoG0VgN0lEOI9iXUDNMaYfqKKeI8o/d8HQCpZmVgTOwTof2HoxwAAIABJREFUohwQdfGJDx6mXzpuoOhwjDHGPBkCzpO3am3UPTDTT5vxBCDbMZBp3WdWBthFGXgHpedMntgc+P6Mt5M0xhjzzIkIrnP7b7tz+pOZft6ML8sPbHjF7tZ/HrSHJICzi4DdFAKZZrb3Yowx/UIBgQid+T4uM54A/IzTt7vhbAdOrBVgtwQQB05Z7UnmFx2OMcaYp0KcIv3fCOgHvLzuB7Mmaot/1/x8o2Ugidt2+GKMMeZXzPjicDTXJyHXBGsF2F2dZkDlNC46EGOMMU+NOrrQQG/GH9BmOCAE2/7vnhAAAVVZI+3IigCNMaaPCJKBzvg17hlPAM7kTfX6iH8Ij00D6pL9CYCfL1F67+C6DV2YKmWMMeaZEpyDXHRnyGfBOGCA8mBjJ5Od/X/bCOiCAIjC4px8z9Bz/oS/sJbAxhjTJwSC68JI964kAINxc1dWZzd07qebGSZ06i1aED+rsfCQ13xpcdEhGWOMeQIine/vQD0TV53px3VnOQ7UHboLsGOAbhAgE9gdEa2cWLz4fd8fLTokY4wxT0wEEMa992Mz/awZbzQAQIgcErrzLAOAKogqmrFSlOVFx2OMMebJUXEudOEFvSs7AG2ysaDuTrRbTzSqgIKH5V5ZUnQ8xhhjHp+IQxxIYMfuVml2FAHiCRoHm0zXRUGBHGRUSJvJkd9mQ7nomIwxxjwBAVTb2zZJe6Yf1ZUEIG+MVpksdSYbWQ1A16gCZSVMlA47iMqKouMxxhjzBBzEUu/Wo2bewKvGdrb+fdG/ooB1pusaBciU0HZDg6t2rSw4HGOMMY9L0AADjE1042ldO5GXKCQPX08z3dNwREvq5Wdd8k3rCGiMMT1Kpmf/tCdrYcotu6cbz+xaArD7WfEe6wbYXapAEyQKq6KR5plFx2OMMeaJqMtz35UndS0ByA5u7siaZKh1A+wWVQgpRPPE5Vl0QtHxGGOMeQzi6GyRyw7n2pPdeGTXEoDDD7p/zAl3kYLvTnJjmL4NEClkMnr5899ihYDGGNOD9h8BiOhdSjzjTYCgm7fyhUxdfleWdvWpBiBTaPuB0xf+8BWb2ZwUHY4xxphHpyqR1+6skt1bigdpalm3iWgd2wHoroZDStnQ6Dv+48wNX3rLSNHhGGOM+SVuegcA7so1nV07ANs+sCGrX/2c+0IjykjUagG7KYWoDG5Bay1HTtn+izHG9JzOqhjQLEQ645MAoYsJwJYtm7PmvyzdQSZNIrXbAF0UAuBBW35l7dpFNhrYGGN6kuJEmrhSVzrndi0B2ISE5qrWnZKENuKsH0AXhekZDH5QytKKXrgBtV0AY4zpITK9Lmbq7k6pjXfjmV2d0Pdud+rOy6IfZoit/103XXwZH73npM1fL39NXspdRYdkeo8qiIgTB+JsgOfcpaiG6WYiphvEgQZBgt71rfcsqnbjmV39Hb5ly4cmr3h7tJMmKyMPWd7Np89tmoFE4Fx4FXm6BSwBMI9CJBHvR+IhwJWKjsYUQICQQ97OCFkrYPe2ukM6Sfdz5MbJrV16ZNdTfEfYnk+5k30CYglm1+Sh84vtFzBa3TmwHLozbML0j4eO3OpcOH63kn2+9mC2GKVqe3VziyJB0AxhPuhh4pNlGnLoTk3a3CWdGQB5u9YOLt/Trcd2f48v4h7NdQwvo5La10tXKRALQ1F6uO5aNiDLdlkWYB62aO0p4aFtY9tCPHShyyXyYt/6c02AkAdtxmQnqMjbXZQsC2mrcxxgZoxzMSFrA9z2o+SVu7v13K4nAFkmP3Yiu4kZpYVlAN0UFGoBYk7h9gfPAD5fdEimd2zZKAHYOf2HmcNO/0BtraKjRccxV4iPCO165pQfLa7S7tZzu362s+e/nfaNsC+5h4ri7CpgV3QuASiQQ65cXj/8mEX3v+GkouMyxvSmIPkaYK3mtv3fFdMvwiohajDetXW56zsAB992/c5aPFhNKrb6d0MAEulcKf1x+yCumlrDZ0tHusk8WVtsZMaYXqX4Z1fmD7jWVNu2/7uh8zbchmhXMjg8e3cAAGQgv4s9Cs4mA84Unf4jcRkI3JkdxP+cej6bxo/nDl3Aqmh8xcc/fuaSouM0xvQeQee7GHv77wpheg5QO6A/bddm8REAQKXc/LesoXfgwdsFkwNK6VzjiSUndhmo5+bWs7ikegyXNdYw6Foc2d7FfF9d8vGRgdcVHa8xprec8e4HBlBGQlp0JHOF7k8AMsHv2LpJutIFEIq4BQDgeACVHTjWWEvgA0sATwDptFu+YGIdH6k+j4oE1kYPUZKAawtZVFooab4e+OuiYzbG9I7myPDqSBjVHCvS7pLpOUB1SZt3dvW53XzYfjveeuZk698XjRMpePuEHUiRy0CUrc2Dece+l/DJ+hGAsMRXqUiGIxAyRcoRIvKCdVeuP7bomI0xvSPxcrKiK/IM1DKAGSaIj8laANw5+p/z7unm0wtJAB7a9paddS39kBgbCnQA7J+tGPnOztF1zUO4cOpE/r62llQdz432Md81CTjy6fsA5Ip4GcDpWSde9gYbEWyMASBoOFFgWcisU1v3KCjNLVukq0UXhSQA69g4mb9w3y20BcsAnpkAxORELmN3OsTltdV8tHY0324vYUgyVkRTDLo2qfpfyOVDO+9Unqr8VlZu2oRAY0yHhDVRZdBp3sbOAGaeiOs0AXLS7PazCyvBWxJP7gm1UEWtEPDp2H+3P5EcXAAV3jZxMm/cdybfaS/luPgBVkd7ichpq//V/30ecN5RWjS4ikxWdP9HYIzpNTdtGl7oyJe7GDTYsJYZJ4KLIgj5A2j+791+fHFLb5smkW4nsL8C0jwFAjgJnRoKFV6591Vc21zJIl/j2dE4js7RgD7ODovmSt7KEML64y8/97CuBW+M6UkXx/euC0RltbW/K0QEF4HC9lyib3T7+YUtvbv/7sTd9ZsO3po2BUq2zfRkKeBRIpdRCzFXVZ/LK/a+lhtaK1jkGjzbT1AiJ0cIT3C8onkgtDIQOYtI1nXnR2CM6UUnfeihodQNnAYyELp2EW2uE5wHxT/QbFe2dfvphSUAn7/yu2ON7zzr+6hAXFQU/SWnc79ffE4ePJ9qPJfzJ0/guvpqFrkGB/spYglkT/KXVYOiuRKPlJYEOH5mozfG9LJBVx6QkL9YnE80twygWySCWOrNf9skk91+dmEJwNuRrPz8PXeKD23UCgEfjwIRSkkyQNmVDvHx+hF8tHY0d2fzOSR+iBV+AkFJ9Sn+kgZFYo8oL37BFeuPmYn4jTG9T5thBPQoF5XR3LoAdYcQAsShWchk1kJP34c/eO8tzoc7aUP0q3VqZppHQQI42J7N5yV7zuKPJ36NtjpOSO5jqZ8iR8ifxi+nBiWbaCGxe7F3XDgD4Rtj+kAussaXBkdEsP7/3SCCOEc6lVGXkZ8WEUKhCYAIbQbC5/OWjlMSmwvwSxSIJMe5nHuzYS6ZfB5v3HcqO/J5LPFVDnKN/bf6H7fY74mENCeaV8YFbAfAmDnotIuqi8GdhHZeCszME3GIeDRr7QB2FBFD4fX3k/90+E91KqlStozzkTKEWDJwyoPZIH9VfT4XTR3HzeliVvpJlroaEUqnt98zz5y0nROEJWd86tyN6IbCPxfGmO6RoGsRztaQE/KuzaKZ00Q84gVFvqfQ9QJA6IEEYPzSF9yRpdKmbFkn/HyKX9mlgLC1cTB/VT2WzzUPZUJLrPBVFvkaCuQHsIlSXk8hcSN7KnLBH3ysbp0BjZlDgrAmHhxcA2r3/7vFeZwHQtiWJINdnQGwXzHDgB7h0MZnvtsYKe0gd4d1zp6KjqhYMaFz3i/wxcZKNo69nDYxa6K9HBqNk6l71MY+z5RmAT+U4JRjpiQ/Fth6wB9ijOk5Gzao2yv1I30CeXP/K4iZaYJ0Gro5d+/1/13mXhHgflGc3pTv1qpLOt1p5yqPdrr6RfDxqSN5876XITjWRHsZlja5uhn9ramtHM0DP57v3/O8K9avncFHGWN6xL5ja28EfUXWBLUOQF0h4lCUtFZrBs3vKCqOnkgAxIft6mQnnjlZCNgp9ssQybmlvYh37DmVP586gZbGHB6NMU9aD2/5P5NivycSshwNiowkr1iaW0GgMXNBLjxPxK8KaW7V/10iLkJDhqC3ikv2FBVHTyQAzbuX/yhMRfdQnlttgfdvtsUuA4Hvtxfzl1PH83+rR7M3VDg8GmfYtWd84f+FgIISDcTUJLz6tZs3rJz5hxpjinLKJl0ogaOigTIaUjuD7RJxEZ1mS7JNQ6gWFUdPLLdDb/7ZbTpZ+hGxzonhgErnhxlLRuwymqHE9c0VXFI7hn9urmSer3NktIch16KtvjuL//7YciUbb1KP3Hn35/qbXXuwMabrXKlxMsJR4kCDvf13jQjTK8Gutm8Xcv4PPVAE2CEhWuZ/yEOA79QBzOarqA7wdAr9EPjjiRP5f/WjmC8pz4t3ExMIQDoDxX5PSJXQDpSWDZd158TLgQ92PwhjTDdIyF+uyKjd/Ouu6Z3uoMK9UWte18cA79cTOwAAPsrvyOBGBFyPpCUzQVC8y1CEf26s5PV7X87mxuGMSMohfoKY/BH/ZEFUCdU2mbhjXnjVuf+1qDCMMTPnFZv2rVTkdXFlsJy361j1f/dMr3EhisMXt24SSwB+/JOz7szuHb6JiJ7ZlziQAoIA3ncW+C3Nwzh/8oVsaawikZxV0ThDLiXHTZ/5FyuvtpGBaDRF3vnia85ZXHA4xpgD6NUXj89vx8lvuqg8qmBn/90kggZAGLu+NlRYASD0UAKw5i1frLbuHfkuKT0U1TOngENJXIp3GT9pj/I3U8fwsdqR3J4dxALXYpmvUpb0qQ/ymUEaNDjv8Ilf3WrJ2zZstu6AxswWrcwvAX0HQN5qFR3OHCK4qExarwWQbxy3tNjVrqfetee9esdt+YS7x+NWRh6yWXAlNUZBFBQamvDW8ZP5enMlC32NdfEDQOd630w093mGXF5PO5MCRS74KXwFuKXooIwxz5yiqyqjQ8vaNQhZYTvQc4+Ajx15yi4X9HPff7sUOne5t97qKlRV3OezNm2SooN55iICuJx9ocT/qR3FS/e8hpvTpRwcTbAyGicghG5d8XsaNCioEg0nZRfytz//8nNXFB2TMeaZOf39U2vUyeuzJtNX0Uw3iQNB2rmPdhcdS08lAHIk1frWg6/T3DWpFB3N0xeYXvyjQCtE/N/akWyaPJEfpM9iiauyzE/hCQ8nAL0spIHQDkRDpbdFkZxRdDzGmGcmd3ICyNl5GtA8LTqcuUWVeACA8dRNfbfgaHorAQDYdckLvufQPdCfXQFzIJEMfOBLtUP5w4mTuaqxijaO5b7KqGvgUfLe+6l/dKpomhMfVEaR3zj+s9Yi2Jh+deoH6ssEPTMZHhzQPLXOf90kgotKNMZyBL77rfcsKqwB0H49twodMfW5MSnlN+uE4uP+SQKUzlt/abqr3w+ai3nHxMn8XfV57AslnhfvZqmfAoSs937aH5eq0nqwBqqna8o7i47HGPP0iORnI3K6Buv7320iDhdFhKy5DdVvFR0P9GACAKC5/1LI2U6lfxoDRvuL/QRubj2LV4y9kgfzIVbHD3GIn6Slnkx94df7nhaF0M5JFlRAOPuEK9evKzokY8zTIb8elQYXZ822Xf3rOkE6td57ctVdBQcD9GgCsOP3Xv6NrJbsZFD7YgcgkhxxOT/J5vFf972UM/e+lslQ4fBojINc8+FCv37/7ZZV27jYLwnCxUXHYox5ak67aOp1CuvEYWf/BRBx+ARE9bapxUPfLDoe6NEE4LC7v7wzisKdpL09HCgDIpeBU7an8/iLqeP5eO1IxkKZw6JxhqXdma/TN/sYjy+0ciRyAKcfd8X6s7lpU09dIzXGPLpNm9QF5OKoNDiat2zx7zoRECFrQoD/LPr63349urxKkErrB/lDVPHgeijK/W/xkeSUfUYWIj5bW8VF1eP4l9ZyypKxNt7LfNck74Mq/6dKsxxficHxF2f+5Puri47HGPP4zvjwAwP/mlTPLY8MrhQPIW9b5V+XiThAyBq1MefcjqLj2a+HltZflMvgt3OV6ymD65EeOQp4lEgCqIDGXNZYxYaxM7i0fgSLXZ1j4wcZlu5P8euWkAY0D1SWjxyTl+PX33TTb5eLjskY89jydN4LUD6UNQJZqw09/L0/W4n4/QVtt3qhJ87/oYc/CMnLarfuq458mYpCDyQA+xd/JzkQuLG9jNePvZQ/nXwRwy7jqOghBiSlrX7WvfX/spAG0r11Jkrufe9+YPLdRcdjjHlsQcMp5dGhw1Tt3n9RxEedJAD55lQru6foePbr2QQAYGTe1G1hX9hFgKjAJECn/3AuBwdfby3j/MkXsrmxmlwdq6J9DEj68Hl/vxf7PSFV8mZOtKCCiPz68ZeffWzRIRljftXLP9h4iUdfm7dBg137K4rzgi9BULn2O5vmjRUdz349nQBww6E7W7cs2koQKBWzrCrSGeYTZezKhrlg/ET+cup47s6HWewaHDw9yCfgZuWW/2OaHhks3q1T7y885dJT7CjAmB5y+v/UEQ36VonLJ6SN1O79F0RcRJ7ltKemdiSlfHvR8TxSTycA/3bRx8eqX332F7IWodtji5TOkU0sKd7ntLNBLq4eywcnX8i32ktZ7qdYFY0xIClpv97vf4byZhaioQRfic6tVha8q+h4jDE/l+f184KEs6IBj+Z2778oLi4R0mZbcJ+thWa96HgeqedfWVWJshvcD6OyW0vavQmBDsVJZ1MfPBvHTmVLYzWLfYMVfgKHzoq7/QdCNFzClT3tvc0Tb9645XtFx2PMXHfKppsiF6/7QVQeOipP23b2X6B4cJC0VpsMIm/Yev7gPxcdzyP19A4AdK5O4t0X8yZVyt3JWDyKczmZCp+uP5cjHnwdn2sezsG+yko/jkfnxln/kxSaGaGVg+pFz7/qnGOKjseYuezMj0yM+njd34qLjtJgTX+K5hNAaJ7SHvhK0bH8sp5PAAC2/Wztx3N1exhhRhfdQOfNX6IcFD5RX8OmqRN4IJQ5xE/yLF/DoeS9v3HSVSHLyespvhKdHqn7g+M+fe6SomMyZq7K66zGxW/zSZmQNosOZw4TXFSmNV7HwY2bNknP9V/oiwTgeW/60T0I22jpjNwG2H/FL3EZzud8r7GEP5s8gX+or+XBUGFVNM4yP0VE6LtBPl2hoHnAxR4Vflci9wdFh2TMXHT6n4+tCOr+KBkqEfJghX8FEhF84lHlLlX/5aLjeTR9s5pJql9I97gdDBz4zoCxTG/oq+f+dIjfnziZ90++iB35EM+Ld+NQWhrN+vv9z4hCOtGktHgwQfRd6zafe1bRIRkzl5yyScshSd6RzBt6XVrP7O2/B/gSgO5Kg3y36FgeTd8kAN965eVX6N7yjQzrAU0AIslBAveHAT449TxO3fsafpwuYGU8xko/QabOFv6noPVQneig8pCofGHTxWetKjoeY+aKKK79PvC7mkPIU2b2wNQ8IXH4GFDZ/o0Ly3cVHc6j6ZsE4GVsrMpI+4fUgM5chWdEmV78vbIvL/OR2jFcNHU827ODOCSaZLGrAbNnkE/XqIZQT/FDJa5dGV1+3OYNK4oOyZjZ7pQPttYE4a3J0ODCrNkC7bnj5jlFxON8Qn13bY9I+E7R8TyWvkkAAGS4tS2f4B4c+KcZeUCICMS+M8XvE5NH8NbxU/hS81AGXMoKP8k8aSHTlf7mKXOhlZM3U5hXPkFC+O/HX/nry4sOypjZzIXsb3wyuDakoKEnBs3NaeI8LhGA74lzPXs1uq8SgDTlNhW5jAEgfnr/H4lkBITJbICvNQ7hvVMncnVjNU11HBHtYZGvoQh5f/3U9BzNFbIA8F9w/p12M8CYA++1m3YNnPaBqY2l+QNn+AiyVs1e/XuBOFAI8K8NN9CT2//QZwnAwGnsynP/Kdo8pQFBSud6XyQZiHJrtoB3TZ7Ab4ydTlMT1sa7WeqqNDUmm6Nd/Q64oOSNlGik5FTl3S6R9xYdkjGzTTWad7orD30ma0Bab0CffafPRjI9vjat18ZF8xu/9R6pFhzSY+q7D0spa+3OG/rJrAbRk+g+v7+lr5POIJ/b2gt4/9RxfKJ2NG1iDvP7GJYW+XRjH1v8DyCFvNqeTgL43eMvP/e3iw7JmNni9A+11ojw5qjUafajdu7fE5wvoSFF0M0h8zuKjufx9F0CwPc2Vf/j3sM+GlTaDD3xPx6AyHfOxP5w38m8afw0bk0XsjLax0o/QUny6Za+dt4/E3R6J8BX4iH18uHjrlj/prWbNyRFx2VMPzv5Yp2vWfpenwycmzZyQrBuf71CIqFTqe6uXbR2cHfR8TyeLo/YeeZk06YA3Jp+LbqLtq51Tgi/lPjuf+uPJCPyELKYD1WP5m9rRwPCc6MxFro6qXpr7NMFmoagiEsWVBa29zQvruT5HqDn2mIa0y+SvHEBzr8pKkNr0u779xIR0JC1Q5reumXjYE9vy/Tt6ufEX5pOuDE3/ItXAvd39YskJ1dPmg3xoerRnD/5IuZJyrHxbuZLi4bGtvh3jwtpTjrRonzw0DKB95xgMwOMeVpO/UDtNS5O3l0aKdOatKK/XuKiElmjiQrfmFo6f2fR8TyRvl0B/Wmt/5WF6NvMU9x0AqBAND3IB5RrW4dw4p5Xcf7kr7HIN1gVjRGTk/bvD7uvaRZoPViltGT4JQG3Zd3ms1YXHZMx/eT3/vLzJyN8WrynVW1DH3+Hzz5CXIlQDTsk9xd//+3S8/cx+/rDE0et72Q7CRKDEzon+b7T+/qfmyv5H5Mv5gftZzHqqjx7eoRv6O8fct/TXEnHm0QjpdWE+Lrjr1i/tuiYjOkHL7+4esY9/mVXR+WB+cFG/PYgJRoA0OqNF1ZuLDqaJ6OvV8PGjhXXpGOVf2Y+uCQjinO2tRbwe/tO4f1TxzMWElZG4zw7miQikOOsyr8HhFYWNM2JD6qsVMflx1917rqiYzKml53+l7Vj88Afx/NHFocsR63or7eIwyeD1B6sVXHymaLDebL6OgEY+Z177qhMJl+ilpNpiR2thfzP6rF8onos/5kdxHI/xXI/SUxu5/29xeWNLOS1NpXlI8eq8r8tCTDm0Z158cQqIn2POP+KrA4hbxUdkvklIo54EFC2Rpn7p6LjebL6f1U8YuybY1Plb36ieQTnTJ3G5sYqDo7GOSp6CEFp2hS/XuVCO6d5f5XKinkvUeTjdhxgzC86+eLx+VlwH8aXX+dLZfJ2DdT2MXuNiEMDiHLH9RdW7ik6nier7xMAeRF3nL731X+/aeoEfiKLWerrHOInUMQW/j6geaD1QI1kQeUF6viyFQYa0/HyTQ8tKwV/qUSVs8V7smaj6JDMoxAfIy6iNVG7Dcd1RcfzVPR9AgDwg/pLvuKbzW8uT/eysNRCsSl+/SSkechrKdFQspIQf3ndVee9qeiYjCnS6X9ZPSoklUv2L/4hbdqEvx4lLsJFguC/req2FR3PUzErEgB+9w/3PCfed+k8bTRLg5EN8uk/Lm9mIbRzSosHVyF60XGfWf+mUy797SfR7NmY2eW0i6rHaOTeK7680ceevN1AQ150WOZRCSKOPM0IotdNLKr0dOe/XzZrVso8l69muDvyACL29t+HXGjntPc2KC0aXC7K+6dKUxutbbCZS868qLZE4QLxyW/6xJM2avbm38PER2ieErL2HU7DN/vh7v8jzZoE4Fuv/+IugUuzydYDfjD+xfaApm9oHmjvrZMsqKxwng9XsvC6omMyphvO/IiOZvAxF5U3usiT1utFh2SegE8SQt4OoJeOp5M9O/XvscyqVVI3b0he0s4+EVbOf2P7/qnOTHrTlyR2uNiT19O6ov94mPPv3LJxi70KmVnptIvHDyPEH5aodK54T2g3UbVt/x4XygcNuua+WrM0PDjv2j+UdtEBPVWzZgcAQDZuaefw9cZ9k4hzdhTQxzQNIaQ50VAyIMjbfqphy2s+dfYJRcdlzIF22kXVYwjRRRKVznWRLf59QQSfDLjGvnpbkX/sx8UfZlkCAJCX3daBTP8xGkmQeNb98OYSp2kgq6X4oSRK5pfPHYvdh1+1+ZxXFB2YMQfKyy6qnqrIn4uPX+cTT9aq2+LfF4R4SPCkty2R6G+KjubpmpWvyK//+Dkn/3Rx/K94R2hk1jhjFhDvKC0ZpHHfVBDVc8bnNb5616uu7cus2xiA0y+aeFXAfzoZHhzNW0retjP/fiHOk8wvE/Y9tPm68xf/RtHxPF2z8hV5b2XoltDIP6jNDF+Jig7HHACaB1oP1oiHEyex/8L8icqfn/SJs4aKjsuYp+PUD0yeHfCfjsqDo1kzkKfW5KdfiPP4pExrrLYj1fK1RcfzTMzKBOD6N326nlXyD2vQ7QiIm5UbHXOOZiHk9emkTuT81mD8aZshYPrJSR/SoVMvqv4N4q72pcHRPG0T0obtUvYRcTHxEAzzwGVr0uHPFh3PMzGrV8Z1n1n/X1DeH42URrNJG6Axa4gQDSeEZkZo5zdK4NKF8+ubr7UjAdPDTr+oekau8gYRfVNldJDmeAsNfXVtfM4TcYhPCFkrmx/ue+U1F67+WtExPROzcgdgv6H63k/iuNWXIrBdgNlDlWyyhTghGimdqsLf7KkOvOv4K399edGhGfPLTvrTh4ZOvbh6hsKHyiMDb4oHBmmM1YIt/v3HxRXEe4Twyfvl8L5q+/toZnUCsPV3tjZF9dutPTV84q050CyTNzPyaptoKBmN51cuVuJL1l11zlFFx2XMfhs2/WeSzCv/N+dK10WVwWPTRra/wc+s/u6dnRTxELI2ouHS77xPdhUd0TM16z+ELs8+SuCyaF4J8ZYAzDYalLyZktdTXOLOU3HfOuny9R8uOi5jTtukq/dEh16XDAy9X3xE1m4TsjZg5/12/tKEAAAgAElEQVT9yMcDZI06mmf/XMlGflR0PAfCnFgR1111zlngrnSxH9A8oMF+A85Grhx1ugdOtrJY9fqW8Lfff/01Xyk6LjO36Ecor1vyht+b/5PL3hzFrJMBaNdrtu73udJBg6T7Jvcckd9x2kf/7MRZkQD4ogPohuW/ecRDqtKI55dPQzpd5pgjyc9colkgtHOieSUnCyqHh6n0yKXnHTG1/LzV+3Zd/ePJouMzs985V52z5v8NLX5H6srvLh20dFXIhbwmQbJhwWV0sgD76uk34iJEIkib37jywlUfKTqeA2XOfBJftHlDOQ3hPj8Yj4ZmZnMCZjmJHPFIifZYYw/oNU7k6qq4rds2brGbAuaAO/GyN4xoqXVMnuufuFJ8tktysmwnfvL5lPZuJJl6CaigrgmSMYe+evueiCMZrtCerN2p6v78xvcNXFV0TAfKrK8B2O87G7c0BT0zr6V7ohEbMz/baRZIJ5q42C2M55XfFpQvDYbw+0XHZWafj33gNcvUNy/Jc/16PJycTQiEmkJzAVnldloLPkN75OsgIFoGjbAEoH+Ii4groMo1s2nxhzn4KXzBVeu/lcwrvTivtm0XYA4QJ7jEgxPyetoEblHVv/3+66+5oujYTH874VPnjFJy7xXl93Jhvq9EaFBCO//5eb+0AQ8hwWWjDO34K3xrmBBnqLPeJL1OfIJPYrJG7RaV8M6bzh/5dtExHUhzLgF45eZzTh3P5G/d8pE1rfur1oFrbgjixPnBGBSyansH8EUJ4cuDUfTNrRu39N0cb1OcF23eUG4HfaOgrwRelTxrsJxPtsmb6aMU+glIhvpJVFokE2cST51M1DgS115sRwI9zicDiAh5s/aG+sDgNd95lzSLjulAmpOfupd+ev27G/PiD5Pvz9YtCZgrxAvx/AqhlZFV2zdDuD7z/ssnjLVu/bu3f8mmsZjHdNzmDSMODlPNzxKVP45HK/NDOyerPpmyEgFy8mQnvnUopX3nUtr3alw2hPoUlSZz6ES2L7ioBAgha30vpPmrt24a2VN0TAfanLgF8MtGzztiJ1kYjobiF5CrXQucSxTyZooGxVeiZfFI5ddCPT2zJtK8+zWr/3PbG4/Jtm3ZZh8I87BNusk1nrvg6CDhTSh/ER80sAEn5bzW7rxAPGmCC0OEaIyQ7Oz8dbYUCcMIznYCekxULpO3GkE1fsfWPxv8QdHxzIQ5+2k74YpzXpg796++HEXazi0JmGsExDnEC6qKACENYyBXfPLrjQuP+diXx4sO0RRPjztu4IQ/ffafB+V3fSlaqLkiTtDsGfQTkRxQlBwEhu/9X8RTzyVPmiABaxhQPHERUalE2qjdeWM6eASbJBQd00yYswnApptOiW7eftDGPYtLlxN5solmwPbg5iTxgqvEIJBPtdtR0HsycZ86Yjz/h0//wed2Fx2f6b5XXXr2sbsH/FujnJMzxyo/EA8gQmhlaPZM1wIBAurqqK/hW4dQefC/UN57EnkC6uuAtSopUvmgQZr7aju86G/9y/nD3yg6npky5z9hx1953g2U3akChNZT2c4zs46Ar8REoxXqOyfHyjlfGczCD/eV5eZK1rr1m2+wXYHZ7KQvnDXUqCfHjubh2Fokr207OaO0ZIh8okleT0E5wC8JAih56R7i2nGU97wR13o2vn0woJ0CQfuK7jLB+QiXJGT16j/c+L7htxYd0Uya85+u467YcLK48Il4tLI63dew3TcDgCtFRPNKaFDSPfUfOZHPq4Yvuaxx57+98VrrKjiLrN28YWgoZIcF8a9B9ZxotLLOOSGbaBHSbrwUCCHaA3hK+15DaWwDvnUwiKKuhn1Nd4+4iHioRD458T0huuD6C4b6etzvE5mTRYCPdP/V23YcvGHt4ZrpiRJ7NJ+VRz3mKdKghFZGaGW42D3LDyUvzZv5WeqSecvXHzF+39W39/0kMAMnXrH+mFjC2wLu4mReeT2wLLQyQiPt4neBIKEEBPLydnBtXLoMl85HZHrDQezNpBtcVCIaEAbq93zky+87+PKi45lplloCl132hpG/l8b/zg+d/3ut+6fQ1JIA83MSOVzs0EwJaZ6BjoNsy1SuO3Qq/+zn3va5O4uO0Tx5b/k/5664ZRHneZVXi3CUKqMSu8hFjpCGA3DG/3R0rgmqZIiWUGlR2vfrDN73FjSC4BvTxYP2lT1TXFTGeU/WrF9f0Yf+6MsXrryj6Jhmmn2app3+qXNO3ldyl8fzSivyempJgPkV4uTnEwdbGXkz3x1p2B4H7miJ3JBIeuO3Xv9F2xnoQb+2ecPCpoZTS4HTUjgqE1npS26ZL8eENO8U9xXeGbRTE6CuiUZjuPYykvFXEteOI2ocBSFCfRX72p4ZUXmQkOVo1njZDYcPfYONs7Py/5HskzRt+eYN5SWpbsTrJ1zio5DmVg9gHpN4hyt5/HDSqRN4qL4d5XpEvq6EO31L73l2JRrfsnHLrP8S6UUbNm9wO9JwWOYY9egydfIyVc6IFlTW+NiTTbUIzbx3j/zUo9E+1NWIp15Cae9vUKodiwCZr2FTBQ+sqDxInrYhT//phguG3lx0PN1in6BH2LB5g9sewiXOyx+6ckxes8Fx5nFI57ePOHCxx1UiQiMja2Y/EpXP4/T2PNJvz5sc2b31d/5xVrUQ7UWn3HRKNPazQ5IhqkPthFPBvR44RpysjOaVCM2M0H7E/f0+6ACqrgWuTlx9EdG+1+JrzycKCbgUlRS7LvjMiTiSkQqtiepd0b7a867/X0vmTEdQ++Q8inVXrd9bXjo02nygarsA5kkRJ4gXEOksMEE7/zkPDxD0eoQvIXrHza/73G1FxzrbKKuSkzc/f2VD89d5lZMUVomTw3DSafgkAgoaQg9s8z8NkuEJ7JaMbOolrPnZ/+j0rPCt6e6B5mkTISoPkDVqdYf+9dcuGL6g6JC6yRKAR3HCVee9Joj+fXnJ0JLm/TYnxjwFMn08EDnwAkHJG1kbZI+idZRbROSe3IV/X9SsfuX6N10/Z942DpQXX3PO4nZdVuFkhXf6axLk1MzhgMUI810SIZGgaUDzgAb64m3/sQkibVquQR4qDDeOJJ48hXjqJFw2SIhqRQfYt8THxJWEdrX6D6E09N6t75ZZ1+//8VgC8BiO+8y57xKVi3wlLodWZq2CzdPjpHM8UPY478hqKaGVNVW4Q5RbRjIdbzh+lqK35ZJvm7dkcvfWl22117ppL9q8oZyl+TKcWxKcLkZ1uUNepLAMWKiwtrR0yNHKyZvZIxb92ff71SGIq5FG4/jGEZTGzqM8cRo+S0jjBmC3BJ6Kny/+tTtV/FtvOr8yazv+PZao6AB6Vl76J3Hpwa4cvavT99u6BJqn4RH9BB7eHSj5sov9sa4cHduMHWGiBfX0Vqfua7UHR+8+55Pn7My92/FAxY1LFtWjRq3+rZ+9oM6mTT1asXYA3HRKdNxDiwbw+QBpPLCy3lzY8n7F/YQV6nmuF1aJskq8XxEfVEaz0Lmyl+a076/+fN2bfev+wwIKYQCXJuSln5Ie9EUyV0emXsxAeym4NiptLAl4EkRwPiFvA7iParv8vaJDKoJ9Uh7HcVed+wIncq2rxItDOy/ofrCZVaTzJxE6RYTCz8+pnXRqCSJHNtlqgm4TlTsCenvu5LYjJtp3/p//yHYu+Ojs6UR405+csvCvjlmw/IEBWeNTPRrHGmANwtpouISmeWcLH+38S7VT9za9pa+qs3rRf2yByKXsdVWmGkdwxI4PE2eDZL493S/Avqsej48HUA1o1vi8S907/mXT4Jy8vmsJwBN4wVXnrEmGy7e72NMea9jAIHPgPWIyIdOJAKHTkGa6aK0JtKdzhfEgchuq2xAJqE6o6q3ep9vqsXd/8kPGfmfT53tiZsGJV5+7XFyIspTFZP4wdZI5dG1QqSA64ESOksBRKlrWzu+rBEgkckjkpmfmdBb8zkKvs+A8/0ARkIxcUnJpk6SLGL73EqL6YkKST88RMI9GnMcnZdJmbWec6nHXbxqeswO/LAF4EtZdee75ErmL4vll2nstCTBdIJ1bBeKndwW8g8h1WhRX22jQyel/rKnKHoGxIEocJHOqu1pO7hKIVPiZEx0LmZTFCRpku0ioEvIE4p8/zmmkkk+227XtUTS8yosMafjVEvMAmYMICYeJk7JqyERcCC4g6lYKoRKQslNWAksAFMoK86WzlI8KEilEErshP5h0FvRMH67S16Cd+/m2zj8hQRDXJPMTxNXjiadeQlRbh28ejPoWSIp9zf+iZHiQ9lS9HdALt14w9FdFx1Mk+2Q8SeuuWv9pV47eKE46k8GMKYJMtyaO9veIl1/867jTzjYbawQEh8quTutiEgCU7YrURfQX639UIkUnnbAdWKUqQ4g+WjFiBkQKhwmUp/96/37zSqDsYk+ycKAzSCc8YkFHphd2RZXODocdqx0AnfHCIbkPly4l2fcaSvvOxrcXoC5HXR17Z+lwUQmfRKT12ldDPPg7W/9UHig6piJZEeCTJIGLQyMfiQ8qnRXS3FoFm2IoaBrIf2HhlP09iVB9uDFR5xvfyTJxLHv4bdrLKpFfzftVp0sSvHTewvXhPkePHkYeOv9M5/HTf2/6nB6l9WD14V51Co94m3/Ea7294R8gnZ9p1z4YjcZpz78WgGTyNHxrBRKGUWlO1wbMXeI8UTmiXa39SEQ+PtcXf7AdgKfk+CvPO1VF/9YPJmtCK7O3F9O79ncp/OXf4fsLD3/Z/tV6/4r9aJ1mH/n3HuWanT5ykbfFvSABJKDSRl2ToR0fojR+PCHOUddmrhYHijhcXEE1ELLGb914/tBlRcfUC2wH4ClY6WXr9sAfZY30Op/46Tce+6YzPejhKvlf+S+6HorpJg86XUyK0Fh6CenwC0kmTiOqHwmSTRcIzql3v+BLFReVoTnevCCkg58tOqBeMac+BQfK6Z9a/+7aaPJhEke6r2lFgcaYHtP5ag/xbiSUiadOprT3NyjXVxMEsmgSUV9wjF0RfDLoxEPWqN0SI6++7oLBOb/1v9+c+AQcaNs/f/u3l/36c19M5J7jIidWD2CM6UUShjoNgpJdqK9SJ0KyRSTZIOpSZvtUQXGR+Dgia9R2gPzx1y4YvLXomHqJvbk+Td651+e19teioQSXWB5ljOlFiuRDOI1JR77OvYe8l7H5X8ErSBgEjZm1CYAIUaVE2qiNOeGjN14w+NWiQ+o1lgA8Td/ZuGVM0Ytau2s3x/NKncYlxhjTg4JGSCizLAwQLfkokwdfgkvB5SXQ2fjdJThf2t9x84qs/e9/XXREvcheXZ+BkzcetWMsz+8K9fSIaKh0MAKaqw3oNsb0IE+scadxULKLvHJfpyd+ejASKuBmzRyB4KKyVEY9rbHqNZG6993wZ6t7ojtmr5kVv9pFW3fVea9A9XI/GI+GVj7d9MQYY3qQetRPoNEkUfV4ymMbiadOQgLTo4X7uy7ARSVcHJE16jvEsf6G9w7eXHRMvcp2AA6AXZ/ddteyDWsjTcOLouEkDqm1MTXG9ChRRBMklMhLP0P9BCC4fAGSjyD46aZBfZgIiCMqlcgatbaK/NaN5w9+veiQelmf/er2tnVXrr/SD0SvUyA0c+sRYIzpbdOTA0O0l6j+fIbv/minj5NvPSIJ6BdCVBkga9RA9R9ufN/wW4uOqNfNxuqPwuTevTNtZn8tsceX/eP3UjXGmKJpBAgSBslLdzF16H+lteBz4Jq4bIB+ekd0UYmoDKDfjrPwnqLj6Qd2BHAAPbBlW/24jUf9Rz6VDqclf5wgj9oy1RhjeodDtAIooXQPeXIfaIxvH4prD6AuTO8G9G4yIC4iGYhpjte+6pz+2b9cOO/HRcfUDywBOMDu3LJt6o/XHf6924fkUBmI10rs0DTYzQBjTA9ThAjRCiF+CI3HUD8JUsa3liJEIL15S8BFJZKBhNZU9U7v3e/fcP7w94qOqV/03q/mLKEbThk6Yf3CH0cLysvyyXZnNKoxxvQDaRPih3DpEobv/hi+taQzWljaIL1zy6kz4a9MSJW8VT/zxguHri86pn5iNQAzRLZsrXrCa9t7G/ckiwcQZ7mWMaYfCGiEpAtRV2Xq0LeTVe7GpR7RhF56b4wHymTNFnm7+U5b/J86SwBm0Hdfd80tXuW3mvdN3VJePrK/W2DvpM/GGPMrlE5dQBkJgwQ/SX3ZxdSXfpq8tAPJBqZbCBdb31SaN0hab6Ka/XVjoPIPhQbTp6wGYIbdd/W2Hcs3rrmrPdE+PhmtLNI8iHULNMb0B4+ECnlpO3n5pyA5Ll2Obx8EEoNr0u33SBFHXBmgXa0FlI8Hl/7vb/5pZU9Xg5glLAHogvu23HH3ivOOuCWrZ6/xg8kQYEmAMaZvSBgGVyMk96GuhegALh9F8oHOt1iX6gJEHC6pIAJ51v57TVsf2Hrh6I6uPHwWsgWoi47ffPaxGqLrkoWVxel4E83sNMAY0y8UJKCugfpJBn/2fkpjp6FxhpJNXxWcWT7u1FPlrdrWEMLbb7pw5M4Zf+gsZjsAXbRryx0PLNu4+ht5Lf+1yvKRhflUu+hjNGOMeZJ+vtUveLKBH5IN/gTJR/CtQ6ZbCGcz9nSfDKKak6etG9H2b9904fztM/awOcISgC7bteWO+5afu+b2dLJ9dHnZ8NLQzNFgxwHGmH4gCDGiZTQaJyQ70Ggfki2k1FqGCwm5byEH+OtMfEwy7EnrjXuc43dvuGDEGv0cAJYAFOC+q++4++ANR9yRTbZfFo2U5qOI5tYsyBjTPyQMgORo/AAaTTDl2mi+iFJ7BGT/bsAzHygkPiYZSGhO1HY69EM3nD/0pQPyAzC24BTpxM1nvyAP/rp4Xnlh3kgJbWsWZIzpLyI56mr8zNUY3f02Vux5M5k0UWS6OPDptxEWn+CTmKxRq+Pcm29878BnD2jwc5wlAAVb99n1x5LxhfLSoRWt3TU0t6IAY0yfkYwgGUhG1Ho2ydi5lCZOQzRCfR19GsVO4mN8kpA16iFodtLW98377gxEPqfZEUDBdm2+/YGlG9fcnE+lL6gcMm9JXk1tjLAxps84vMYgKXm8h5DshDBA0lqFz2Jy355+23xy75ziY6JyQl6fqh4SfrjxCxeuvmEmo5+rLAHoAfdvuWPHweuP/Ek62TwuWTK4GFU0tSuCxpj+oQBaAnUQ7UPjhxgr3Us7H2Wo2Zkl0DkSePwkQHxMXElo1+p7XAgXfu7C1Z/uRvxzkSUAPWLX1dvuPnj96h8ylb1URUbxrpdmbhhjzJPSmSoYo8n9PDT8HXJfZV7zGCSbB8TT/QIePREQH+NLCWmtNuY0/NUNF867pNvxzyVWA9BjlOOiF1658uo8cWf52JM3MjsSMMb0odBpHBQ9hGsezvDd/w8JZdS1pncCfvENR3yCi2PyZrUpgT+64cLhvysm7rnDhgH1GOH72Vfy+m+Vm/k/qRd82dskQWNMH3KIxrhslJA8wNRhb6e56DLUT+KyCujPN6CdjzvV/s1G+xD+ff3bnztkw326wFaWHnXaJ889bGKQt0TD5fMB8lqb6fkBlrQZY/qIA2kTon24dDHJ+KsojZ2Nbx1EiFtIpMSDZdLJybGFuv3tn3nf8+2qX5dYDUCPuvsLt+9bvfGo7zWb6cLQyg+PBpMSItYwyBjTZ5T9UwU1GkOjMUK8B5ySsJJkIKI51dgRhdZFX7zwOf9YdLRziS0kfWDd5vXno7zTV+IlmgVrGGSM6V/SJiQP4WUhw/d8DDe1fFyl9o4b3jd0RdGhzTWWAPSJ46467wxBP5QsHDg2m2gRUksCjDF9SBRX7vx7qMk3fFx+y7+dd8VdRYc1F1kC0EeOv/zc09XLxeWlQ+vaY01CK7OaAGNMX4kGEzRX8mbrxvZBn3vLj87knqJjmqusBqCP7Lrm9u1Lzz3q9rzeHvEjpbW+EktozNz4TWOMOZDieaXpxT/7aoA/u/Xs228rOqa5zHYA+tCLrzlnsab+0hxeJZWIkObWOdAY07PECa4SkddS/n979x9bV3neAfz7PO85517bN87FBAhplNGUZjRQxggEBohFHaL8KFBM7ZRkoLJ1P5BabRraD6mToEJIQ2J/dFOHSodgYRCwmxRC+CHGGKWZ+GmWZVlGM4rSYGUhuGl+ONf3nnPe99kf59pJSgohJLm27/cj3VzZvkkeW7bv977vc54XwBoR+9vXl65+qdV1tTsGgCns0od6v70vkb+KOuLE8lD0BXBmEBFNIuIUriNCyAJ8mt+T5vW7/mv5U7taXRdx/3hK05/uvDMEudLXsrdcRwxXilpdEhHRBHGCuFpCyAPCWH5PlJXv5JP/5MEVgGngvIG+xfDhtqg76ZfYIds5xuZAImodATR2QKzw+7KNovb3Hm71f/QPjrS6NNqPAWCauGCgb6EP/k8A+XpySpdmPx+D5ewLIKLjS1Sg5ahY+t/deF4cvrNu6aq1ra6LPogBYJpZ/Fjv3aLuL5A4mBks9bDAxgAiOvYkUmis8A0PC/bKmb/Ibl1x65r1ra6LDo3LxNPMa0tX/+X8XfXfyevZDnECSXiYEBEdY9Js9uuM4cdySAj/OPTW5y/mk//kxmeGaer8Vb3zkeIWE/nr8qkVNN6vcUuAiI4JLTkkszpRHx7dYbDbO0Lp0XXLH2Gz3yTHADCNLXrkmlkiST8Ef6Cd8TkiQBjLuSVAREdDkEhVyxF86oHcvwDYvfGwW/vynw3WW10cfTQGgDZw4WO9l0kut2UOX3BdcWJpQMg8rxQgoiOm5QiiglDLdsV5WGtJuPvl/ic42W8KYQBoE0/eds2sb59fut1gvxdXks6QeoQsAMbVACI6fKICiR00VmT70m0ut+++unz13wjAPcYphgGgjfQN9OmWzL5qkd1dOqUyN9tZXCrILQEiOhyiAi05RN1lpNtHX/EWvvXmsh++0Oq66MgwALSZhQN9Sae3iyB2q5ai/qgrRr435ZYAEX0oTRy0HCHf0wiA/YML8v1Xl63a0Oq66MgxALSpxY9ev8CL9IvJNa4jWqylCPmeBlcDiOgDokoCCwZfyzYi2P0+cv/MqX5THwNAmzt/5VcuMrG7JNIlGissACHNeagQUbtrjvOVcgSr5wiN/BVTuXto6arHW10aHR2u1QVQa21btendk5f/+hMuk7GQh0WaaKkYHMRsSNSWpNno57QIAAL4fdkKzd033lj+g1daXR4dPQwAhO2PvVVfcPUFr6bIB8y80yQ6P66WYZmHeS4FELUTiRRRdxkhD7Axv2bh9sbXuyrxg/+ybPC9VtdGRxdf5tFBzl953Vxx0c0WcKUBF8YnlKN8N3sDiKY7UYF2RMXRvQ0/DMiABrv/9WWrNrW6Njo2GADokM57rPci87JUFF+Lejq6reERxjIGAaLpRgBXjiGxIt/TqJUMT3vYU5lla4eWPclGv2mMAYA+1HmP9P6pqNwusVYhxbcLBwgRTQ8SK0QVgME3/IhCVtz/o7E7z773Kc7xbwMMAPSRfnbr1dUbL07+vBHpN0ondnTnoyksCzAzXi1ANNVI8YdEAleO4Gs5EMIKE73rjf7Bza0uj44fBgA6LEse+HJ1b1d8loawHE7+OJpZRqjnCHUeLkQ0lUikiGeWARiykbG1sPBdRNH61/sHt7e6Njq+GADoY7lgVe/cPJVeMVwPxWLXGXdaMIR63urSiOhDSKSIu0vI9jRgedgM2CvBu++8uXzwzVbXRq3BAEBHZNFDveci0j4Ru0xiPU87YljqERqe/QFEk4g4gSYOFgyh4Uch8ixgK3uqe5997ovP1VpdH7UOAwB9IoseXTpfxH9PnVwmkcK8Fb0Bwbg1QNRC4hRwAnECywJCHjY5tW+91r+ak/wIAA9/oU9o6KuPvVMVuWHJu7XPaT27z2ceSU8HtOQgKoyYRC0gKnAdEUqzK/Bj+R7LwzcR0t/mkz8diL+e6ai5dOV1c0c1WqIBX4RiSdLTMdeCId+bwnIeFU50jAVxqlG1BMQO6f/tXTcjw4sdqj/eMbOxbuiaJ7ncTwdhAKCj7jcf7p0XRXK5QZbCsFCczIkqCXw9Q0g9Lx0kOso0cXAdMfJ6BtTDtjiEV1Jx976xbPD5VtdGkxcDAB0zvzXQ15N7f62J3ATgC6ICiR1gBssDewSIPgFRgUQKiBTndpghCF6rpPadl3539SOtro8mPwYAOuYuvv/aStrlLjfocnHaG1Vi+LEc5gNgYBAg+jhUIAKIajG7v57DUr/WBA+Xu+rPrvsSp/jR4WEAoONm0UO9syXCJSZytQJfTk6pVH0thd/HMwaIDkfR3BfDzUjQ2D5ag2GNwZ5MnHtxLrB9sH+QzTZ02BgA6Lg7d+Da08Xii8RwnQHnxpXkNE0c8tG06BEgogniFOIEbkYCC4Z8V30YkDcF9mTwWDe0bNVbra6RpiYGAGqZRat6Z0uGawG5EcA5EFTdjBKQB4TUT2wRELUdATRSwCmCD7AswJmNqOr63OwJU10z1D+4tdVl0tTGAEAtd8HTV3b7vZ1XwXCTiFwFV3xbigosGMwbpwtSexCBRoJikx8IDQ8BNnrFlpNr9v1nv7Z6TatLpOmDAYAmjZtWXN45d0dp3r+dGl2ROl3qIr3QdcYIjbx51QBQdA22ulKio2j8dD4p5vW7rhi+lsE3/PrYh5WXDfvH66fWh++5mWN76ehiAKBJZ8l3+yp7TgjzVexsgd5iYkuSEzvVgsHvY58ATR8SNff3O2Jo4tB4fx9guA+Qp3KVrbOAd57vH9zT6jppemIAoEnt3JVfucRZuAQqiwKwUIAzklmdGhq+OI44D9weoClFnEBLESTS4ns49SmArRDZZAivRxEefPWG1cOtrpOmPwYAmhLuMOjagRuugNlSQC8DrApBp5YiCNDsFQhFvwDRJDM+tEdiRUgDLPM5gBEBNhhsixj+ddbMsQ3sFUUAAAcJSURBVMefueqZtNW1UvtgAKApadHK3mWiegvMLnVdcWJ58wRCGBBQTBs09gtQiwgAKfb1oQKBAE7gyhGyXfWtIrZCvQy+umzVhlaXSu0ranUBREdivnOPbgFeMMnn5aPhQoF+1gRfirtLp2ms8LUMljdXBThkiI4jUdl/7X5nDPMB6e7GdslszafeT5+qlKINQ2WMbFo2ONrqWqm9cQWAprwlDywp7+066WQJthASzgb0YsAWwzA7rpYBAfy+jM2DdMxMNPOVY0CAbHcDAtthhjcB/BhmGzVzG167eXBLq2slGscAQNPOBQPXLfTBXW6QTwtwFgQLYJgTzSwpAhAyXxxPHIyrA3REDtzTBwSW5ghZyAGMwGwzRDeI4Wdw+fOv9z++vtX1Eh0KAwBNa0seWFKulXuuCCI3CXCtNbe9xClEi2ErxYFEza0C5gE6BFGZOISn+AMIWUBzLkUNwEbA3oHiqVIpf/zfr1vD5X2a9BgAqC188++uTOY1ojlPnxrP2RXrNc7scgHmuxlJFSLF6OHxSwonBg8yELSt8QY+AJD98/glKoJjtrtRB+xxM/mRurCpa9/M1/amST70R/flLa2b6GNgAKC2s3j19T0hxZwAqUQqF/lgnxGTC11nfK6rlmDFtdkwb8UEwpwHrLUTcQotOWjSvJUcxt7dPSKQN80wLA7/672ssxC2lmO34+X+wXqrayY6EgwA1Nb6Bvp0i0/nBCRnO/XnlTL7TD3SBQGYI0CPJq7iOuJiiyAv5gwUN4aC6UATN/GqXiIFnCDUMuRj+TY1vGOCnTBsM5EhkbAppG5HvYStm/oHeb0+TXkMAES/5OJ/uv6SsZKe4yCfNtgCCM6BoRtF/0CnxgqJtNgm8M15A2wonLwEEGnu4Y/v5TuBGRBqWQBQA1AXIFVDGgRvB+AZhb0U1G0e4ihemqYYAIg+wnkrbzjHDGer4nMGnAFgoThZIJGDhdD8IZJmu0Czb+DAXgKOKj4+xofvABOn6U0ctAMAxZgowACNXXHIVLDVAIa82eaqZZte+OHerTL4Ihv4qC0wABAdhr6BPv1JvVzuKtfLqfOJZnaRmfsNgZ1uggUAFkTVcrfGDpbmB20VmD/U6oAddEcfgxz6DXHSvOn++5KD35fBj2Y7YGEzIJtN5X8qWXj7jF/kwxtOKb0DoMZ9fGpHDABER2jx6ut7kCazoKEnDzbrxNTPayg+tS/S2RIwD4p5AOa6StLpKgmQ+v2HFxlgeUDwzSZDBoEPJU6bS/nNoTuRFu8XgSQOiBT5rjqsnu8yYNiArQC2zsxsB4B39zobhspIQNi5u7tr5O2rHuayPrU9BgCio2zBQN+cirf5KphvhnmRhc8q5LRM0QmgCkMEQQSgKioV7YqLvenmQUbFikEozjRAMaOguMe0204Q1/wVJM39eWD/fAYIJCr27MNYsaoCM1iwPQbsLB6BVIFdUZDRXMPbQfBTCdgSIFtQSd8ZuubJkRZ9akSTHgMA0XFggF74gxvmp5md40wig1TU2efNcIZAzgJslgHj15BHAJLxC9Elat5LcaAMDuwrMBRNiGjONJr4WPNH2+ygN/c/rtmroDKxIvEB40Nvgk1cF/+BhxkOGo4z8U4IoBNzlvbvy4/fjz/c7w8340EHNvF1CAByNQQINpnIqAEpzDbC7D8BIIjummXZ+udufILH5xJ9TAwARC3UN9Cnv//ynuqDZ5Xm/6RbZzmTXIIuNMP5IqgaoAYsBAAB5kTVcmK+GGM88Wwc7MDn+wNWCX7Fk7vsDwAiMhEgDmXi4+Od9L/qoXqIv6vjRWF/mCj+UUgksCzA1/JtzU9iOyBbAEQI2AixRhDs6TRdf8OW0S2XN2Zsu2Mh8jP7zsQdcgevwSQ6ChgAiCaZs1fc1Oni3VWEKEIZcJl1A0BPXXqqPszKgmDbDJ2bOVMX9ETz4XSo5DCkEMwFMBdAHUCAYT4EPQAOvG491cRV4hM60HhvNI26S0k0I2kusaM5+U6Q724gH03z0uxKlI7UYHkYBZD8UrlR8//ajGIFI2reUjG8ZWYpgDJEaqb23yai1bofOakhOzMVDHfZljwoIo3qZlILzmuaxXuSOAtZvZxvuPmh2jH9YhO1MQYAoinoD7+3KBpatAhu6/vdvhbmWFTOg8/zWOVkqPVAQh6CCwLMBqzbBLmYFK+cNeQWpCpiJ1qQd0XQA5GZFhBEQ7CgKmaROPt5gOxCkF8T2HtmMip68Gt9AaIApAIMB29BnahpUM0tALpVNOQBSIJG9e597w+/3XUShtlxT0REREREREREREREREREREREREREREREREREREREREREREREREREREREREREREREREREREREREREREREREREREREREREREREREREREREREREx9D/A+Q+Kph+1HR1AAAAAElFTkSuQmCC;" parent="PxfYsGnpCf7-yWaWJEkX-70" vertex="1">
                    <mxGeometry x="139" y="84.11374999999995" width="50.125540540540534" height="50.125540540540534" as="geometry"/>
                </mxCell>
                <mxCell id="PxfYsGnpCf7-yWaWJEkX-82" value="" style="group" parent="PxfYsGnpCf7-yWaWJEkX-70" vertex="1" connectable="0">
                    <mxGeometry y="212.44374999999997" width="330" height="107.56625000000003" as="geometry"/>
                </mxCell>
                <mxCell id="PxfYsGnpCf7-yWaWJEkX-69" value="Log In" style="html=1;shadow=0;dashed=0;shape=mxgraph.bootstrap.rrect;align=center;rSize=5;strokeColor=none;fillColor=#DB524C;fontColor=#ffffff;fontSize=16;whiteSpace=wrap;rounded=0;" parent="PxfYsGnpCf7-yWaWJEkX-82" vertex="1">
                    <mxGeometry x="70" y="67.55625000000003" width="190" height="40.01" as="geometry"/>
                </mxCell>
                <mxCell id="PxfYsGnpCf7-yWaWJEkX-68" value="Log in Now" style="html=1;shadow=0;dashed=0;shape=mxgraph.bootstrap.anchor;strokeColor=#dddddd;whiteSpace=wrap;align=center;verticalAlign=top;fontSize=14;whiteSpace=wrap;" parent="PxfYsGnpCf7-yWaWJEkX-82" vertex="1">
                    <mxGeometry y="37.56062499999996" width="330" height="47.555" as="geometry"/>
                </mxCell>
                <mxCell id="PxfYsGnpCf7-yWaWJEkX-67" value="Have An Account?" style="html=1;shadow=0;dashed=0;shape=mxgraph.bootstrap.anchor;fontSize=26;align=center;whiteSpace=wrap;" parent="PxfYsGnpCf7-yWaWJEkX-82" vertex="1">
                    <mxGeometry width="330" height="47.555" as="geometry"/>
                </mxCell>
                <mxCell id="PxfYsGnpCf7-yWaWJEkX-58" value="Password" style="html=1;shadow=0;dashed=0;shape=mxgraph.bootstrap.rect;strokeColor=none;fillColor=none;fontColor=#999999;align=left;spacingLeft=5;whiteSpace=wrap;rounded=0;" parent="1" vertex="1">
                    <mxGeometry x="1160" y="263" width="200" height="20" as="geometry"/>
                </mxCell>
                <mxCell id="PxfYsGnpCf7-yWaWJEkX-59" value="User Password" style="html=1;shadow=0;dashed=0;shape=mxgraph.bootstrap.rrect;rSize=5;strokeColor=#dddddd;;align=left;spacingLeft=10;fontSize=16;whiteSpace=wrap;rounded=0;" parent="1" vertex="1">
                    <mxGeometry x="1160" y="283" width="236" height="40" as="geometry"/>
                </mxCell>
                <mxCell id="PxfYsGnpCf7-yWaWJEkX-60" value="Register" style="html=1;shadow=0;dashed=0;shape=mxgraph.bootstrap.rrect;align=center;rSize=5;strokeColor=none;fillColor=#3D8BCD;fontColor=#ffffff;fontSize=16;whiteSpace=wrap;rounded=0;" parent="1" vertex="1">
                    <mxGeometry x="1160" y="413" width="236" height="40" as="geometry"/>
                </mxCell>
                <mxCell id="PxfYsGnpCf7-yWaWJEkX-74" value="" style="group" parent="1" vertex="1" connectable="0">
                    <mxGeometry x="1160" y="193" width="236" height="60" as="geometry"/>
                </mxCell>
                <mxCell id="PxfYsGnpCf7-yWaWJEkX-75" value="" style="group" parent="PxfYsGnpCf7-yWaWJEkX-74" vertex="1" connectable="0">
                    <mxGeometry width="236" height="60" as="geometry"/>
                </mxCell>
                <mxCell id="PxfYsGnpCf7-yWaWJEkX-72" value="User Email" style="html=1;shadow=0;dashed=0;shape=mxgraph.bootstrap.rrect;rSize=5;strokeColor=#dddddd;;align=left;spacingLeft=10;fontSize=16;whiteSpace=wrap;rounded=0;" parent="PxfYsGnpCf7-yWaWJEkX-75" vertex="1">
                    <mxGeometry y="20" width="236" height="40" as="geometry"/>
                </mxCell>
                <mxCell id="PxfYsGnpCf7-yWaWJEkX-73" value="Email (Optional)" style="html=1;shadow=0;dashed=0;shape=mxgraph.bootstrap.rect;strokeColor=none;fillColor=none;fontColor=#999999;align=left;spacingLeft=5;whiteSpace=wrap;rounded=0;" parent="PxfYsGnpCf7-yWaWJEkX-75" vertex="1">
                    <mxGeometry width="200" height="20" as="geometry"/>
                </mxCell>
                <mxCell id="PxfYsGnpCf7-yWaWJEkX-56" value="User Name" style="html=1;shadow=0;dashed=0;shape=mxgraph.bootstrap.rrect;rSize=5;strokeColor=#dddddd;;align=left;spacingLeft=10;fontSize=16;whiteSpace=wrap;rounded=0;" parent="1" vertex="1">
                    <mxGeometry x="1160" y="143" width="236" height="40" as="geometry"/>
                </mxCell>
                <mxCell id="PxfYsGnpCf7-yWaWJEkX-57" value="Name" style="html=1;shadow=0;dashed=0;shape=mxgraph.bootstrap.rect;strokeColor=none;fillColor=none;fontColor=#999999;align=left;spacingLeft=5;whiteSpace=wrap;rounded=0;" parent="1" vertex="1">
                    <mxGeometry x="1160" y="123" width="200" height="20" as="geometry"/>
                </mxCell>
                <mxCell id="PxfYsGnpCf7-yWaWJEkX-76" value="Repeat Password" style="html=1;shadow=0;dashed=0;shape=mxgraph.bootstrap.rect;strokeColor=none;fillColor=none;fontColor=#999999;align=left;spacingLeft=5;whiteSpace=wrap;rounded=0;" parent="1" vertex="1">
                    <mxGeometry x="1160" y="333" width="200" height="20" as="geometry"/>
                </mxCell>
                <mxCell id="PxfYsGnpCf7-yWaWJEkX-77" value="Repeat User Password" style="html=1;shadow=0;dashed=0;shape=mxgraph.bootstrap.rrect;rSize=5;strokeColor=#dddddd;;align=left;spacingLeft=10;fontSize=16;whiteSpace=wrap;rounded=0;" parent="1" vertex="1">
                    <mxGeometry x="1160" y="353" width="236" height="40" as="geometry"/>
                </mxCell>
                <mxCell id="PxfYsGnpCf7-yWaWJEkX-78" value="" style="rounded=1;whiteSpace=wrap;html=1;fillColor=#d5e8d4;strokeColor=none;" parent="1" vertex="1">
                    <mxGeometry x="40" y="50" width="290" height="43" as="geometry"/>
                </mxCell>
                <mxCell id="PxfYsGnpCf7-yWaWJEkX-79" value="Log In" style="html=1;shadow=0;dashed=0;shape=mxgraph.bootstrap.anchor;fontSize=26;align=center;whiteSpace=wrap;" parent="1" vertex="1">
                    <mxGeometry x="40" y="50" width="290" height="40" as="geometry"/>
                </mxCell>
                <mxCell id="PxfYsGnpCf7-yWaWJEkX-80" value="" style="rounded=1;whiteSpace=wrap;html=1;fillColor=#d5e8d4;strokeColor=none;" parent="1" vertex="1">
                    <mxGeometry x="1130" y="50" width="290" height="43" as="geometry"/>
                </mxCell>
                <mxCell id="PxfYsGnpCf7-yWaWJEkX-81" value="Register" style="html=1;shadow=0;dashed=0;shape=mxgraph.bootstrap.anchor;fontSize=26;align=center;whiteSpace=wrap;" parent="1" vertex="1">
                    <mxGeometry x="1130" y="53" width="290" height="40" as="geometry"/>
                </mxCell>
                <mxCell id="PxfYsGnpCf7-yWaWJEkX-16" value="No Account?" style="html=1;shadow=0;dashed=0;shape=mxgraph.bootstrap.anchor;fontSize=26;align=center;whiteSpace=wrap;" parent="1" vertex="1">
                    <mxGeometry x="330" y="313" width="330" height="40" as="geometry"/>
                </mxCell>
                <mxCell id="PxfYsGnpCf7-yWaWJEkX-17" value="Create One Now" style="html=1;shadow=0;dashed=0;shape=mxgraph.bootstrap.anchor;strokeColor=#dddddd;whiteSpace=wrap;align=center;verticalAlign=top;fontSize=14;whiteSpace=wrap;" parent="1" vertex="1">
                    <mxGeometry x="330" y="348" width="330" height="40" as="geometry"/>
                </mxCell>
                <mxCell id="PxfYsGnpCf7-yWaWJEkX-15" value="Create Account" style="html=1;shadow=0;dashed=0;shape=mxgraph.bootstrap.rrect;align=center;rSize=5;strokeColor=none;fillColor=#DB524C;fontColor=#ffffff;fontSize=16;whiteSpace=wrap;rounded=0;" parent="1" vertex="1">
                    <mxGeometry x="400" y="383" width="190" height="40" as="geometry"/>
                </mxCell>
            </root>
        </mxGraphModel>
    </diagram>
</mxfile>